  0
SECTION
  2
HEADER
  9
$ACADVER
  1
AC1009
  9
$DWGCODEPAGE
  3
ansi_1252
  9
$INSBASE
 10
0.0
 20
0.0
 30
0.0
  9
$EXTMIN
 10
67.95
 20
-119.9917568965
 30
0.0
  9
$EXTMAX
 10
232.33
 20
-61.2509133617
 30
0.0
  9
$LIMMIN
 10
0.0
 20
0.0
  9
$LIMMAX
 10
420.0
 20
297.0
  9
$ORTHOMODE
 70
     0
  9
$REGENMODE
 70
     1
  9
$FILLMODE
 70
     1
  9
$QTEXTMODE
 70
     0
  9
$MIRRTEXT
 70
     1
  9
$DRAGMODE
 70
     2
  9
$LTSCALE
 40
1.0
  9
$OSMODE
 70
    37
  9
$ATTMODE
 70
     1
  9
$TEXTSIZE
 40
3.5
  9
$TRACEWID
 40
1.0
  9
$TEXTSTYLE
  7
STANDARD
  9
$CLAYER
  8
0
  9
$CELTYPE
  6
BYLAYER
  9
$CECOLOR
 62
   256
  9
$DIMSCALE
 40
1.0
  9
$DIMASZ
 40
3.302
  9
$DIMEXO
 40
0.0
  9
$DIMDLI
 40
3.75
  9
$DIMRND
 40
0.0
  9
$DIMDLE
 40
0.0
  9
$DIMEXE
 40
1.0
  9
$DIMTP
 40
0.0
  9
$DIMTM
 40
0.0
  9
$DIMTXT
 40
3.5
  9
$DIMCEN
 40
2.5
  9
$DIMTSZ
 40
0.0
  9
$DIMTOL
 70
     0
  9
$DIMLIM
 70
     0
  9
$DIMTIH
 70
     1
  9
$DIMTOH
 70
     1
  9
$DIMSE1
 70
     0
  9
$DIMSE2
 70
     0
  9
$DIMTAD
 70
     1
  9
$DIMZIN
 70
     1
  9
$DIMBLK
  1

  9
$DIMASO
 70
     1
  9
$DIMSHO
 70
     1
  9
$DIMPOST
  1

  9
$DIMAPOST
  1

  9
$DIMALT
 70
     0
  9
$DIMALTD
 70
     3
  9
$DIMALTF
 40
0.0393700787
  9
$DIMLFAC
 40
1.0
  9
$DIMTOFL
 70
     1
  9
$DIMTVP
 40
0.0
  9
$DIMTIX
 70
     0
  9
$DIMSOXD
 70
     0
  9
$DIMSAH
 70
     0
  9
$DIMBLK1
  1

  9
$DIMBLK2
  1

  9
$DIMSTYLE
  2
ISO-25
  9
$DIMCLRD
 70
     0
  9
$DIMCLRE
 70
     0
  9
$DIMCLRT
 70
     0
  9
$DIMTFAC
 40
1.0
  9
$DIMGAP
 40
1.524
  9
$LUNITS
 70
     2
  9
$LUPREC
 70
     2
  9
$SKETCHINC
 40
1.0
  9
$FILLETRAD
 40
10.0
  9
$AUNITS
 70
     0
  9
$AUPREC
 70
     2
  9
$MENU
  1
.
  9
$ELEVATION
 40
0.0
  9
$PELEVATION
 40
0.0
  9
$THICKNESS
 40
0.0
  9
$LIMCHECK
 70
     0
  9
$CHAMFERA
 40
0.0
  9
$CHAMFERB
 40
0.0
  9
$SKPOLY
 70
     0
  9
$TDCREATE
 40
2461023.900237662
  9
$TDUPDATE
 40
2461023.900264954
  9
$TDINDWG
 40
0.0000000116
  9
$TDUSRTIMER
 40
0.0000000116
  9
$USRTIMER
 70
     1
  9
$ANGBASE
 50
0.0
  9
$ANGDIR
 70
     0
  9
$PDMODE
 70
     0
  9
$PDSIZE
 40
-1.0
  9
$PLINEWID
 40
0.0
  9
$COORDS
 70
     1
  9
$SPLFRAME
 70
     0
  9
$SPLINETYPE
 70
     6
  9
$SPLINESEGS
 70
     8
  9
$ATTDIA
 70
     0
  9
$ATTREQ
 70
     1
  9
$HANDLING
 70
     1
  9
$HANDSEED
  5
4DE
  9
$SURFTAB1
 70
     6
  9
$SURFTAB2
 70
     6
  9
$SURFTYPE
 70
     6
  9
$SURFU
 70
     6
  9
$SURFV
 70
     6
  9
$UCSNAME
  2

  9
$UCSORG
 10
0.0
 20
0.0
 30
0.0
  9
$UCSXDIR
 10
1.0
 20
0.0
 30
0.0
  9
$UCSYDIR
 10
0.0
 20
1.0
 30
0.0
  9
$PUCSNAME
  2

  9
$PUCSORG
 10
0.0
 20
0.0
 30
0.0
  9
$PUCSXDIR
 10
1.0
 20
0.0
 30
0.0
  9
$PUCSYDIR
 10
0.0
 20
1.0
 30
0.0
  9
$USERI1
 70
     0
  9
$USERI2
 70
     0
  9
$USERI3
 70
     0
  9
$USERI4
 70
     0
  9
$USERI5
 70
     0
  9
$USERR1
 40
0.0
  9
$USERR2
 40
0.0
  9
$USERR3
 40
0.0
  9
$USERR4
 40
0.0
  9
$USERR5
 40
0.0
  9
$WORLDVIEW
 70
     1
  9
$SHADEDGE
 70
     3
  9
$SHADEDIF
 70
    70
  9
$TILEMODE
 70
     1
  9
$MAXACTVP
 70
    64
  9
$PLIMCHECK
 70
     0
  9
$PEXTMIN
 10
1.0000000000E+20
 20
1.0000000000E+20
 30
1.0000000000E+20
  9
$PEXTMAX
 10
-1.0000000000E+20
 20
-1.0000000000E+20
 30
-1.0000000000E+20
  9
$PLIMMIN
 10
0.0
 20
0.0
  9
$PLIMMAX
 10
420.0
 20
297.0
  9
$UNITMODE
 70
     0
  9
$VISRETAIN
 70
     1
  9
$PLINEGEN
 70
     0
  9
$PSLTSCALE
 70
     1
  0
ENDSEC
  0
SECTION
  2
TABLES
  0
TABLE
  2
VPORT
 70
     1
  0
VPORT
  2
*ACTIVE
 70
     0
 10
0.0
 20
0.0
 11
1.0
 21
1.0
 12
150.14
 22
-90.6213351291
 13
0.0
 23
0.0
 14
10.0
 24
10.0
 15
10.0
 25
10.0
 16
0.0
 26
0.0
 36
1.0
 17
0.0
 27
0.0
 37
0.0
 40
59.9156604055
 41
2.7983935897
 42
50.0
 43
0.0
 44
0.0
 50
0.0
 51
0.0
 71
     0
 72
   100
 73
     1
 74
     3
 75
     0
 76
     0
 77
     0
 78
     0
  0
ENDTAB
  0
TABLE
  2
LTYPE
 70
     6
  0
LTYPE
  2
CONTINUOUS
 70
     0
  3
Solid line
 72
    65
 73
     0
 40
0.0
  0
LTYPE
  2
HIDDEN
 70
     0
  3
Hidden __ __ __ __ __ __ __ __ __ __ __ __ __ __
 72
    65
 73
     2
 40
1.905
 49
1.27
 49
-0.635
  0
LTYPE
  2
PHANTOM
 70
     0
  3
Phantom ______  __  __  ______  __  __  ______
 72
    65
 73
     6
 40
12.7
 49
6.35
 49
-1.27
 49
1.27
 49
-1.27
 49
1.27
 49
-1.27
  0
LTYPE
  2
CENTER
 70
     0
  3
Center ____ _ ____ _ ____ _ ____ _ ____ _ ____
 72
    65
 73
     4
 40
10.16
 49
6.35
 49
-1.27
 49
1.27
 49
-1.27
  0
LTYPE
  2
CENTERX2
 70
     0
  3
Center (2x) ________  __  ________  __  _____
 72
    65
 73
     4
 40
20.32
 49
12.7
 49
-2.54
 49
2.54
 49
-2.54
  0
LTYPE
  2
DOT2
 70
     0
  3
Dot (.5x) ........................................
 72
    65
 73
     2
 40
0.635
 49
0.0
 49
-0.635
  0
ENDTAB
  0
TABLE
  2
LAYER
 70
     1
  0
LAYER
  2
0
 70
     0
 62
     7
  6
CONTINUOUS
  0
ENDTAB
  0
TABLE
  2
STYLE
 70
     1
  0
STYLE
  2
STANDARD
 70
     0
 40
0.0
 41
1.0
 50
0.0
 71
     0
 42
3.5
  3
txt
  4

  0
ENDTAB
  0
TABLE
  2
VIEW
 70
     0
  0
ENDTAB
  0
TABLE
  2
UCS
 70
     0
  0
ENDTAB
  0
TABLE
  2
APPID
 70
     1
  0
APPID
  2
ACAD
 70
     0
  0
ENDTAB
  0
TABLE
  2
DIMSTYLE
 70
     1
  0
DIMSTYLE
  2
ISO-25
 70
     0
  3

  4

  5

  6

  7

 40
1.0
 41
2.5
 42
0.625
 43
3.75
 44
1.25
 45
0.0
 46
0.0
 47
0.0
 48
0.0
140
2.5
141
2.5
142
0.0
143
0.0393700787
144
1.0
145
0.0
146
1.0
147
0.625
 71
     0
 72
     0
 73
     0
 74
     0
 75
     0
 76
     0
 77
     1
 78
     8
170
     0
171
     3
172
     1
173
     0
174
     0
175
     0
176
     0
177
     0
178
     0
  0
ENDTAB
  0
ENDSEC
  0
SECTION
  2
BLOCKS
  0
BLOCK
  8
0
  2
$MODEL_SPACE
 70
     0
 10
0.0
 20
0.0
 30
0.0
  3
$MODEL_SPACE
  1

  0
ENDBLK
  5
21
  8
0
  0
BLOCK
 67
     1
  8
0
  2
$PAPER_SPACE
 70
     0
 10
0.0
 20
0.0
 30
0.0
  3
$PAPER_SPACE
  1

  0
ENDBLK
  5
1D
 67
     1
  8
0
  0
ENDSEC
  0
SECTION
  2
ENTITIES
  0
ARC
  5
73
  8
0
  6
CONTINUOUS
 62
     7
 10
75.03
 20
-116.89
 30
0.0
 40
1.200000000000003
 50
270.0
 51
0.0
  0
LINE
  5
74
  8
0
  6
CONTINUOUS
 62
     7
 10
70.25
 20
-118.09
 30
0.0
 11
75.03
 21
-118.09
 31
0.0
  0
ARC
  5
75
  8
0
  6
CONTINUOUS
 62
     7
 10
70.25
 20
-116.89
 30
0.0
 40
1.200000000000003
 50
180.0
 51
270.0
  0
LINE
  5
76
  8
0
  6
CONTINUOUS
 62
     7
 10
69.05
 20
-112.11
 30
0.0
 11
69.05
 21
-116.89
 31
0.0
  0
ARC
  5
77
  8
0
  6
CONTINUOUS
 62
     7
 10
70.25
 20
-112.11
 30
0.0
 40
1.200000000000003
 50
90.0
 51
180.0
  0
LINE
  5
78
  8
0
  6
CONTINUOUS
 62
     7
 10
70.25
 20
-110.91
 30
0.0
 11
75.03
 21
-110.91
 31
0.0
  0
ARC
  5
79
  8
0
  6
CONTINUOUS
 62
     7
 10
75.03
 20
-112.11
 30
0.0
 40
1.200000000000003
 50
0.0
 51
90.0
  0
LINE
  5
7A
  8
0
  6
CONTINUOUS
 62
     7
 10
76.23
 20
-112.11
 30
0.0
 11
76.23
 21
-116.89
 31
0.0
  0
ARC
  5
7B
  8
0
  6
CONTINUOUS
 62
     7
 10
83.03
 20
-116.89
 30
0.0
 40
1.200000000000003
 50
270.0
 51
0.0
  0
LINE
  5
7C
  8
0
  6
CONTINUOUS
 62
     7
 10
78.25
 20
-118.09
 30
0.0
 11
83.03
 21
-118.09
 31
0.0
  0
ARC
  5
7D
  8
0
  6
CONTINUOUS
 62
     7
 10
78.25
 20
-116.89
 30
0.0
 40
1.200000000000003
 50
180.0
 51
270.0
  0
LINE
  5
7E
  8
0
  6
CONTINUOUS
 62
     7
 10
77.05
 20
-112.11
 30
0.0
 11
77.05
 21
-116.89
 31
0.0
  0
ARC
  5
7F
  8
0
  6
CONTINUOUS
 62
     7
 10
78.25
 20
-112.11
 30
0.0
 40
1.200000000000003
 50
90.0
 51
180.0
  0
LINE
  5
80
  8
0
  6
CONTINUOUS
 62
     7
 10
78.25
 20
-110.91
 30
0.0
 11
83.03
 21
-110.91
 31
0.0
  0
ARC
  5
81
  8
0
  6
CONTINUOUS
 62
     7
 10
83.03
 20
-112.11
 30
0.0
 40
1.200000000000003
 50
0.0
 51
90.0
  0
LINE
  5
82
  8
0
  6
CONTINUOUS
 62
     7
 10
84.23
 20
-112.11
 30
0.0
 11
84.23
 21
-116.89
 31
0.0
  0
ARC
  5
83
  8
0
  6
CONTINUOUS
 62
     7
 10
91.03
 20
-116.89
 30
0.0
 40
1.200000000000017
 50
270.0
 51
0.0
  0
LINE
  5
84
  8
0
  6
CONTINUOUS
 62
     7
 10
86.25
 20
-118.09
 30
0.0
 11
91.03
 21
-118.09
 31
0.0
  0
ARC
  5
85
  8
0
  6
CONTINUOUS
 62
     7
 10
86.25
 20
-116.89
 30
0.0
 40
1.200000000000003
 50
180.0
 51
270.0
  0
LINE
  5
86
  8
0
  6
CONTINUOUS
 62
     7
 10
85.05
 20
-112.11
 30
0.0
 11
85.05
 21
-116.89
 31
0.0
  0
ARC
  5
87
  8
0
  6
CONTINUOUS
 62
     7
 10
86.25
 20
-112.11
 30
0.0
 40
1.200000000000003
 50
90.0
 51
180.0
  0
LINE
  5
88
  8
0
  6
CONTINUOUS
 62
     7
 10
86.25
 20
-110.91
 30
0.0
 11
91.03
 21
-110.91
 31
0.0
  0
ARC
  5
89
  8
0
  6
CONTINUOUS
 62
     7
 10
91.03
 20
-112.11
 30
0.0
 40
1.200000000000017
 50
0.0
 51
90.0
  0
LINE
  5
8A
  8
0
  6
CONTINUOUS
 62
     7
 10
92.23
 20
-112.11
 30
0.0
 11
92.23
 21
-116.89
 31
0.0
  0
ARC
  5
8B
  8
0
  6
CONTINUOUS
 62
     7
 10
99.03
 20
-116.89
 30
0.0
 40
1.200000000000003
 50
270.0
 51
0.0
  0
LINE
  5
8C
  8
0
  6
CONTINUOUS
 62
     7
 10
94.25
 20
-118.09
 30
0.0
 11
99.03
 21
-118.09
 31
0.0
  0
ARC
  5
8D
  8
0
  6
CONTINUOUS
 62
     7
 10
94.25
 20
-116.89
 30
0.0
 40
1.200000000000017
 50
180.0
 51
270.0
  0
LINE
  5
8E
  8
0
  6
CONTINUOUS
 62
     7
 10
93.05
 20
-112.11
 30
0.0
 11
93.05
 21
-116.89
 31
0.0
  0
ARC
  5
8F
  8
0
  6
CONTINUOUS
 62
     7
 10
94.25
 20
-112.11
 30
0.0
 40
1.200000000000017
 50
90.0
 51
180.0
  0
LINE
  5
90
  8
0
  6
CONTINUOUS
 62
     7
 10
94.25
 20
-110.91
 30
0.0
 11
99.03
 21
-110.91
 31
0.0
  0
ARC
  5
91
  8
0
  6
CONTINUOUS
 62
     7
 10
99.03
 20
-112.11
 30
0.0
 40
1.200000000000003
 50
0.0
 51
90.0
  0
LINE
  5
92
  8
0
  6
CONTINUOUS
 62
     7
 10
100.23
 20
-112.11
 30
0.0
 11
100.23
 21
-116.89
 31
0.0
  0
ARC
  5
93
  8
0
  6
CONTINUOUS
 62
     7
 10
107.03
 20
-116.89
 30
0.0
 40
1.200000000000003
 50
270.0
 51
0.0
  0
LINE
  5
94
  8
0
  6
CONTINUOUS
 62
     7
 10
102.25
 20
-118.09
 30
0.0
 11
107.03
 21
-118.09
 31
0.0
  0
ARC
  5
95
  8
0
  6
CONTINUOUS
 62
     7
 10
102.25
 20
-116.89
 30
0.0
 40
1.200000000000003
 50
180.0
 51
270.0
  0
LINE
  5
96
  8
0
  6
CONTINUOUS
 62
     7
 10
101.05
 20
-112.11
 30
0.0
 11
101.05
 21
-116.89
 31
0.0
  0
ARC
  5
97
  8
0
  6
CONTINUOUS
 62
     7
 10
102.25
 20
-112.11
 30
0.0
 40
1.200000000000003
 50
90.0
 51
180.0
  0
LINE
  5
98
  8
0
  6
CONTINUOUS
 62
     7
 10
102.25
 20
-110.91
 30
0.0
 11
107.03
 21
-110.91
 31
0.0
  0
ARC
  5
99
  8
0
  6
CONTINUOUS
 62
     7
 10
107.03
 20
-112.11
 30
0.0
 40
1.200000000000003
 50
0.0
 51
90.0
  0
LINE
  5
9A
  8
0
  6
CONTINUOUS
 62
     7
 10
108.23
 20
-112.11
 30
0.0
 11
108.23
 21
-116.89
 31
0.0
  0
ARC
  5
9B
  8
0
  6
CONTINUOUS
 62
     7
 10
115.03
 20
-116.89
 30
0.0
 40
1.200000000000017
 50
270.0
 51
0.0
  0
LINE
  5
9C
  8
0
  6
CONTINUOUS
 62
     7
 10
110.25
 20
-118.09
 30
0.0
 11
115.03
 21
-118.09
 31
0.0
  0
ARC
  5
9D
  8
0
  6
CONTINUOUS
 62
     7
 10
110.25
 20
-116.89
 30
0.0
 40
1.200000000000003
 50
180.0
 51
270.0
  0
LINE
  5
9E
  8
0
  6
CONTINUOUS
 62
     7
 10
109.05
 20
-112.11
 30
0.0
 11
109.05
 21
-116.89
 31
0.0
  0
ARC
  5
9F
  8
0
  6
CONTINUOUS
 62
     7
 10
110.25
 20
-112.11
 30
0.0
 40
1.200000000000003
 50
90.0
 51
180.0
  0
LINE
  5
A0
  8
0
  6
CONTINUOUS
 62
     7
 10
110.25
 20
-110.91
 30
0.0
 11
115.03
 21
-110.91
 31
0.0
  0
ARC
  5
A1
  8
0
  6
CONTINUOUS
 62
     7
 10
115.03
 20
-112.11
 30
0.0
 40
1.200000000000017
 50
0.0
 51
90.0
  0
LINE
  5
A2
  8
0
  6
CONTINUOUS
 62
     7
 10
116.23
 20
-112.11
 30
0.0
 11
116.23
 21
-116.89
 31
0.0
  0
ARC
  5
A3
  8
0
  6
CONTINUOUS
 62
     7
 10
123.03
 20
-116.89
 30
0.0
 40
1.200000000000003
 50
270.0
 51
0.0
  0
LINE
  5
A4
  8
0
  6
CONTINUOUS
 62
     7
 10
118.25
 20
-118.09
 30
0.0
 11
123.03
 21
-118.09
 31
0.0
  0
ARC
  5
A5
  8
0
  6
CONTINUOUS
 62
     7
 10
118.25
 20
-116.89
 30
0.0
 40
1.200000000000017
 50
180.0
 51
270.0
  0
LINE
  5
A6
  8
0
  6
CONTINUOUS
 62
     7
 10
117.05
 20
-112.11
 30
0.0
 11
117.05
 21
-116.89
 31
0.0
  0
ARC
  5
A7
  8
0
  6
CONTINUOUS
 62
     7
 10
118.25
 20
-112.11
 30
0.0
 40
1.200000000000017
 50
90.0
 51
180.0
  0
LINE
  5
A8
  8
0
  6
CONTINUOUS
 62
     7
 10
118.25
 20
-110.91
 30
0.0
 11
123.03
 21
-110.91
 31
0.0
  0
ARC
  5
A9
  8
0
  6
CONTINUOUS
 62
     7
 10
123.03
 20
-112.11
 30
0.0
 40
1.200000000000003
 50
0.0
 51
90.0
  0
LINE
  5
AA
  8
0
  6
CONTINUOUS
 62
     7
 10
124.23
 20
-112.11
 30
0.0
 11
124.23
 21
-116.89
 31
0.0
  0
ARC
  5
AB
  8
0
  6
CONTINUOUS
 62
     7
 10
131.03
 20
-116.89
 30
0.0
 40
1.200000000000017
 50
270.0
 51
0.0
  0
LINE
  5
AC
  8
0
  6
CONTINUOUS
 62
     7
 10
126.25
 20
-118.09
 30
0.0
 11
131.03
 21
-118.09
 31
0.0
  0
ARC
  5
AD
  8
0
  6
CONTINUOUS
 62
     7
 10
126.25
 20
-116.89
 30
0.0
 40
1.200000000000003
 50
180.0
 51
270.0
  0
LINE
  5
AE
  8
0
  6
CONTINUOUS
 62
     7
 10
125.05
 20
-112.11
 30
0.0
 11
125.05
 21
-116.89
 31
0.0
  0
ARC
  5
AF
  8
0
  6
CONTINUOUS
 62
     7
 10
126.25
 20
-112.11
 30
0.0
 40
1.200000000000003
 50
90.0
 51
180.0
  0
LINE
  5
B0
  8
0
  6
CONTINUOUS
 62
     7
 10
126.25
 20
-110.91
 30
0.0
 11
131.03
 21
-110.91
 31
0.0
  0
ARC
  5
B1
  8
0
  6
CONTINUOUS
 62
     7
 10
131.03
 20
-112.11
 30
0.0
 40
1.200000000000017
 50
0.0
 51
90.0
  0
LINE
  5
B2
  8
0
  6
CONTINUOUS
 62
     7
 10
132.23
 20
-112.11
 30
0.0
 11
132.23
 21
-116.89
 31
0.0
  0
ARC
  5
B3
  8
0
  6
CONTINUOUS
 62
     7
 10
139.03
 20
-116.89
 30
0.0
 40
1.200000000000045
 50
270.0
 51
0.0
  0
LINE
  5
B4
  8
0
  6
CONTINUOUS
 62
     7
 10
134.25
 20
-118.09
 30
0.0
 11
139.03
 21
-118.09
 31
0.0
  0
ARC
  5
B5
  8
0
  6
CONTINUOUS
 62
     7
 10
134.25
 20
-116.89
 30
0.0
 40
1.200000000000017
 50
180.0
 51
270.0
  0
LINE
  5
B6
  8
0
  6
CONTINUOUS
 62
     7
 10
133.05
 20
-112.11
 30
0.0
 11
133.05
 21
-116.89
 31
0.0
  0
ARC
  5
B7
  8
0
  6
CONTINUOUS
 62
     7
 10
134.25
 20
-112.11
 30
0.0
 40
1.200000000000017
 50
90.0
 51
180.0
  0
LINE
  5
B8
  8
0
  6
CONTINUOUS
 62
     7
 10
134.25
 20
-110.91
 30
0.0
 11
139.03
 21
-110.91
 31
0.0
  0
ARC
  5
B9
  8
0
  6
CONTINUOUS
 62
     7
 10
139.03
 20
-112.11
 30
0.0
 40
1.200000000000045
 50
0.0
 51
90.0
  0
LINE
  5
BA
  8
0
  6
CONTINUOUS
 62
     7
 10
140.23
 20
-112.11
 30
0.0
 11
140.23
 21
-116.89
 31
0.0
  0
ARC
  5
BB
  8
0
  6
CONTINUOUS
 62
     7
 10
147.03
 20
-116.89
 30
0.0
 40
1.200000000000017
 50
270.0
 51
0.0
  0
LINE
  5
BC
  8
0
  6
CONTINUOUS
 62
     7
 10
142.25
 20
-118.09
 30
0.0
 11
147.03
 21
-118.09
 31
0.0
  0
ARC
  5
BD
  8
0
  6
CONTINUOUS
 62
     7
 10
142.25
 20
-116.89
 30
0.0
 40
1.200000000000003
 50
180.0
 51
270.0
  0
LINE
  5
BE
  8
0
  6
CONTINUOUS
 62
     7
 10
141.05
 20
-112.11
 30
0.0
 11
141.05
 21
-116.89
 31
0.0
  0
ARC
  5
BF
  8
0
  6
CONTINUOUS
 62
     7
 10
142.25
 20
-112.11
 30
0.0
 40
1.200000000000003
 50
90.0
 51
180.0
  0
LINE
  5
C0
  8
0
  6
CONTINUOUS
 62
     7
 10
142.25
 20
-110.91
 30
0.0
 11
147.03
 21
-110.91
 31
0.0
  0
ARC
  5
C1
  8
0
  6
CONTINUOUS
 62
     7
 10
147.03
 20
-112.11
 30
0.0
 40
1.200000000000017
 50
0.0
 51
90.0
  0
LINE
  5
C2
  8
0
  6
CONTINUOUS
 62
     7
 10
148.23
 20
-112.11
 30
0.0
 11
148.23
 21
-116.89
 31
0.0
  0
ARC
  5
C3
  8
0
  6
CONTINUOUS
 62
     7
 10
155.03
 20
-116.89
 30
0.0
 40
1.200000000000017
 50
270.0
 51
0.0
  0
LINE
  5
C4
  8
0
  6
CONTINUOUS
 62
     7
 10
150.25
 20
-118.09
 30
0.0
 11
155.03
 21
-118.09
 31
0.0
  0
ARC
  5
C5
  8
0
  6
CONTINUOUS
 62
     7
 10
150.25
 20
-116.89
 30
0.0
 40
1.200000000000003
 50
180.0
 51
270.0
  0
LINE
  5
C6
  8
0
  6
CONTINUOUS
 62
     7
 10
149.05
 20
-112.11
 30
0.0
 11
149.05
 21
-116.89
 31
0.0
  0
ARC
  5
C7
  8
0
  6
CONTINUOUS
 62
     7
 10
150.25
 20
-112.11
 30
0.0
 40
1.200000000000003
 50
90.0
 51
180.0
  0
LINE
  5
C8
  8
0
  6
CONTINUOUS
 62
     7
 10
150.25
 20
-110.91
 30
0.0
 11
155.03
 21
-110.91
 31
0.0
  0
ARC
  5
C9
  8
0
  6
CONTINUOUS
 62
     7
 10
155.03
 20
-112.11
 30
0.0
 40
1.200000000000017
 50
0.0
 51
90.0
  0
LINE
  5
CA
  8
0
  6
CONTINUOUS
 62
     7
 10
156.23
 20
-112.11
 30
0.0
 11
156.23
 21
-116.89
 31
0.0
  0
ARC
  5
CB
  8
0
  6
CONTINUOUS
 62
     7
 10
163.03
 20
-116.89
 30
0.0
 40
1.200000000000003
 50
270.0
 51
0.0
  0
LINE
  5
CC
  8
0
  6
CONTINUOUS
 62
     7
 10
158.25
 20
-118.09
 30
0.0
 11
163.03
 21
-118.09
 31
0.0
  0
ARC
  5
CD
  8
0
  6
CONTINUOUS
 62
     7
 10
158.25
 20
-116.89
 30
0.0
 40
1.200000000000017
 50
180.0
 51
270.0
  0
LINE
  5
CE
  8
0
  6
CONTINUOUS
 62
     7
 10
157.05
 20
-112.11
 30
0.0
 11
157.05
 21
-116.89
 31
0.0
  0
ARC
  5
CF
  8
0
  6
CONTINUOUS
 62
     7
 10
158.25
 20
-112.11
 30
0.0
 40
1.200000000000017
 50
90.0
 51
180.0
  0
LINE
  5
D0
  8
0
  6
CONTINUOUS
 62
     7
 10
158.25
 20
-110.91
 30
0.0
 11
163.03
 21
-110.91
 31
0.0
  0
ARC
  5
D1
  8
0
  6
CONTINUOUS
 62
     7
 10
163.03
 20
-112.11
 30
0.0
 40
1.200000000000003
 50
0.0
 51
90.0
  0
LINE
  5
D2
  8
0
  6
CONTINUOUS
 62
     7
 10
164.23
 20
-112.11
 30
0.0
 11
164.23
 21
-116.89
 31
0.0
  0
ARC
  5
D3
  8
0
  6
CONTINUOUS
 62
     7
 10
171.03
 20
-116.89
 30
0.0
 40
1.200000000000003
 50
270.0
 51
0.0
  0
LINE
  5
D4
  8
0
  6
CONTINUOUS
 62
     7
 10
166.25
 20
-118.09
 30
0.0
 11
171.03
 21
-118.09
 31
0.0
  0
ARC
  5
D5
  8
0
  6
CONTINUOUS
 62
     7
 10
166.25
 20
-116.89
 30
0.0
 40
1.200000000000003
 50
180.0
 51
270.0
  0
LINE
  5
D6
  8
0
  6
CONTINUOUS
 62
     7
 10
165.05
 20
-112.11
 30
0.0
 11
165.05
 21
-116.89
 31
0.0
  0
ARC
  5
D7
  8
0
  6
CONTINUOUS
 62
     7
 10
166.25
 20
-112.11
 30
0.0
 40
1.200000000000003
 50
90.0
 51
180.0
  0
LINE
  5
D8
  8
0
  6
CONTINUOUS
 62
     7
 10
166.25
 20
-110.91
 30
0.0
 11
171.03
 21
-110.91
 31
0.0
  0
ARC
  5
D9
  8
0
  6
CONTINUOUS
 62
     7
 10
171.03
 20
-112.11
 30
0.0
 40
1.200000000000003
 50
0.0
 51
90.0
  0
LINE
  5
DA
  8
0
  6
CONTINUOUS
 62
     7
 10
172.23
 20
-112.11
 30
0.0
 11
172.23
 21
-116.89
 31
0.0
  0
ARC
  5
DB
  8
0
  6
CONTINUOUS
 62
     7
 10
179.03
 20
-116.89
 30
0.0
 40
1.200000000000003
 50
270.0
 51
0.0
  0
LINE
  5
DC
  8
0
  6
CONTINUOUS
 62
     7
 10
174.25
 20
-118.09
 30
0.0
 11
179.03
 21
-118.09
 31
0.0
  0
ARC
  5
DD
  8
0
  6
CONTINUOUS
 62
     7
 10
174.25
 20
-116.89
 30
0.0
 40
1.200000000000017
 50
180.0
 51
270.0
  0
LINE
  5
DE
  8
0
  6
CONTINUOUS
 62
     7
 10
173.05
 20
-112.11
 30
0.0
 11
173.05
 21
-116.89
 31
0.0
  0
ARC
  5
DF
  8
0
  6
CONTINUOUS
 62
     7
 10
174.25
 20
-112.11
 30
0.0
 40
1.200000000000017
 50
90.0
 51
180.0
  0
LINE
  5
E0
  8
0
  6
CONTINUOUS
 62
     7
 10
174.25
 20
-110.91
 30
0.0
 11
179.03
 21
-110.91
 31
0.0
  0
ARC
  5
E1
  8
0
  6
CONTINUOUS
 62
     7
 10
179.03
 20
-112.11
 30
0.0
 40
1.200000000000003
 50
0.0
 51
90.0
  0
LINE
  5
E2
  8
0
  6
CONTINUOUS
 62
     7
 10
180.23
 20
-112.11
 30
0.0
 11
180.23
 21
-116.89
 31
0.0
  0
ARC
  5
E3
  8
0
  6
CONTINUOUS
 62
     7
 10
187.03
 20
-116.89
 30
0.0
 40
1.200000000000017
 50
270.0
 51
0.0
  0
LINE
  5
E4
  8
0
  6
CONTINUOUS
 62
     7
 10
182.25
 20
-118.09
 30
0.0
 11
187.03
 21
-118.09
 31
0.0
  0
ARC
  5
E5
  8
0
  6
CONTINUOUS
 62
     7
 10
182.25
 20
-116.89
 30
0.0
 40
1.200000000000017
 50
180.0
 51
270.0
  0
LINE
  5
E6
  8
0
  6
CONTINUOUS
 62
     7
 10
181.05
 20
-112.11
 30
0.0
 11
181.05
 21
-116.89
 31
0.0
  0
ARC
  5
E7
  8
0
  6
CONTINUOUS
 62
     7
 10
182.25
 20
-112.11
 30
0.0
 40
1.200000000000017
 50
90.0
 51
180.0
  0
LINE
  5
E8
  8
0
  6
CONTINUOUS
 62
     7
 10
182.25
 20
-110.91
 30
0.0
 11
187.03
 21
-110.91
 31
0.0
  0
ARC
  5
E9
  8
0
  6
CONTINUOUS
 62
     7
 10
187.03
 20
-112.11
 30
0.0
 40
1.200000000000017
 50
0.0
 51
90.0
  0
LINE
  5
EA
  8
0
  6
CONTINUOUS
 62
     7
 10
188.23
 20
-112.11
 30
0.0
 11
188.23
 21
-116.89
 31
0.0
  0
ARC
  5
EB
  8
0
  6
CONTINUOUS
 62
     7
 10
195.03
 20
-116.89
 30
0.0
 40
1.200000000000017
 50
270.0
 51
0.0
  0
LINE
  5
EC
  8
0
  6
CONTINUOUS
 62
     7
 10
190.25
 20
-118.09
 30
0.0
 11
195.03
 21
-118.09
 31
0.0
  0
ARC
  5
ED
  8
0
  6
CONTINUOUS
 62
     7
 10
190.25
 20
-116.89
 30
0.0
 40
1.200000000000003
 50
180.0
 51
270.0
  0
LINE
  5
EE
  8
0
  6
CONTINUOUS
 62
     7
 10
189.05
 20
-112.11
 30
0.0
 11
189.05
 21
-116.89
 31
0.0
  0
ARC
  5
EF
  8
0
  6
CONTINUOUS
 62
     7
 10
190.25
 20
-112.11
 30
0.0
 40
1.200000000000003
 50
90.0
 51
180.0
  0
LINE
  5
F0
  8
0
  6
CONTINUOUS
 62
     7
 10
190.25
 20
-110.91
 30
0.0
 11
195.03
 21
-110.91
 31
0.0
  0
ARC
  5
F1
  8
0
  6
CONTINUOUS
 62
     7
 10
195.03
 20
-112.11
 30
0.0
 40
1.200000000000017
 50
0.0
 51
90.0
  0
LINE
  5
F2
  8
0
  6
CONTINUOUS
 62
     7
 10
196.23
 20
-112.11
 30
0.0
 11
196.23
 21
-116.89
 31
0.0
  0
ARC
  5
F3
  8
0
  6
CONTINUOUS
 62
     7
 10
203.03
 20
-116.89
 30
0.0
 40
1.200000000000045
 50
270.0
 51
0.0
  0
LINE
  5
F4
  8
0
  6
CONTINUOUS
 62
     7
 10
198.25
 20
-118.09
 30
0.0
 11
203.03
 21
-118.09
 31
0.0
  0
ARC
  5
F5
  8
0
  6
CONTINUOUS
 62
     7
 10
198.25
 20
-116.89
 30
0.0
 40
1.200000000000017
 50
180.0
 51
270.0
  0
LINE
  5
F6
  8
0
  6
CONTINUOUS
 62
     7
 10
197.05
 20
-112.11
 30
0.0
 11
197.05
 21
-116.89
 31
0.0
  0
ARC
  5
F7
  8
0
  6
CONTINUOUS
 62
     7
 10
198.25
 20
-112.11
 30
0.0
 40
1.200000000000017
 50
90.0
 51
180.0
  0
LINE
  5
F8
  8
0
  6
CONTINUOUS
 62
     7
 10
198.25
 20
-110.91
 30
0.0
 11
203.03
 21
-110.91
 31
0.0
  0
ARC
  5
F9
  8
0
  6
CONTINUOUS
 62
     7
 10
203.03
 20
-112.11
 30
0.0
 40
1.200000000000045
 50
0.0
 51
90.0
  0
LINE
  5
FA
  8
0
  6
CONTINUOUS
 62
     7
 10
204.23
 20
-112.11
 30
0.0
 11
204.23
 21
-116.89
 31
0.0
  0
ARC
  5
FB
  8
0
  6
CONTINUOUS
 62
     7
 10
211.03
 20
-116.89
 30
0.0
 40
1.200000000000045
 50
270.0
 51
0.0
  0
LINE
  5
FC
  8
0
  6
CONTINUOUS
 62
     7
 10
206.25
 20
-118.09
 30
0.0
 11
211.03
 21
-118.09
 31
0.0
  0
ARC
  5
FD
  8
0
  6
CONTINUOUS
 62
     7
 10
206.25
 20
-116.89
 30
0.0
 40
1.200000000000003
 50
180.0
 51
270.0
  0
LINE
  5
FE
  8
0
  6
CONTINUOUS
 62
     7
 10
205.05
 20
-112.11
 30
0.0
 11
205.05
 21
-116.89
 31
0.0
  0
ARC
  5
FF
  8
0
  6
CONTINUOUS
 62
     7
 10
206.25
 20
-112.11
 30
0.0
 40
1.200000000000003
 50
90.0
 51
180.0
  0
LINE
  5
100
  8
0
  6
CONTINUOUS
 62
     7
 10
206.25
 20
-110.91
 30
0.0
 11
211.03
 21
-110.91
 31
0.0
  0
ARC
  5
101
  8
0
  6
CONTINUOUS
 62
     7
 10
211.03
 20
-112.11
 30
0.0
 40
1.200000000000045
 50
0.0
 51
90.0
  0
LINE
  5
102
  8
0
  6
CONTINUOUS
 62
     7
 10
212.23
 20
-112.11
 30
0.0
 11
212.23
 21
-116.89
 31
0.0
  0
ARC
  5
103
  8
0
  6
CONTINUOUS
 62
     7
 10
219.03
 20
-116.89
 30
0.0
 40
1.200000000000017
 50
270.0
 51
0.0
  0
LINE
  5
104
  8
0
  6
CONTINUOUS
 62
     7
 10
214.25
 20
-118.09
 30
0.0
 11
219.03
 21
-118.09
 31
0.0
  0
ARC
  5
105
  8
0
  6
CONTINUOUS
 62
     7
 10
214.25
 20
-116.89
 30
0.0
 40
1.200000000000017
 50
180.0
 51
270.0
  0
LINE
  5
106
  8
0
  6
CONTINUOUS
 62
     7
 10
213.05
 20
-112.11
 30
0.0
 11
213.05
 21
-116.89
 31
0.0
  0
ARC
  5
107
  8
0
  6
CONTINUOUS
 62
     7
 10
214.25
 20
-112.11
 30
0.0
 40
1.200000000000017
 50
90.0
 51
180.0
  0
LINE
  5
108
  8
0
  6
CONTINUOUS
 62
     7
 10
214.25
 20
-110.91
 30
0.0
 11
219.03
 21
-110.91
 31
0.0
  0
ARC
  5
109
  8
0
  6
CONTINUOUS
 62
     7
 10
219.03
 20
-112.11
 30
0.0
 40
1.200000000000017
 50
0.0
 51
90.0
  0
LINE
  5
10A
  8
0
  6
CONTINUOUS
 62
     7
 10
220.23
 20
-112.11
 30
0.0
 11
220.23
 21
-116.89
 31
0.0
  0
ARC
  5
10B
  8
0
  6
CONTINUOUS
 62
     7
 10
227.03
 20
-116.89
 30
0.0
 40
1.200000000000003
 50
270.0
 51
0.0
  0
LINE
  5
10C
  8
0
  6
CONTINUOUS
 62
     7
 10
222.25
 20
-118.09
 30
0.0
 11
227.03
 21
-118.09
 31
0.0
  0
ARC
  5
10D
  8
0
  6
CONTINUOUS
 62
     7
 10
222.25
 20
-116.89
 30
0.0
 40
1.200000000000017
 50
180.0
 51
270.0
  0
LINE
  5
10E
  8
0
  6
CONTINUOUS
 62
     7
 10
221.05
 20
-112.11
 30
0.0
 11
221.05
 21
-116.89
 31
0.0
  0
ARC
  5
10F
  8
0
  6
CONTINUOUS
 62
     7
 10
222.25
 20
-112.11
 30
0.0
 40
1.200000000000017
 50
90.0
 51
180.0
  0
LINE
  5
110
  8
0
  6
CONTINUOUS
 62
     7
 10
222.25
 20
-110.91
 30
0.0
 11
227.03
 21
-110.91
 31
0.0
  0
ARC
  5
111
  8
0
  6
CONTINUOUS
 62
     7
 10
227.03
 20
-112.11
 30
0.0
 40
1.200000000000003
 50
0.0
 51
90.0
  0
LINE
  5
112
  8
0
  6
CONTINUOUS
 62
     7
 10
228.23
 20
-112.11
 30
0.0
 11
228.23
 21
-116.89
 31
0.0
  0
ARC
  5
113
  8
0
  6
CONTINUOUS
 62
     7
 10
83.03
 20
-108.89
 30
0.0
 40
1.200000000000003
 50
270.0
 51
0.0
  0
LINE
  5
114
  8
0
  6
CONTINUOUS
 62
     7
 10
78.25
 20
-110.09
 30
0.0
 11
83.03
 21
-110.09
 31
0.0
  0
ARC
  5
115
  8
0
  6
CONTINUOUS
 62
     7
 10
78.25
 20
-108.89
 30
0.0
 40
1.200000000000003
 50
180.0
 51
270.0
  0
LINE
  5
116
  8
0
  6
CONTINUOUS
 62
     7
 10
77.05
 20
-104.11
 30
0.0
 11
77.05
 21
-108.89
 31
0.0
  0
ARC
  5
117
  8
0
  6
CONTINUOUS
 62
     7
 10
78.25
 20
-104.11
 30
0.0
 40
1.200000000000017
 50
90.0
 51
180.0
  0
LINE
  5
118
  8
0
  6
CONTINUOUS
 62
     7
 10
78.25
 20
-102.91
 30
0.0
 11
83.03
 21
-102.91
 31
0.0
  0
ARC
  5
119
  8
0
  6
CONTINUOUS
 62
     7
 10
83.03
 20
-104.11
 30
0.0
 40
1.200000000000017
 50
0.0
 51
90.0
  0
LINE
  5
11A
  8
0
  6
CONTINUOUS
 62
     7
 10
84.23
 20
-104.11
 30
0.0
 11
84.23
 21
-108.89
 31
0.0
  0
ARC
  5
11B
  8
0
  6
CONTINUOUS
 62
     7
 10
91.03
 20
-108.89
 30
0.0
 40
1.200000000000017
 50
270.0
 51
0.0
  0
LINE
  5
11C
  8
0
  6
CONTINUOUS
 62
     7
 10
86.25
 20
-110.09
 30
0.0
 11
91.03
 21
-110.09
 31
0.0
  0
ARC
  5
11D
  8
0
  6
CONTINUOUS
 62
     7
 10
86.25
 20
-108.89
 30
0.0
 40
1.200000000000003
 50
180.0
 51
270.0
  0
LINE
  5
11E
  8
0
  6
CONTINUOUS
 62
     7
 10
85.05
 20
-104.11
 30
0.0
 11
85.05
 21
-108.89
 31
0.0
  0
ARC
  5
11F
  8
0
  6
CONTINUOUS
 62
     7
 10
86.25
 20
-104.11
 30
0.0
 40
1.200000000000017
 50
90.0
 51
180.0
  0
LINE
  5
120
  8
0
  6
CONTINUOUS
 62
     7
 10
86.25
 20
-102.91
 30
0.0
 11
91.03
 21
-102.91
 31
0.0
  0
ARC
  5
121
  8
0
  6
CONTINUOUS
 62
     7
 10
91.03
 20
-104.11
 30
0.0
 40
1.200000000000017
 50
0.0
 51
90.0
  0
LINE
  5
122
  8
0
  6
CONTINUOUS
 62
     7
 10
92.23
 20
-104.11
 30
0.0
 11
92.23
 21
-108.89
 31
0.0
  0
ARC
  5
123
  8
0
  6
CONTINUOUS
 62
     7
 10
99.03
 20
-108.89
 30
0.0
 40
1.200000000000003
 50
270.0
 51
0.0
  0
LINE
  5
124
  8
0
  6
CONTINUOUS
 62
     7
 10
94.25
 20
-110.09
 30
0.0
 11
99.03
 21
-110.09
 31
0.0
  0
ARC
  5
125
  8
0
  6
CONTINUOUS
 62
     7
 10
94.25
 20
-108.89
 30
0.0
 40
1.200000000000017
 50
180.0
 51
270.0
  0
LINE
  5
126
  8
0
  6
CONTINUOUS
 62
     7
 10
93.05
 20
-104.11
 30
0.0
 11
93.05
 21
-108.89
 31
0.0
  0
ARC
  5
127
  8
0
  6
CONTINUOUS
 62
     7
 10
94.25
 20
-104.11
 30
0.0
 40
1.200000000000017
 50
90.0
 51
180.0
  0
LINE
  5
128
  8
0
  6
CONTINUOUS
 62
     7
 10
94.25
 20
-102.91
 30
0.0
 11
99.03
 21
-102.91
 31
0.0
  0
ARC
  5
129
  8
0
  6
CONTINUOUS
 62
     7
 10
99.03
 20
-104.11
 30
0.0
 40
1.200000000000017
 50
0.0
 51
90.0
  0
LINE
  5
12A
  8
0
  6
CONTINUOUS
 62
     7
 10
100.23
 20
-104.11
 30
0.0
 11
100.23
 21
-108.89
 31
0.0
  0
ARC
  5
12B
  8
0
  6
CONTINUOUS
 62
     7
 10
107.03
 20
-108.89
 30
0.0
 40
1.200000000000003
 50
270.0
 51
0.0
  0
LINE
  5
12C
  8
0
  6
CONTINUOUS
 62
     7
 10
102.25
 20
-110.09
 30
0.0
 11
107.03
 21
-110.09
 31
0.0
  0
ARC
  5
12D
  8
0
  6
CONTINUOUS
 62
     7
 10
102.25
 20
-108.89
 30
0.0
 40
1.200000000000003
 50
180.0
 51
270.0
  0
LINE
  5
12E
  8
0
  6
CONTINUOUS
 62
     7
 10
101.05
 20
-104.11
 30
0.0
 11
101.05
 21
-108.89
 31
0.0
  0
ARC
  5
12F
  8
0
  6
CONTINUOUS
 62
     7
 10
102.25
 20
-104.11
 30
0.0
 40
1.200000000000017
 50
90.0
 51
180.0
  0
LINE
  5
130
  8
0
  6
CONTINUOUS
 62
     7
 10
102.25
 20
-102.91
 30
0.0
 11
107.03
 21
-102.91
 31
0.0
  0
ARC
  5
131
  8
0
  6
CONTINUOUS
 62
     7
 10
107.03
 20
-104.11
 30
0.0
 40
1.200000000000017
 50
0.0
 51
90.0
  0
LINE
  5
132
  8
0
  6
CONTINUOUS
 62
     7
 10
108.23
 20
-104.11
 30
0.0
 11
108.23
 21
-108.89
 31
0.0
  0
ARC
  5
133
  8
0
  6
CONTINUOUS
 62
     7
 10
115.03
 20
-108.89
 30
0.0
 40
1.200000000000017
 50
270.0
 51
0.0
  0
LINE
  5
134
  8
0
  6
CONTINUOUS
 62
     7
 10
110.25
 20
-110.09
 30
0.0
 11
115.03
 21
-110.09
 31
0.0
  0
ARC
  5
135
  8
0
  6
CONTINUOUS
 62
     7
 10
110.25
 20
-108.89
 30
0.0
 40
1.200000000000003
 50
180.0
 51
270.0
  0
LINE
  5
136
  8
0
  6
CONTINUOUS
 62
     7
 10
109.05
 20
-104.11
 30
0.0
 11
109.05
 21
-108.89
 31
0.0
  0
ARC
  5
137
  8
0
  6
CONTINUOUS
 62
     7
 10
110.25
 20
-104.11
 30
0.0
 40
1.200000000000017
 50
90.0
 51
180.0
  0
LINE
  5
138
  8
0
  6
CONTINUOUS
 62
     7
 10
110.25
 20
-102.91
 30
0.0
 11
115.03
 21
-102.91
 31
0.0
  0
ARC
  5
139
  8
0
  6
CONTINUOUS
 62
     7
 10
115.03
 20
-104.11
 30
0.0
 40
1.200000000000017
 50
0.0
 51
90.0
  0
LINE
  5
13A
  8
0
  6
CONTINUOUS
 62
     7
 10
116.23
 20
-104.11
 30
0.0
 11
116.23
 21
-108.89
 31
0.0
  0
ARC
  5
13B
  8
0
  6
CONTINUOUS
 62
     7
 10
123.03
 20
-108.89
 30
0.0
 40
1.200000000000003
 50
270.0
 51
0.0
  0
LINE
  5
13C
  8
0
  6
CONTINUOUS
 62
     7
 10
118.25
 20
-110.09
 30
0.0
 11
123.03
 21
-110.09
 31
0.0
  0
ARC
  5
13D
  8
0
  6
CONTINUOUS
 62
     7
 10
118.25
 20
-108.89
 30
0.0
 40
1.200000000000017
 50
180.0
 51
270.0
  0
LINE
  5
13E
  8
0
  6
CONTINUOUS
 62
     7
 10
117.05
 20
-104.11
 30
0.0
 11
117.05
 21
-108.89
 31
0.0
  0
ARC
  5
13F
  8
0
  6
CONTINUOUS
 62
     7
 10
118.25
 20
-104.11
 30
0.0
 40
1.200000000000017
 50
90.0
 51
180.0
  0
LINE
  5
140
  8
0
  6
CONTINUOUS
 62
     7
 10
118.25
 20
-102.91
 30
0.0
 11
123.03
 21
-102.91
 31
0.0
  0
ARC
  5
141
  8
0
  6
CONTINUOUS
 62
     7
 10
123.03
 20
-104.11
 30
0.0
 40
1.200000000000017
 50
0.0
 51
90.0
  0
LINE
  5
142
  8
0
  6
CONTINUOUS
 62
     7
 10
124.23
 20
-104.11
 30
0.0
 11
124.23
 21
-108.89
 31
0.0
  0
ARC
  5
143
  8
0
  6
CONTINUOUS
 62
     7
 10
131.03
 20
-108.89
 30
0.0
 40
1.200000000000017
 50
270.0
 51
0.0
  0
LINE
  5
144
  8
0
  6
CONTINUOUS
 62
     7
 10
126.25
 20
-110.09
 30
0.0
 11
131.03
 21
-110.09
 31
0.0
  0
ARC
  5
145
  8
0
  6
CONTINUOUS
 62
     7
 10
126.25
 20
-108.89
 30
0.0
 40
1.200000000000003
 50
180.0
 51
270.0
  0
LINE
  5
146
  8
0
  6
CONTINUOUS
 62
     7
 10
125.05
 20
-104.11
 30
0.0
 11
125.05
 21
-108.89
 31
0.0
  0
ARC
  5
147
  8
0
  6
CONTINUOUS
 62
     7
 10
126.25
 20
-104.11
 30
0.0
 40
1.200000000000017
 50
90.0
 51
180.0
  0
LINE
  5
148
  8
0
  6
CONTINUOUS
 62
     7
 10
126.25
 20
-102.91
 30
0.0
 11
131.03
 21
-102.91
 31
0.0
  0
ARC
  5
149
  8
0
  6
CONTINUOUS
 62
     7
 10
131.03
 20
-104.11
 30
0.0
 40
1.200000000000017
 50
0.0
 51
90.0
  0
LINE
  5
14A
  8
0
  6
CONTINUOUS
 62
     7
 10
132.23
 20
-104.11
 30
0.0
 11
132.23
 21
-108.89
 31
0.0
  0
ARC
  5
14B
  8
0
  6
CONTINUOUS
 62
     7
 10
139.03
 20
-108.89
 30
0.0
 40
1.200000000000003
 50
270.0
 51
0.0
  0
LINE
  5
14C
  8
0
  6
CONTINUOUS
 62
     7
 10
134.25
 20
-110.09
 30
0.0
 11
139.03
 21
-110.09
 31
0.0
  0
ARC
  5
14D
  8
0
  6
CONTINUOUS
 62
     7
 10
134.25
 20
-108.89
 30
0.0
 40
1.200000000000017
 50
180.0
 51
270.0
  0
LINE
  5
14E
  8
0
  6
CONTINUOUS
 62
     7
 10
133.05
 20
-104.11
 30
0.0
 11
133.05
 21
-108.89
 31
0.0
  0
ARC
  5
14F
  8
0
  6
CONTINUOUS
 62
     7
 10
134.25
 20
-104.11
 30
0.0
 40
1.200000000000017
 50
90.0
 51
180.0
  0
LINE
  5
150
  8
0
  6
CONTINUOUS
 62
     7
 10
134.25
 20
-102.91
 30
0.0
 11
139.03
 21
-102.91
 31
0.0
  0
ARC
  5
151
  8
0
  6
CONTINUOUS
 62
     7
 10
139.03
 20
-104.11
 30
0.0
 40
1.200000000000017
 50
0.0
 51
90.0
  0
LINE
  5
152
  8
0
  6
CONTINUOUS
 62
     7
 10
140.23
 20
-104.11
 30
0.0
 11
140.23
 21
-108.89
 31
0.0
  0
ARC
  5
153
  8
0
  6
CONTINUOUS
 62
     7
 10
147.03
 20
-108.89
 30
0.0
 40
1.200000000000003
 50
270.0
 51
0.0
  0
LINE
  5
154
  8
0
  6
CONTINUOUS
 62
     7
 10
142.25
 20
-110.09
 30
0.0
 11
147.03
 21
-110.09
 31
0.0
  0
ARC
  5
155
  8
0
  6
CONTINUOUS
 62
     7
 10
142.25
 20
-108.89
 30
0.0
 40
1.200000000000003
 50
180.0
 51
270.0
  0
LINE
  5
156
  8
0
  6
CONTINUOUS
 62
     7
 10
141.05
 20
-104.11
 30
0.0
 11
141.05
 21
-108.89
 31
0.0
  0
ARC
  5
157
  8
0
  6
CONTINUOUS
 62
     7
 10
142.25
 20
-104.11
 30
0.0
 40
1.200000000000017
 50
90.0
 51
180.0
  0
LINE
  5
158
  8
0
  6
CONTINUOUS
 62
     7
 10
142.25
 20
-102.91
 30
0.0
 11
147.03
 21
-102.91
 31
0.0
  0
ARC
  5
159
  8
0
  6
CONTINUOUS
 62
     7
 10
147.03
 20
-104.11
 30
0.0
 40
1.200000000000017
 50
0.0
 51
90.0
  0
LINE
  5
15A
  8
0
  6
CONTINUOUS
 62
     7
 10
148.23
 20
-104.11
 30
0.0
 11
148.23
 21
-108.89
 31
0.0
  0
ARC
  5
15B
  8
0
  6
CONTINUOUS
 62
     7
 10
155.03
 20
-108.89
 30
0.0
 40
1.200000000000017
 50
270.0
 51
0.0
  0
LINE
  5
15C
  8
0
  6
CONTINUOUS
 62
     7
 10
150.25
 20
-110.09
 30
0.0
 11
155.03
 21
-110.09
 31
0.0
  0
ARC
  5
15D
  8
0
  6
CONTINUOUS
 62
     7
 10
150.25
 20
-108.89
 30
0.0
 40
1.200000000000045
 50
180.0
 51
270.0
  0
LINE
  5
15E
  8
0
  6
CONTINUOUS
 62
     7
 10
149.05
 20
-104.11
 30
0.0
 11
149.05
 21
-108.89
 31
0.0
  0
ARC
  5
15F
  8
0
  6
CONTINUOUS
 62
     7
 10
150.25
 20
-104.11
 30
0.0
 40
1.200000000000045
 50
90.0
 51
180.0
  0
LINE
  5
160
  8
0
  6
CONTINUOUS
 62
     7
 10
150.25
 20
-102.91
 30
0.0
 11
155.03
 21
-102.91
 31
0.0
  0
ARC
  5
161
  8
0
  6
CONTINUOUS
 62
     7
 10
155.03
 20
-104.11
 30
0.0
 40
1.200000000000017
 50
0.0
 51
90.0
  0
LINE
  5
162
  8
0
  6
CONTINUOUS
 62
     7
 10
156.23
 20
-104.11
 30
0.0
 11
156.23
 21
-108.89
 31
0.0
  0
ARC
  5
163
  8
0
  6
CONTINUOUS
 62
     7
 10
163.03
 20
-108.89
 30
0.0
 40
1.200000000000045
 50
270.0
 51
0.0
  0
LINE
  5
164
  8
0
  6
CONTINUOUS
 62
     7
 10
158.25
 20
-110.09
 30
0.0
 11
163.03
 21
-110.09
 31
0.0
  0
ARC
  5
165
  8
0
  6
CONTINUOUS
 62
     7
 10
158.25
 20
-108.89
 30
0.0
 40
1.200000000000017
 50
180.0
 51
270.0
  0
LINE
  5
166
  8
0
  6
CONTINUOUS
 62
     7
 10
157.05
 20
-104.11
 30
0.0
 11
157.05
 21
-108.89
 31
0.0
  0
ARC
  5
167
  8
0
  6
CONTINUOUS
 62
     7
 10
158.25
 20
-104.11
 30
0.0
 40
1.200000000000017
 50
90.0
 51
180.0
  0
LINE
  5
168
  8
0
  6
CONTINUOUS
 62
     7
 10
158.25
 20
-102.91
 30
0.0
 11
163.03
 21
-102.91
 31
0.0
  0
ARC
  5
169
  8
0
  6
CONTINUOUS
 62
     7
 10
163.03
 20
-104.11
 30
0.0
 40
1.200000000000045
 50
0.0
 51
90.0
  0
LINE
  5
16A
  8
0
  6
CONTINUOUS
 62
     7
 10
164.23
 20
-104.11
 30
0.0
 11
164.23
 21
-108.89
 31
0.0
  0
ARC
  5
16B
  8
0
  6
CONTINUOUS
 62
     7
 10
171.03
 20
-108.89
 30
0.0
 40
1.200000000000017
 50
270.0
 51
0.0
  0
LINE
  5
16C
  8
0
  6
CONTINUOUS
 62
     7
 10
166.25
 20
-110.09
 30
0.0
 11
171.03
 21
-110.09
 31
0.0
  0
ARC
  5
16D
  8
0
  6
CONTINUOUS
 62
     7
 10
166.25
 20
-108.89
 30
0.0
 40
1.200000000000003
 50
180.0
 51
270.0
  0
LINE
  5
16E
  8
0
  6
CONTINUOUS
 62
     7
 10
165.05
 20
-104.11
 30
0.0
 11
165.05
 21
-108.89
 31
0.0
  0
ARC
  5
16F
  8
0
  6
CONTINUOUS
 62
     7
 10
166.25
 20
-104.11
 30
0.0
 40
1.200000000000017
 50
90.0
 51
180.0
  0
LINE
  5
170
  8
0
  6
CONTINUOUS
 62
     7
 10
166.25
 20
-102.91
 30
0.0
 11
171.03
 21
-102.91
 31
0.0
  0
ARC
  5
171
  8
0
  6
CONTINUOUS
 62
     7
 10
171.03
 20
-104.11
 30
0.0
 40
1.200000000000017
 50
0.0
 51
90.0
  0
LINE
  5
172
  8
0
  6
CONTINUOUS
 62
     7
 10
172.23
 20
-104.11
 30
0.0
 11
172.23
 21
-108.89
 31
0.0
  0
ARC
  5
173
  8
0
  6
CONTINUOUS
 62
     7
 10
179.03
 20
-108.89
 30
0.0
 40
1.200000000000045
 50
270.0
 51
0.0
  0
LINE
  5
174
  8
0
  6
CONTINUOUS
 62
     7
 10
174.25
 20
-110.09
 30
0.0
 11
179.03
 21
-110.09
 31
0.0
  0
ARC
  5
175
  8
0
  6
CONTINUOUS
 62
     7
 10
174.25
 20
-108.89
 30
0.0
 40
1.200000000000017
 50
180.0
 51
270.0
  0
LINE
  5
176
  8
0
  6
CONTINUOUS
 62
     7
 10
173.05
 20
-104.11
 30
0.0
 11
173.05
 21
-108.89
 31
0.0
  0
ARC
  5
177
  8
0
  6
CONTINUOUS
 62
     7
 10
174.25
 20
-104.11
 30
0.0
 40
1.200000000000017
 50
90.0
 51
180.0
  0
LINE
  5
178
  8
0
  6
CONTINUOUS
 62
     7
 10
174.25
 20
-102.91
 30
0.0
 11
179.03
 21
-102.91
 31
0.0
  0
ARC
  5
179
  8
0
  6
CONTINUOUS
 62
     7
 10
179.03
 20
-104.11
 30
0.0
 40
1.200000000000045
 50
0.0
 51
90.0
  0
LINE
  5
17A
  8
0
  6
CONTINUOUS
 62
     7
 10
180.23
 20
-104.11
 30
0.0
 11
180.23
 21
-108.89
 31
0.0
  0
ARC
  5
17B
  8
0
  6
CONTINUOUS
 62
     7
 10
187.03
 20
-108.89
 30
0.0
 40
1.200000000000017
 50
270.0
 51
0.0
  0
LINE
  5
17C
  8
0
  6
CONTINUOUS
 62
     7
 10
182.25
 20
-110.09
 30
0.0
 11
187.03
 21
-110.09
 31
0.0
  0
ARC
  5
17D
  8
0
  6
CONTINUOUS
 62
     7
 10
182.25
 20
-108.89
 30
0.0
 40
1.200000000000003
 50
180.0
 51
270.0
  0
LINE
  5
17E
  8
0
  6
CONTINUOUS
 62
     7
 10
181.05
 20
-104.11
 30
0.0
 11
181.05
 21
-108.89
 31
0.0
  0
ARC
  5
17F
  8
0
  6
CONTINUOUS
 62
     7
 10
182.25
 20
-104.11
 30
0.0
 40
1.200000000000017
 50
90.0
 51
180.0
  0
LINE
  5
180
  8
0
  6
CONTINUOUS
 62
     7
 10
182.25
 20
-102.91
 30
0.0
 11
187.03
 21
-102.91
 31
0.0
  0
ARC
  5
181
  8
0
  6
CONTINUOUS
 62
     7
 10
187.03
 20
-104.11
 30
0.0
 40
1.200000000000017
 50
0.0
 51
90.0
  0
LINE
  5
182
  8
0
  6
CONTINUOUS
 62
     7
 10
188.23
 20
-104.11
 30
0.0
 11
188.23
 21
-108.89
 31
0.0
  0
ARC
  5
183
  8
0
  6
CONTINUOUS
 62
     7
 10
195.03
 20
-108.89
 30
0.0
 40
1.200000000000003
 50
270.0
 51
0.0
  0
LINE
  5
184
  8
0
  6
CONTINUOUS
 62
     7
 10
190.25
 20
-110.09
 30
0.0
 11
195.03
 21
-110.09
 31
0.0
  0
ARC
  5
185
  8
0
  6
CONTINUOUS
 62
     7
 10
190.25
 20
-108.89
 30
0.0
 40
1.200000000000017
 50
180.0
 51
270.0
  0
LINE
  5
186
  8
0
  6
CONTINUOUS
 62
     7
 10
189.05
 20
-104.11
 30
0.0
 11
189.05
 21
-108.89
 31
0.0
  0
ARC
  5
187
  8
0
  6
CONTINUOUS
 62
     7
 10
190.25
 20
-104.11
 30
0.0
 40
1.200000000000017
 50
90.0
 51
180.0
  0
LINE
  5
188
  8
0
  6
CONTINUOUS
 62
     7
 10
190.25
 20
-102.91
 30
0.0
 11
195.03
 21
-102.91
 31
0.0
  0
ARC
  5
189
  8
0
  6
CONTINUOUS
 62
     7
 10
195.03
 20
-104.11
 30
0.0
 40
1.200000000000017
 50
0.0
 51
90.0
  0
LINE
  5
18A
  8
0
  6
CONTINUOUS
 62
     7
 10
196.23
 20
-104.11
 30
0.0
 11
196.23
 21
-108.89
 31
0.0
  0
ARC
  5
18B
  8
0
  6
CONTINUOUS
 62
     7
 10
203.03
 20
-108.89
 30
0.0
 40
1.200000000000003
 50
270.0
 51
0.0
  0
LINE
  5
18C
  8
0
  6
CONTINUOUS
 62
     7
 10
198.25
 20
-110.09
 30
0.0
 11
203.03
 21
-110.09
 31
0.0
  0
ARC
  5
18D
  8
0
  6
CONTINUOUS
 62
     7
 10
198.25
 20
-108.89
 30
0.0
 40
1.200000000000017
 50
180.0
 51
270.0
  0
LINE
  5
18E
  8
0
  6
CONTINUOUS
 62
     7
 10
197.05
 20
-104.11
 30
0.0
 11
197.05
 21
-108.89
 31
0.0
  0
ARC
  5
18F
  8
0
  6
CONTINUOUS
 62
     7
 10
198.25
 20
-104.11
 30
0.0
 40
1.200000000000017
 50
90.0
 51
180.0
  0
LINE
  5
190
  8
0
  6
CONTINUOUS
 62
     7
 10
198.25
 20
-102.91
 30
0.0
 11
203.03
 21
-102.91
 31
0.0
  0
ARC
  5
191
  8
0
  6
CONTINUOUS
 62
     7
 10
203.03
 20
-104.11
 30
0.0
 40
1.200000000000017
 50
0.0
 51
90.0
  0
LINE
  5
192
  8
0
  6
CONTINUOUS
 62
     7
 10
204.23
 20
-104.11
 30
0.0
 11
204.23
 21
-108.89
 31
0.0
  0
ARC
  5
193
  8
0
  6
CONTINUOUS
 62
     7
 10
211.03
 20
-108.89
 30
0.0
 40
1.200000000000003
 50
270.0
 51
0.0
  0
LINE
  5
194
  8
0
  6
CONTINUOUS
 62
     7
 10
206.25
 20
-110.09
 30
0.0
 11
211.03
 21
-110.09
 31
0.0
  0
ARC
  5
195
  8
0
  6
CONTINUOUS
 62
     7
 10
206.25
 20
-108.89
 30
0.0
 40
1.200000000000003
 50
180.0
 51
270.0
  0
LINE
  5
196
  8
0
  6
CONTINUOUS
 62
     7
 10
205.05
 20
-104.11
 30
0.0
 11
205.05
 21
-108.89
 31
0.0
  0
ARC
  5
197
  8
0
  6
CONTINUOUS
 62
     7
 10
206.25
 20
-104.11
 30
0.0
 40
1.200000000000017
 50
90.0
 51
180.0
  0
LINE
  5
198
  8
0
  6
CONTINUOUS
 62
     7
 10
206.25
 20
-102.91
 30
0.0
 11
211.03
 21
-102.91
 31
0.0
  0
ARC
  5
199
  8
0
  6
CONTINUOUS
 62
     7
 10
211.03
 20
-104.11
 30
0.0
 40
1.200000000000017
 50
0.0
 51
90.0
  0
LINE
  5
19A
  8
0
  6
CONTINUOUS
 62
     7
 10
212.23
 20
-104.11
 30
0.0
 11
212.23
 21
-108.89
 31
0.0
  0
ARC
  5
19B
  8
0
  6
CONTINUOUS
 62
     7
 10
219.03
 20
-108.89
 30
0.0
 40
1.200000000000003
 50
270.0
 51
0.0
  0
LINE
  5
19C
  8
0
  6
CONTINUOUS
 62
     7
 10
214.25
 20
-110.09
 30
0.0
 11
219.03
 21
-110.09
 31
0.0
  0
ARC
  5
19D
  8
0
  6
CONTINUOUS
 62
     7
 10
214.25
 20
-108.89
 30
0.0
 40
1.200000000000017
 50
180.0
 51
270.0
  0
LINE
  5
19E
  8
0
  6
CONTINUOUS
 62
     7
 10
213.05
 20
-104.11
 30
0.0
 11
213.05
 21
-108.89
 31
0.0
  0
ARC
  5
19F
  8
0
  6
CONTINUOUS
 62
     7
 10
214.25
 20
-104.11
 30
0.0
 40
1.200000000000017
 50
90.0
 51
180.0
  0
LINE
  5
1A0
  8
0
  6
CONTINUOUS
 62
     7
 10
214.25
 20
-102.91
 30
0.0
 11
219.03
 21
-102.91
 31
0.0
  0
ARC
  5
1A1
  8
0
  6
CONTINUOUS
 62
     7
 10
219.03
 20
-104.11
 30
0.0
 40
1.200000000000017
 50
0.0
 51
90.0
  0
LINE
  5
1A2
  8
0
  6
CONTINUOUS
 62
     7
 10
220.23
 20
-104.11
 30
0.0
 11
220.23
 21
-108.89
 31
0.0
  0
ARC
  5
1A3
  8
0
  6
CONTINUOUS
 62
     7
 10
227.03
 20
-108.89
 30
0.0
 40
1.200000000000045
 50
270.0
 51
0.0
  0
LINE
  5
1A4
  8
0
  6
CONTINUOUS
 62
     7
 10
222.25
 20
-110.09
 30
0.0
 11
227.03
 21
-110.09
 31
0.0
  0
ARC
  5
1A5
  8
0
  6
CONTINUOUS
 62
     7
 10
222.25
 20
-108.89
 30
0.0
 40
1.200000000000017
 50
180.0
 51
270.0
  0
LINE
  5
1A6
  8
0
  6
CONTINUOUS
 62
     7
 10
221.05
 20
-104.11
 30
0.0
 11
221.05
 21
-108.89
 31
0.0
  0
ARC
  5
1A7
  8
0
  6
CONTINUOUS
 62
     7
 10
222.25
 20
-104.11
 30
0.0
 40
1.200000000000017
 50
90.0
 51
180.0
  0
LINE
  5
1A8
  8
0
  6
CONTINUOUS
 62
     7
 10
222.25
 20
-102.91
 30
0.0
 11
227.03
 21
-102.91
 31
0.0
  0
ARC
  5
1A9
  8
0
  6
CONTINUOUS
 62
     7
 10
227.03
 20
-104.11
 30
0.0
 40
1.200000000000045
 50
0.0
 51
90.0
  0
LINE
  5
1AA
  8
0
  6
CONTINUOUS
 62
     7
 10
228.23
 20
-104.11
 30
0.0
 11
228.23
 21
-108.89
 31
0.0
  0
ARC
  5
1AB
  8
0
  6
CONTINUOUS
 62
     7
 10
83.03
 20
-100.89
 30
0.0
 40
1.200000000000017
 50
270.0
 51
0.0
  0
LINE
  5
1AC
  8
0
  6
CONTINUOUS
 62
     7
 10
78.25
 20
-102.09
 30
0.0
 11
83.03
 21
-102.09
 31
0.0
  0
ARC
  5
1AD
  8
0
  6
CONTINUOUS
 62
     7
 10
78.25
 20
-100.89
 30
0.0
 40
1.200000000000017
 50
180.0
 51
270.0
  0
LINE
  5
1AE
  8
0
  6
CONTINUOUS
 62
     7
 10
77.05
 20
-96.11
 30
0.0
 11
77.05
 21
-100.89
 31
0.0
  0
ARC
  5
1AF
  8
0
  6
CONTINUOUS
 62
     7
 10
78.25
 20
-96.11
 30
0.0
 40
1.200000000000003
 50
90.0
 51
180.0
  0
LINE
  5
1B0
  8
0
  6
CONTINUOUS
 62
     7
 10
78.25
 20
-94.91
 30
0.0
 11
83.03
 21
-94.91
 31
0.0
  0
ARC
  5
1B1
  8
0
  6
CONTINUOUS
 62
     7
 10
83.03
 20
-96.11
 30
0.0
 40
1.200000000000003
 50
0.0
 51
90.0
  0
LINE
  5
1B2
  8
0
  6
CONTINUOUS
 62
     7
 10
84.23
 20
-96.11
 30
0.0
 11
84.23
 21
-100.89
 31
0.0
  0
ARC
  5
1B3
  8
0
  6
CONTINUOUS
 62
     7
 10
91.03
 20
-100.89
 30
0.0
 40
1.200000000000017
 50
270.0
 51
0.0
  0
LINE
  5
1B4
  8
0
  6
CONTINUOUS
 62
     7
 10
86.25
 20
-102.09
 30
0.0
 11
91.03
 21
-102.09
 31
0.0
  0
ARC
  5
1B5
  8
0
  6
CONTINUOUS
 62
     7
 10
86.25
 20
-100.89
 30
0.0
 40
1.200000000000017
 50
180.0
 51
270.0
  0
LINE
  5
1B6
  8
0
  6
CONTINUOUS
 62
     7
 10
85.05
 20
-96.11
 30
0.0
 11
85.05
 21
-100.89
 31
0.0
  0
ARC
  5
1B7
  8
0
  6
CONTINUOUS
 62
     7
 10
86.25
 20
-96.11
 30
0.0
 40
1.200000000000003
 50
90.0
 51
180.0
  0
LINE
  5
1B8
  8
0
  6
CONTINUOUS
 62
     7
 10
86.25
 20
-94.91
 30
0.0
 11
91.03
 21
-94.91
 31
0.0
  0
ARC
  5
1B9
  8
0
  6
CONTINUOUS
 62
     7
 10
91.03
 20
-96.11
 30
0.0
 40
1.200000000000017
 50
0.0
 51
90.0
  0
LINE
  5
1BA
  8
0
  6
CONTINUOUS
 62
     7
 10
92.23
 20
-96.11
 30
0.0
 11
92.23
 21
-100.89
 31
0.0
  0
ARC
  5
1BB
  8
0
  6
CONTINUOUS
 62
     7
 10
99.03
 20
-100.89
 30
0.0
 40
1.200000000000017
 50
270.0
 51
0.0
  0
LINE
  5
1BC
  8
0
  6
CONTINUOUS
 62
     7
 10
94.25
 20
-102.09
 30
0.0
 11
99.03
 21
-102.09
 31
0.0
  0
ARC
  5
1BD
  8
0
  6
CONTINUOUS
 62
     7
 10
94.25
 20
-100.89
 30
0.0
 40
1.200000000000017
 50
180.0
 51
270.0
  0
LINE
  5
1BE
  8
0
  6
CONTINUOUS
 62
     7
 10
93.05
 20
-96.11
 30
0.0
 11
93.05
 21
-100.89
 31
0.0
  0
ARC
  5
1BF
  8
0
  6
CONTINUOUS
 62
     7
 10
94.25
 20
-96.11
 30
0.0
 40
1.200000000000017
 50
90.0
 51
180.0
  0
LINE
  5
1C0
  8
0
  6
CONTINUOUS
 62
     7
 10
94.25
 20
-94.91
 30
0.0
 11
99.03
 21
-94.91
 31
0.0
  0
ARC
  5
1C1
  8
0
  6
CONTINUOUS
 62
     7
 10
99.03
 20
-96.11
 30
0.0
 40
1.200000000000003
 50
0.0
 51
90.0
  0
LINE
  5
1C2
  8
0
  6
CONTINUOUS
 62
     7
 10
100.23
 20
-96.11
 30
0.0
 11
100.23
 21
-100.89
 31
0.0
  0
ARC
  5
1C3
  8
0
  6
CONTINUOUS
 62
     7
 10
107.03
 20
-100.89
 30
0.0
 40
1.200000000000017
 50
270.0
 51
0.0
  0
LINE
  5
1C4
  8
0
  6
CONTINUOUS
 62
     7
 10
102.25
 20
-102.09
 30
0.0
 11
107.03
 21
-102.09
 31
0.0
  0
ARC
  5
1C5
  8
0
  6
CONTINUOUS
 62
     7
 10
102.25
 20
-100.89
 30
0.0
 40
1.200000000000017
 50
180.0
 51
270.0
  0
LINE
  5
1C6
  8
0
  6
CONTINUOUS
 62
     7
 10
101.05
 20
-96.11
 30
0.0
 11
101.05
 21
-100.89
 31
0.0
  0
ARC
  5
1C7
  8
0
  6
CONTINUOUS
 62
     7
 10
102.25
 20
-96.11
 30
0.0
 40
1.200000000000003
 50
90.0
 51
180.0
  0
LINE
  5
1C8
  8
0
  6
CONTINUOUS
 62
     7
 10
102.25
 20
-94.91
 30
0.0
 11
107.03
 21
-94.91
 31
0.0
  0
ARC
  5
1C9
  8
0
  6
CONTINUOUS
 62
     7
 10
107.03
 20
-96.11
 30
0.0
 40
1.200000000000003
 50
0.0
 51
90.0
  0
LINE
  5
1CA
  8
0
  6
CONTINUOUS
 62
     7
 10
108.23
 20
-96.11
 30
0.0
 11
108.23
 21
-100.89
 31
0.0
  0
ARC
  5
1CB
  8
0
  6
CONTINUOUS
 62
     7
 10
115.03
 20
-100.89
 30
0.0
 40
1.200000000000017
 50
270.0
 51
0.0
  0
LINE
  5
1CC
  8
0
  6
CONTINUOUS
 62
     7
 10
110.25
 20
-102.09
 30
0.0
 11
115.03
 21
-102.09
 31
0.0
  0
ARC
  5
1CD
  8
0
  6
CONTINUOUS
 62
     7
 10
110.25
 20
-100.89
 30
0.0
 40
1.200000000000017
 50
180.0
 51
270.0
  0
LINE
  5
1CE
  8
0
  6
CONTINUOUS
 62
     7
 10
109.05
 20
-96.11
 30
0.0
 11
109.05
 21
-100.89
 31
0.0
  0
ARC
  5
1CF
  8
0
  6
CONTINUOUS
 62
     7
 10
110.25
 20
-96.11
 30
0.0
 40
1.200000000000003
 50
90.0
 51
180.0
  0
LINE
  5
1D0
  8
0
  6
CONTINUOUS
 62
     7
 10
110.25
 20
-94.91
 30
0.0
 11
115.03
 21
-94.91
 31
0.0
  0
ARC
  5
1D1
  8
0
  6
CONTINUOUS
 62
     7
 10
115.03
 20
-96.11
 30
0.0
 40
1.200000000000017
 50
0.0
 51
90.0
  0
LINE
  5
1D2
  8
0
  6
CONTINUOUS
 62
     7
 10
116.23
 20
-96.11
 30
0.0
 11
116.23
 21
-100.89
 31
0.0
  0
ARC
  5
1D3
  8
0
  6
CONTINUOUS
 62
     7
 10
123.03
 20
-100.89
 30
0.0
 40
1.200000000000017
 50
270.0
 51
0.0
  0
LINE
  5
1D4
  8
0
  6
CONTINUOUS
 62
     7
 10
118.25
 20
-102.09
 30
0.0
 11
123.03
 21
-102.09
 31
0.0
  0
ARC
  5
1D5
  8
0
  6
CONTINUOUS
 62
     7
 10
118.25
 20
-100.89
 30
0.0
 40
1.200000000000017
 50
180.0
 51
270.0
  0
LINE
  5
1D6
  8
0
  6
CONTINUOUS
 62
     7
 10
117.05
 20
-96.11
 30
0.0
 11
117.05
 21
-100.89
 31
0.0
  0
ARC
  5
1D7
  8
0
  6
CONTINUOUS
 62
     7
 10
118.25
 20
-96.11
 30
0.0
 40
1.200000000000003
 50
90.0
 51
180.0
  0
LINE
  5
1D8
  8
0
  6
CONTINUOUS
 62
     7
 10
118.25
 20
-94.91
 30
0.0
 11
123.03
 21
-94.91
 31
0.0
  0
ARC
  5
1D9
  8
0
  6
CONTINUOUS
 62
     7
 10
123.03
 20
-96.11
 30
0.0
 40
1.200000000000003
 50
0.0
 51
90.0
  0
LINE
  5
1DA
  8
0
  6
CONTINUOUS
 62
     7
 10
124.23
 20
-96.11
 30
0.0
 11
124.23
 21
-100.89
 31
0.0
  0
ARC
  5
1DB
  8
0
  6
CONTINUOUS
 62
     7
 10
131.03
 20
-100.89
 30
0.0
 40
1.200000000000017
 50
270.0
 51
0.0
  0
LINE
  5
1DC
  8
0
  6
CONTINUOUS
 62
     7
 10
126.25
 20
-102.09
 30
0.0
 11
131.03
 21
-102.09
 31
0.0
  0
ARC
  5
1DD
  8
0
  6
CONTINUOUS
 62
     7
 10
126.25
 20
-100.89
 30
0.0
 40
1.200000000000017
 50
180.0
 51
270.0
  0
LINE
  5
1DE
  8
0
  6
CONTINUOUS
 62
     7
 10
125.05
 20
-96.11
 30
0.0
 11
125.05
 21
-100.89
 31
0.0
  0
ARC
  5
1DF
  8
0
  6
CONTINUOUS
 62
     7
 10
126.25
 20
-96.11
 30
0.0
 40
1.200000000000003
 50
90.0
 51
180.0
  0
LINE
  5
1E0
  8
0
  6
CONTINUOUS
 62
     7
 10
126.25
 20
-94.91
 30
0.0
 11
131.03
 21
-94.91
 31
0.0
  0
ARC
  5
1E1
  8
0
  6
CONTINUOUS
 62
     7
 10
131.03
 20
-96.11
 30
0.0
 40
1.200000000000017
 50
0.0
 51
90.0
  0
LINE
  5
1E2
  8
0
  6
CONTINUOUS
 62
     7
 10
132.23
 20
-96.11
 30
0.0
 11
132.23
 21
-100.89
 31
0.0
  0
ARC
  5
1E3
  8
0
  6
CONTINUOUS
 62
     7
 10
139.03
 20
-100.89
 30
0.0
 40
1.200000000000045
 50
270.0
 51
0.0
  0
LINE
  5
1E4
  8
0
  6
CONTINUOUS
 62
     7
 10
134.25
 20
-102.09
 30
0.0
 11
139.03
 21
-102.09
 31
0.0
  0
ARC
  5
1E5
  8
0
  6
CONTINUOUS
 62
     7
 10
134.25
 20
-100.89
 30
0.0
 40
1.200000000000017
 50
180.0
 51
270.0
  0
LINE
  5
1E6
  8
0
  6
CONTINUOUS
 62
     7
 10
133.05
 20
-96.11
 30
0.0
 11
133.05
 21
-100.89
 31
0.0
  0
ARC
  5
1E7
  8
0
  6
CONTINUOUS
 62
     7
 10
134.25
 20
-96.11
 30
0.0
 40
1.200000000000017
 50
90.0
 51
180.0
  0
LINE
  5
1E8
  8
0
  6
CONTINUOUS
 62
     7
 10
134.25
 20
-94.91
 30
0.0
 11
139.03
 21
-94.91
 31
0.0
  0
ARC
  5
1E9
  8
0
  6
CONTINUOUS
 62
     7
 10
139.03
 20
-96.11
 30
0.0
 40
1.200000000000045
 50
0.0
 51
90.0
  0
LINE
  5
1EA
  8
0
  6
CONTINUOUS
 62
     7
 10
140.23
 20
-96.11
 30
0.0
 11
140.23
 21
-100.89
 31
0.0
  0
ARC
  5
1EB
  8
0
  6
CONTINUOUS
 62
     7
 10
147.03
 20
-100.89
 30
0.0
 40
1.200000000000017
 50
270.0
 51
0.0
  0
LINE
  5
1EC
  8
0
  6
CONTINUOUS
 62
     7
 10
142.25
 20
-102.09
 30
0.0
 11
147.03
 21
-102.09
 31
0.0
  0
ARC
  5
1ED
  8
0
  6
CONTINUOUS
 62
     7
 10
142.25
 20
-100.89
 30
0.0
 40
1.200000000000017
 50
180.0
 51
270.0
  0
LINE
  5
1EE
  8
0
  6
CONTINUOUS
 62
     7
 10
141.05
 20
-96.11
 30
0.0
 11
141.05
 21
-100.89
 31
0.0
  0
ARC
  5
1EF
  8
0
  6
CONTINUOUS
 62
     7
 10
142.25
 20
-96.11
 30
0.0
 40
1.200000000000003
 50
90.0
 51
180.0
  0
LINE
  5
1F0
  8
0
  6
CONTINUOUS
 62
     7
 10
142.25
 20
-94.91
 30
0.0
 11
147.03
 21
-94.91
 31
0.0
  0
ARC
  5
1F1
  8
0
  6
CONTINUOUS
 62
     7
 10
147.03
 20
-96.11
 30
0.0
 40
1.200000000000017
 50
0.0
 51
90.0
  0
LINE
  5
1F2
  8
0
  6
CONTINUOUS
 62
     7
 10
148.23
 20
-96.11
 30
0.0
 11
148.23
 21
-100.89
 31
0.0
  0
ARC
  5
1F3
  8
0
  6
CONTINUOUS
 62
     7
 10
155.03
 20
-100.89
 30
0.0
 40
1.200000000000017
 50
270.0
 51
0.0
  0
LINE
  5
1F4
  8
0
  6
CONTINUOUS
 62
     7
 10
150.25
 20
-102.09
 30
0.0
 11
155.03
 21
-102.09
 31
0.0
  0
ARC
  5
1F5
  8
0
  6
CONTINUOUS
 62
     7
 10
150.25
 20
-100.89
 30
0.0
 40
1.200000000000017
 50
180.0
 51
270.0
  0
LINE
  5
1F6
  8
0
  6
CONTINUOUS
 62
     7
 10
149.05
 20
-96.11
 30
0.0
 11
149.05
 21
-100.89
 31
0.0
  0
ARC
  5
1F7
  8
0
  6
CONTINUOUS
 62
     7
 10
150.25
 20
-96.11
 30
0.0
 40
1.200000000000003
 50
90.0
 51
180.0
  0
LINE
  5
1F8
  8
0
  6
CONTINUOUS
 62
     7
 10
150.25
 20
-94.91
 30
0.0
 11
155.03
 21
-94.91
 31
0.0
  0
ARC
  5
1F9
  8
0
  6
CONTINUOUS
 62
     7
 10
155.03
 20
-96.11
 30
0.0
 40
1.200000000000017
 50
0.0
 51
90.0
  0
LINE
  5
1FA
  8
0
  6
CONTINUOUS
 62
     7
 10
156.23
 20
-96.11
 30
0.0
 11
156.23
 21
-100.89
 31
0.0
  0
ARC
  5
1FB
  8
0
  6
CONTINUOUS
 62
     7
 10
163.03
 20
-100.89
 30
0.0
 40
1.200000000000017
 50
270.0
 51
0.0
  0
LINE
  5
1FC
  8
0
  6
CONTINUOUS
 62
     7
 10
158.25
 20
-102.09
 30
0.0
 11
163.03
 21
-102.09
 31
0.0
  0
ARC
  5
1FD
  8
0
  6
CONTINUOUS
 62
     7
 10
158.25
 20
-100.89
 30
0.0
 40
1.200000000000017
 50
180.0
 51
270.0
  0
LINE
  5
1FE
  8
0
  6
CONTINUOUS
 62
     7
 10
157.05
 20
-96.11
 30
0.0
 11
157.05
 21
-100.89
 31
0.0
  0
ARC
  5
1FF
  8
0
  6
CONTINUOUS
 62
     7
 10
158.25
 20
-96.11
 30
0.0
 40
1.200000000000003
 50
90.0
 51
180.0
  0
LINE
  5
200
  8
0
  6
CONTINUOUS
 62
     7
 10
158.25
 20
-94.91
 30
0.0
 11
163.03
 21
-94.91
 31
0.0
  0
ARC
  5
201
  8
0
  6
CONTINUOUS
 62
     7
 10
163.03
 20
-96.11
 30
0.0
 40
1.200000000000003
 50
0.0
 51
90.0
  0
LINE
  5
202
  8
0
  6
CONTINUOUS
 62
     7
 10
164.23
 20
-96.11
 30
0.0
 11
164.23
 21
-100.89
 31
0.0
  0
ARC
  5
203
  8
0
  6
CONTINUOUS
 62
     7
 10
171.03
 20
-100.89
 30
0.0
 40
1.200000000000017
 50
270.0
 51
0.0
  0
LINE
  5
204
  8
0
  6
CONTINUOUS
 62
     7
 10
166.25
 20
-102.09
 30
0.0
 11
171.03
 21
-102.09
 31
0.0
  0
ARC
  5
205
  8
0
  6
CONTINUOUS
 62
     7
 10
166.25
 20
-100.89
 30
0.0
 40
1.200000000000017
 50
180.0
 51
270.0
  0
LINE
  5
206
  8
0
  6
CONTINUOUS
 62
     7
 10
165.05
 20
-96.11
 30
0.0
 11
165.05
 21
-100.89
 31
0.0
  0
ARC
  5
207
  8
0
  6
CONTINUOUS
 62
     7
 10
166.25
 20
-96.11
 30
0.0
 40
1.200000000000003
 50
90.0
 51
180.0
  0
LINE
  5
208
  8
0
  6
CONTINUOUS
 62
     7
 10
166.25
 20
-94.91
 30
0.0
 11
171.03
 21
-94.91
 31
0.0
  0
ARC
  5
209
  8
0
  6
CONTINUOUS
 62
     7
 10
171.03
 20
-96.11
 30
0.0
 40
1.200000000000003
 50
0.0
 51
90.0
  0
LINE
  5
20A
  8
0
  6
CONTINUOUS
 62
     7
 10
172.23
 20
-96.11
 30
0.0
 11
172.23
 21
-100.89
 31
0.0
  0
ARC
  5
20B
  8
0
  6
CONTINUOUS
 62
     7
 10
179.03
 20
-100.89
 30
0.0
 40
1.200000000000017
 50
270.0
 51
0.0
  0
LINE
  5
20C
  8
0
  6
CONTINUOUS
 62
     7
 10
174.25
 20
-102.09
 30
0.0
 11
179.03
 21
-102.09
 31
0.0
  0
ARC
  5
20D
  8
0
  6
CONTINUOUS
 62
     7
 10
174.25
 20
-100.89
 30
0.0
 40
1.200000000000017
 50
180.0
 51
270.0
  0
LINE
  5
20E
  8
0
  6
CONTINUOUS
 62
     7
 10
173.05
 20
-96.11
 30
0.0
 11
173.05
 21
-100.89
 31
0.0
  0
ARC
  5
20F
  8
0
  6
CONTINUOUS
 62
     7
 10
174.25
 20
-96.11
 30
0.0
 40
1.200000000000017
 50
90.0
 51
180.0
  0
LINE
  5
210
  8
0
  6
CONTINUOUS
 62
     7
 10
174.25
 20
-94.91
 30
0.0
 11
179.03
 21
-94.91
 31
0.0
  0
ARC
  5
211
  8
0
  6
CONTINUOUS
 62
     7
 10
179.03
 20
-96.11
 30
0.0
 40
1.200000000000003
 50
0.0
 51
90.0
  0
LINE
  5
212
  8
0
  6
CONTINUOUS
 62
     7
 10
180.23
 20
-96.11
 30
0.0
 11
180.23
 21
-100.89
 31
0.0
  0
ARC
  5
213
  8
0
  6
CONTINUOUS
 62
     7
 10
187.03
 20
-100.89
 30
0.0
 40
1.200000000000017
 50
270.0
 51
0.0
  0
LINE
  5
214
  8
0
  6
CONTINUOUS
 62
     7
 10
182.25
 20
-102.09
 30
0.0
 11
187.03
 21
-102.09
 31
0.0
  0
ARC
  5
215
  8
0
  6
CONTINUOUS
 62
     7
 10
182.25
 20
-100.89
 30
0.0
 40
1.200000000000017
 50
180.0
 51
270.0
  0
LINE
  5
216
  8
0
  6
CONTINUOUS
 62
     7
 10
181.05
 20
-96.11
 30
0.0
 11
181.05
 21
-100.89
 31
0.0
  0
ARC
  5
217
  8
0
  6
CONTINUOUS
 62
     7
 10
182.25
 20
-96.11
 30
0.0
 40
1.200000000000017
 50
90.0
 51
180.0
  0
LINE
  5
218
  8
0
  6
CONTINUOUS
 62
     7
 10
182.25
 20
-94.91
 30
0.0
 11
187.03
 21
-94.91
 31
0.0
  0
ARC
  5
219
  8
0
  6
CONTINUOUS
 62
     7
 10
187.03
 20
-96.11
 30
0.0
 40
1.200000000000017
 50
0.0
 51
90.0
  0
LINE
  5
21A
  8
0
  6
CONTINUOUS
 62
     7
 10
188.23
 20
-96.11
 30
0.0
 11
188.23
 21
-100.89
 31
0.0
  0
ARC
  5
21B
  8
0
  6
CONTINUOUS
 62
     7
 10
195.03
 20
-100.89
 30
0.0
 40
1.200000000000017
 50
270.0
 51
0.0
  0
LINE
  5
21C
  8
0
  6
CONTINUOUS
 62
     7
 10
190.25
 20
-102.09
 30
0.0
 11
195.03
 21
-102.09
 31
0.0
  0
ARC
  5
21D
  8
0
  6
CONTINUOUS
 62
     7
 10
190.25
 20
-100.89
 30
0.0
 40
1.200000000000017
 50
180.0
 51
270.0
  0
LINE
  5
21E
  8
0
  6
CONTINUOUS
 62
     7
 10
189.05
 20
-96.11
 30
0.0
 11
189.05
 21
-100.89
 31
0.0
  0
ARC
  5
21F
  8
0
  6
CONTINUOUS
 62
     7
 10
190.25
 20
-96.11
 30
0.0
 40
1.200000000000017
 50
90.0
 51
180.0
  0
LINE
  5
220
  8
0
  6
CONTINUOUS
 62
     7
 10
190.25
 20
-94.91
 30
0.0
 11
195.03
 21
-94.91
 31
0.0
  0
ARC
  5
221
  8
0
  6
CONTINUOUS
 62
     7
 10
195.03
 20
-96.11
 30
0.0
 40
1.200000000000017
 50
0.0
 51
90.0
  0
LINE
  5
222
  8
0
  6
CONTINUOUS
 62
     7
 10
196.23
 20
-96.11
 30
0.0
 11
196.23
 21
-100.89
 31
0.0
  0
ARC
  5
223
  8
0
  6
CONTINUOUS
 62
     7
 10
203.03
 20
-100.89
 30
0.0
 40
1.200000000000045
 50
270.0
 51
0.0
  0
LINE
  5
224
  8
0
  6
CONTINUOUS
 62
     7
 10
198.25
 20
-102.09
 30
0.0
 11
203.03
 21
-102.09
 31
0.0
  0
ARC
  5
225
  8
0
  6
CONTINUOUS
 62
     7
 10
198.25
 20
-100.89
 30
0.0
 40
1.200000000000017
 50
180.0
 51
270.0
  0
LINE
  5
226
  8
0
  6
CONTINUOUS
 62
     7
 10
197.05
 20
-96.11
 30
0.0
 11
197.05
 21
-100.89
 31
0.0
  0
ARC
  5
227
  8
0
  6
CONTINUOUS
 62
     7
 10
198.25
 20
-96.11
 30
0.0
 40
1.200000000000017
 50
90.0
 51
180.0
  0
LINE
  5
228
  8
0
  6
CONTINUOUS
 62
     7
 10
198.25
 20
-94.91
 30
0.0
 11
203.03
 21
-94.91
 31
0.0
  0
ARC
  5
229
  8
0
  6
CONTINUOUS
 62
     7
 10
203.03
 20
-96.11
 30
0.0
 40
1.200000000000045
 50
0.0
 51
90.0
  0
LINE
  5
22A
  8
0
  6
CONTINUOUS
 62
     7
 10
204.23
 20
-96.11
 30
0.0
 11
204.23
 21
-100.89
 31
0.0
  0
ARC
  5
22B
  8
0
  6
CONTINUOUS
 62
     7
 10
211.03
 20
-100.89
 30
0.0
 40
1.200000000000045
 50
270.0
 51
0.0
  0
LINE
  5
22C
  8
0
  6
CONTINUOUS
 62
     7
 10
206.25
 20
-102.09
 30
0.0
 11
211.03
 21
-102.09
 31
0.0
  0
ARC
  5
22D
  8
0
  6
CONTINUOUS
 62
     7
 10
206.25
 20
-100.89
 30
0.0
 40
1.200000000000017
 50
180.0
 51
270.0
  0
LINE
  5
22E
  8
0
  6
CONTINUOUS
 62
     7
 10
205.05
 20
-96.11
 30
0.0
 11
205.05
 21
-100.89
 31
0.0
  0
ARC
  5
22F
  8
0
  6
CONTINUOUS
 62
     7
 10
206.25
 20
-96.11
 30
0.0
 40
1.200000000000003
 50
90.0
 51
180.0
  0
LINE
  5
230
  8
0
  6
CONTINUOUS
 62
     7
 10
206.25
 20
-94.91
 30
0.0
 11
211.03
 21
-94.91
 31
0.0
  0
ARC
  5
231
  8
0
  6
CONTINUOUS
 62
     7
 10
211.03
 20
-96.11
 30
0.0
 40
1.200000000000045
 50
0.0
 51
90.0
  0
LINE
  5
232
  8
0
  6
CONTINUOUS
 62
     7
 10
212.23
 20
-96.11
 30
0.0
 11
212.23
 21
-100.89
 31
0.0
  0
ARC
  5
233
  8
0
  6
CONTINUOUS
 62
     7
 10
219.03
 20
-100.89
 30
0.0
 40
1.200000000000017
 50
270.0
 51
0.0
  0
LINE
  5
234
  8
0
  6
CONTINUOUS
 62
     7
 10
214.25
 20
-102.09
 30
0.0
 11
219.03
 21
-102.09
 31
0.0
  0
ARC
  5
235
  8
0
  6
CONTINUOUS
 62
     7
 10
214.25
 20
-100.89
 30
0.0
 40
1.200000000000017
 50
180.0
 51
270.0
  0
LINE
  5
236
  8
0
  6
CONTINUOUS
 62
     7
 10
213.05
 20
-96.11
 30
0.0
 11
213.05
 21
-100.89
 31
0.0
  0
ARC
  5
237
  8
0
  6
CONTINUOUS
 62
     7
 10
214.25
 20
-96.11
 30
0.0
 40
1.200000000000017
 50
90.0
 51
180.0
  0
LINE
  5
238
  8
0
  6
CONTINUOUS
 62
     7
 10
214.25
 20
-94.91
 30
0.0
 11
219.03
 21
-94.91
 31
0.0
  0
ARC
  5
239
  8
0
  6
CONTINUOUS
 62
     7
 10
219.03
 20
-96.11
 30
0.0
 40
1.200000000000017
 50
0.0
 51
90.0
  0
LINE
  5
23A
  8
0
  6
CONTINUOUS
 62
     7
 10
220.23
 20
-96.11
 30
0.0
 11
220.23
 21
-100.89
 31
0.0
  0
ARC
  5
23B
  8
0
  6
CONTINUOUS
 62
     7
 10
227.03
 20
-100.89
 30
0.0
 40
1.200000000000017
 50
270.0
 51
0.0
  0
LINE
  5
23C
  8
0
  6
CONTINUOUS
 62
     7
 10
222.25
 20
-102.09
 30
0.0
 11
227.03
 21
-102.09
 31
0.0
  0
ARC
  5
23D
  8
0
  6
CONTINUOUS
 62
     7
 10
222.25
 20
-100.89
 30
0.0
 40
1.200000000000017
 50
180.0
 51
270.0
  0
LINE
  5
23E
  8
0
  6
CONTINUOUS
 62
     7
 10
221.05
 20
-96.11
 30
0.0
 11
221.05
 21
-100.89
 31
0.0
  0
ARC
  5
23F
  8
0
  6
CONTINUOUS
 62
     7
 10
222.25
 20
-96.11
 30
0.0
 40
1.200000000000017
 50
90.0
 51
180.0
  0
LINE
  5
240
  8
0
  6
CONTINUOUS
 62
     7
 10
222.25
 20
-94.91
 30
0.0
 11
227.03
 21
-94.91
 31
0.0
  0
ARC
  5
241
  8
0
  6
CONTINUOUS
 62
     7
 10
227.03
 20
-96.11
 30
0.0
 40
1.200000000000003
 50
0.0
 51
90.0
  0
LINE
  5
242
  8
0
  6
CONTINUOUS
 62
     7
 10
228.23
 20
-96.11
 30
0.0
 11
228.23
 21
-100.89
 31
0.0
  0
ARC
  5
243
  8
0
  6
CONTINUOUS
 62
     7
 10
83.03
 20
-92.89
 30
0.0
 40
1.200000000000003
 50
270.0
 51
0.0
  0
LINE
  5
244
  8
0
  6
CONTINUOUS
 62
     7
 10
78.25
 20
-94.09
 30
0.0
 11
83.03
 21
-94.09
 31
0.0
  0
ARC
  5
245
  8
0
  6
CONTINUOUS
 62
     7
 10
78.25
 20
-92.89
 30
0.0
 40
1.200000000000003
 50
180.0
 51
270.0
  0
LINE
  5
246
  8
0
  6
CONTINUOUS
 62
     7
 10
77.05
 20
-88.11
 30
0.0
 11
77.05
 21
-92.89
 31
0.0
  0
ARC
  5
247
  8
0
  6
CONTINUOUS
 62
     7
 10
78.25
 20
-88.11
 30
0.0
 40
1.200000000000017
 50
90.0
 51
180.0
  0
LINE
  5
248
  8
0
  6
CONTINUOUS
 62
     7
 10
78.25
 20
-86.91
 30
0.0
 11
83.03
 21
-86.91
 31
0.0
  0
ARC
  5
249
  8
0
  6
CONTINUOUS
 62
     7
 10
83.03
 20
-88.11
 30
0.0
 40
1.200000000000017
 50
0.0
 51
90.0
  0
LINE
  5
24A
  8
0
  6
CONTINUOUS
 62
     7
 10
84.23
 20
-88.11
 30
0.0
 11
84.23
 21
-92.89
 31
0.0
  0
ARC
  5
24B
  8
0
  6
CONTINUOUS
 62
     7
 10
91.03
 20
-92.89
 30
0.0
 40
1.200000000000017
 50
270.0
 51
0.0
  0
LINE
  5
24C
  8
0
  6
CONTINUOUS
 62
     7
 10
86.25
 20
-94.09
 30
0.0
 11
91.03
 21
-94.09
 31
0.0
  0
ARC
  5
24D
  8
0
  6
CONTINUOUS
 62
     7
 10
86.25
 20
-92.89
 30
0.0
 40
1.200000000000003
 50
180.0
 51
270.0
  0
LINE
  5
24E
  8
0
  6
CONTINUOUS
 62
     7
 10
85.05
 20
-88.11
 30
0.0
 11
85.05
 21
-92.89
 31
0.0
  0
ARC
  5
24F
  8
0
  6
CONTINUOUS
 62
     7
 10
86.25
 20
-88.11
 30
0.0
 40
1.200000000000017
 50
90.0
 51
180.0
  0
LINE
  5
250
  8
0
  6
CONTINUOUS
 62
     7
 10
86.25
 20
-86.91
 30
0.0
 11
91.03
 21
-86.91
 31
0.0
  0
ARC
  5
251
  8
0
  6
CONTINUOUS
 62
     7
 10
91.03
 20
-88.11
 30
0.0
 40
1.200000000000017
 50
0.0
 51
90.0
  0
LINE
  5
252
  8
0
  6
CONTINUOUS
 62
     7
 10
92.23
 20
-88.11
 30
0.0
 11
92.23
 21
-92.89
 31
0.0
  0
ARC
  5
253
  8
0
  6
CONTINUOUS
 62
     7
 10
99.03
 20
-92.89
 30
0.0
 40
1.200000000000003
 50
270.0
 51
0.0
  0
LINE
  5
254
  8
0
  6
CONTINUOUS
 62
     7
 10
94.25
 20
-94.09
 30
0.0
 11
99.03
 21
-94.09
 31
0.0
  0
ARC
  5
255
  8
0
  6
CONTINUOUS
 62
     7
 10
94.25
 20
-92.89
 30
0.0
 40
1.200000000000017
 50
180.0
 51
270.0
  0
LINE
  5
256
  8
0
  6
CONTINUOUS
 62
     7
 10
93.05
 20
-88.11
 30
0.0
 11
93.05
 21
-92.89
 31
0.0
  0
ARC
  5
257
  8
0
  6
CONTINUOUS
 62
     7
 10
94.25
 20
-88.11
 30
0.0
 40
1.200000000000017
 50
90.0
 51
180.0
  0
LINE
  5
258
  8
0
  6
CONTINUOUS
 62
     7
 10
94.25
 20
-86.91
 30
0.0
 11
99.03
 21
-86.91
 31
0.0
  0
ARC
  5
259
  8
0
  6
CONTINUOUS
 62
     7
 10
99.03
 20
-88.11
 30
0.0
 40
1.200000000000017
 50
0.0
 51
90.0
  0
LINE
  5
25A
  8
0
  6
CONTINUOUS
 62
     7
 10
100.23
 20
-88.11
 30
0.0
 11
100.23
 21
-92.89
 31
0.0
  0
ARC
  5
25B
  8
0
  6
CONTINUOUS
 62
     7
 10
107.03
 20
-92.89
 30
0.0
 40
1.200000000000003
 50
270.0
 51
0.0
  0
LINE
  5
25C
  8
0
  6
CONTINUOUS
 62
     7
 10
102.25
 20
-94.09
 30
0.0
 11
107.03
 21
-94.09
 31
0.0
  0
ARC
  5
25D
  8
0
  6
CONTINUOUS
 62
     7
 10
102.25
 20
-92.89
 30
0.0
 40
1.200000000000003
 50
180.0
 51
270.0
  0
LINE
  5
25E
  8
0
  6
CONTINUOUS
 62
     7
 10
101.05
 20
-88.11
 30
0.0
 11
101.05
 21
-92.89
 31
0.0
  0
ARC
  5
25F
  8
0
  6
CONTINUOUS
 62
     7
 10
102.25
 20
-88.11
 30
0.0
 40
1.200000000000017
 50
90.0
 51
180.0
  0
LINE
  5
260
  8
0
  6
CONTINUOUS
 62
     7
 10
102.25
 20
-86.91
 30
0.0
 11
107.03
 21
-86.91
 31
0.0
  0
ARC
  5
261
  8
0
  6
CONTINUOUS
 62
     7
 10
107.03
 20
-88.11
 30
0.0
 40
1.200000000000017
 50
0.0
 51
90.0
  0
LINE
  5
262
  8
0
  6
CONTINUOUS
 62
     7
 10
108.23
 20
-88.11
 30
0.0
 11
108.23
 21
-92.89
 31
0.0
  0
ARC
  5
263
  8
0
  6
CONTINUOUS
 62
     7
 10
115.03
 20
-92.89
 30
0.0
 40
1.200000000000003
 50
270.0
 51
0.0
  0
LINE
  5
264
  8
0
  6
CONTINUOUS
 62
     7
 10
110.25
 20
-94.09
 30
0.0
 11
115.03
 21
-94.09
 31
0.0
  0
ARC
  5
265
  8
0
  6
CONTINUOUS
 62
     7
 10
110.25
 20
-92.89
 30
0.0
 40
1.200000000000003
 50
180.0
 51
270.0
  0
LINE
  5
266
  8
0
  6
CONTINUOUS
 62
     7
 10
109.05
 20
-88.11
 30
0.0
 11
109.05
 21
-92.89
 31
0.0
  0
ARC
  5
267
  8
0
  6
CONTINUOUS
 62
     7
 10
110.25
 20
-88.11
 30
0.0
 40
1.200000000000017
 50
90.0
 51
180.0
  0
LINE
  5
268
  8
0
  6
CONTINUOUS
 62
     7
 10
110.25
 20
-86.91
 30
0.0
 11
115.03
 21
-86.91
 31
0.0
  0
ARC
  5
269
  8
0
  6
CONTINUOUS
 62
     7
 10
115.03
 20
-88.11
 30
0.0
 40
1.200000000000017
 50
0.0
 51
90.0
  0
LINE
  5
26A
  8
0
  6
CONTINUOUS
 62
     7
 10
116.23
 20
-88.11
 30
0.0
 11
116.23
 21
-92.89
 31
0.0
  0
ARC
  5
26B
  8
0
  6
CONTINUOUS
 62
     7
 10
123.03
 20
-92.89
 30
0.0
 40
1.200000000000003
 50
270.0
 51
0.0
  0
LINE
  5
26C
  8
0
  6
CONTINUOUS
 62
     7
 10
118.25
 20
-94.09
 30
0.0
 11
123.03
 21
-94.09
 31
0.0
  0
ARC
  5
26D
  8
0
  6
CONTINUOUS
 62
     7
 10
118.25
 20
-92.89
 30
0.0
 40
1.200000000000003
 50
180.0
 51
270.0
  0
LINE
  5
26E
  8
0
  6
CONTINUOUS
 62
     7
 10
117.05
 20
-88.11
 30
0.0
 11
117.05
 21
-92.89
 31
0.0
  0
ARC
  5
26F
  8
0
  6
CONTINUOUS
 62
     7
 10
118.25
 20
-88.11
 30
0.0
 40
1.200000000000017
 50
90.0
 51
180.0
  0
LINE
  5
270
  8
0
  6
CONTINUOUS
 62
     7
 10
118.25
 20
-86.91
 30
0.0
 11
123.03
 21
-86.91
 31
0.0
  0
ARC
  5
271
  8
0
  6
CONTINUOUS
 62
     7
 10
123.03
 20
-88.11
 30
0.0
 40
1.200000000000017
 50
0.0
 51
90.0
  0
LINE
  5
272
  8
0
  6
CONTINUOUS
 62
     7
 10
124.23
 20
-88.11
 30
0.0
 11
124.23
 21
-92.89
 31
0.0
  0
ARC
  5
273
  8
0
  6
CONTINUOUS
 62
     7
 10
131.03
 20
-92.89
 30
0.0
 40
1.200000000000017
 50
270.0
 51
0.0
  0
LINE
  5
274
  8
0
  6
CONTINUOUS
 62
     7
 10
126.25
 20
-94.09
 30
0.0
 11
131.03
 21
-94.09
 31
0.0
  0
ARC
  5
275
  8
0
  6
CONTINUOUS
 62
     7
 10
126.25
 20
-92.89
 30
0.0
 40
1.200000000000017
 50
180.0
 51
270.0
  0
LINE
  5
276
  8
0
  6
CONTINUOUS
 62
     7
 10
125.05
 20
-88.11
 30
0.0
 11
125.05
 21
-92.89
 31
0.0
  0
ARC
  5
277
  8
0
  6
CONTINUOUS
 62
     7
 10
126.25
 20
-88.11
 30
0.0
 40
1.200000000000017
 50
90.0
 51
180.0
  0
LINE
  5
278
  8
0
  6
CONTINUOUS
 62
     7
 10
126.25
 20
-86.91
 30
0.0
 11
131.03
 21
-86.91
 31
0.0
  0
ARC
  5
279
  8
0
  6
CONTINUOUS
 62
     7
 10
131.03
 20
-88.11
 30
0.0
 40
1.200000000000017
 50
0.0
 51
90.0
  0
LINE
  5
27A
  8
0
  6
CONTINUOUS
 62
     7
 10
132.23
 20
-88.11
 30
0.0
 11
132.23
 21
-92.89
 31
0.0
  0
ARC
  5
27B
  8
0
  6
CONTINUOUS
 62
     7
 10
139.03
 20
-92.89
 30
0.0
 40
1.200000000000003
 50
270.0
 51
0.0
  0
LINE
  5
27C
  8
0
  6
CONTINUOUS
 62
     7
 10
134.25
 20
-94.09
 30
0.0
 11
139.03
 21
-94.09
 31
0.0
  0
ARC
  5
27D
  8
0
  6
CONTINUOUS
 62
     7
 10
134.25
 20
-92.89
 30
0.0
 40
1.200000000000017
 50
180.0
 51
270.0
  0
LINE
  5
27E
  8
0
  6
CONTINUOUS
 62
     7
 10
133.05
 20
-88.11
 30
0.0
 11
133.05
 21
-92.89
 31
0.0
  0
ARC
  5
27F
  8
0
  6
CONTINUOUS
 62
     7
 10
134.25
 20
-88.11
 30
0.0
 40
1.200000000000017
 50
90.0
 51
180.0
  0
LINE
  5
280
  8
0
  6
CONTINUOUS
 62
     7
 10
134.25
 20
-86.91
 30
0.0
 11
139.03
 21
-86.91
 31
0.0
  0
ARC
  5
281
  8
0
  6
CONTINUOUS
 62
     7
 10
139.03
 20
-88.11
 30
0.0
 40
1.200000000000017
 50
0.0
 51
90.0
  0
LINE
  5
282
  8
0
  6
CONTINUOUS
 62
     7
 10
140.23
 20
-88.11
 30
0.0
 11
140.23
 21
-92.89
 31
0.0
  0
ARC
  5
283
  8
0
  6
CONTINUOUS
 62
     7
 10
147.03
 20
-92.89
 30
0.0
 40
1.200000000000003
 50
270.0
 51
0.0
  0
LINE
  5
284
  8
0
  6
CONTINUOUS
 62
     7
 10
142.25
 20
-94.09
 30
0.0
 11
147.03
 21
-94.09
 31
0.0
  0
ARC
  5
285
  8
0
  6
CONTINUOUS
 62
     7
 10
142.25
 20
-92.89
 30
0.0
 40
1.200000000000003
 50
180.0
 51
270.0
  0
LINE
  5
286
  8
0
  6
CONTINUOUS
 62
     7
 10
141.05
 20
-88.11
 30
0.0
 11
141.05
 21
-92.89
 31
0.0
  0
ARC
  5
287
  8
0
  6
CONTINUOUS
 62
     7
 10
142.25
 20
-88.11
 30
0.0
 40
1.200000000000017
 50
90.0
 51
180.0
  0
LINE
  5
288
  8
0
  6
CONTINUOUS
 62
     7
 10
142.25
 20
-86.91
 30
0.0
 11
147.03
 21
-86.91
 31
0.0
  0
ARC
  5
289
  8
0
  6
CONTINUOUS
 62
     7
 10
147.03
 20
-88.11
 30
0.0
 40
1.200000000000017
 50
0.0
 51
90.0
  0
LINE
  5
28A
  8
0
  6
CONTINUOUS
 62
     7
 10
148.23
 20
-88.11
 30
0.0
 11
148.23
 21
-92.89
 31
0.0
  0
ARC
  5
28B
  8
0
  6
CONTINUOUS
 62
     7
 10
155.03
 20
-92.89
 30
0.0
 40
1.200000000000017
 50
270.0
 51
0.0
  0
LINE
  5
28C
  8
0
  6
CONTINUOUS
 62
     7
 10
150.25
 20
-94.09
 30
0.0
 11
155.03
 21
-94.09
 31
0.0
  0
ARC
  5
28D
  8
0
  6
CONTINUOUS
 62
     7
 10
150.25
 20
-92.89
 30
0.0
 40
1.200000000000045
 50
180.0
 51
270.0
  0
LINE
  5
28E
  8
0
  6
CONTINUOUS
 62
     7
 10
149.05
 20
-88.11
 30
0.0
 11
149.05
 21
-92.89
 31
0.0
  0
ARC
  5
28F
  8
0
  6
CONTINUOUS
 62
     7
 10
150.25
 20
-88.11
 30
0.0
 40
1.200000000000045
 50
90.0
 51
180.0
  0
LINE
  5
290
  8
0
  6
CONTINUOUS
 62
     7
 10
150.25
 20
-86.91
 30
0.0
 11
155.03
 21
-86.91
 31
0.0
  0
ARC
  5
291
  8
0
  6
CONTINUOUS
 62
     7
 10
155.03
 20
-88.11
 30
0.0
 40
1.200000000000017
 50
0.0
 51
90.0
  0
LINE
  5
292
  8
0
  6
CONTINUOUS
 62
     7
 10
156.23
 20
-88.11
 30
0.0
 11
156.23
 21
-92.89
 31
0.0
  0
ARC
  5
293
  8
0
  6
CONTINUOUS
 62
     7
 10
163.03
 20
-92.89
 30
0.0
 40
1.200000000000045
 50
270.0
 51
0.0
  0
LINE
  5
294
  8
0
  6
CONTINUOUS
 62
     7
 10
158.25
 20
-94.09
 30
0.0
 11
163.03
 21
-94.09
 31
0.0
  0
ARC
  5
295
  8
0
  6
CONTINUOUS
 62
     7
 10
158.25
 20
-92.89
 30
0.0
 40
1.200000000000003
 50
180.0
 51
270.0
  0
LINE
  5
296
  8
0
  6
CONTINUOUS
 62
     7
 10
157.05
 20
-88.11
 30
0.0
 11
157.05
 21
-92.89
 31
0.0
  0
ARC
  5
297
  8
0
  6
CONTINUOUS
 62
     7
 10
158.25
 20
-88.11
 30
0.0
 40
1.200000000000017
 50
90.0
 51
180.0
  0
LINE
  5
298
  8
0
  6
CONTINUOUS
 62
     7
 10
158.25
 20
-86.91
 30
0.0
 11
163.03
 21
-86.91
 31
0.0
  0
ARC
  5
299
  8
0
  6
CONTINUOUS
 62
     7
 10
163.03
 20
-88.11
 30
0.0
 40
1.200000000000045
 50
0.0
 51
90.0
  0
LINE
  5
29A
  8
0
  6
CONTINUOUS
 62
     7
 10
164.23
 20
-88.11
 30
0.0
 11
164.23
 21
-92.89
 31
0.0
  0
ARC
  5
29B
  8
0
  6
CONTINUOUS
 62
     7
 10
171.03
 20
-92.89
 30
0.0
 40
1.200000000000017
 50
270.0
 51
0.0
  0
LINE
  5
29C
  8
0
  6
CONTINUOUS
 62
     7
 10
166.25
 20
-94.09
 30
0.0
 11
171.03
 21
-94.09
 31
0.0
  0
ARC
  5
29D
  8
0
  6
CONTINUOUS
 62
     7
 10
166.25
 20
-92.89
 30
0.0
 40
1.200000000000017
 50
180.0
 51
270.0
  0
LINE
  5
29E
  8
0
  6
CONTINUOUS
 62
     7
 10
165.05
 20
-88.11
 30
0.0
 11
165.05
 21
-92.89
 31
0.0
  0
ARC
  5
29F
  8
0
  6
CONTINUOUS
 62
     7
 10
166.25
 20
-88.11
 30
0.0
 40
1.200000000000017
 50
90.0
 51
180.0
  0
LINE
  5
2A0
  8
0
  6
CONTINUOUS
 62
     7
 10
166.25
 20
-86.91
 30
0.0
 11
171.03
 21
-86.91
 31
0.0
  0
ARC
  5
2A1
  8
0
  6
CONTINUOUS
 62
     7
 10
171.03
 20
-88.11
 30
0.0
 40
1.200000000000017
 50
0.0
 51
90.0
  0
LINE
  5
2A2
  8
0
  6
CONTINUOUS
 62
     7
 10
172.23
 20
-88.11
 30
0.0
 11
172.23
 21
-92.89
 31
0.0
  0
ARC
  5
2A3
  8
0
  6
CONTINUOUS
 62
     7
 10
179.03
 20
-92.89
 30
0.0
 40
1.200000000000045
 50
270.0
 51
0.0
  0
LINE
  5
2A4
  8
0
  6
CONTINUOUS
 62
     7
 10
174.25
 20
-94.09
 30
0.0
 11
179.03
 21
-94.09
 31
0.0
  0
ARC
  5
2A5
  8
0
  6
CONTINUOUS
 62
     7
 10
174.25
 20
-92.89
 30
0.0
 40
1.200000000000017
 50
180.0
 51
270.0
  0
LINE
  5
2A6
  8
0
  6
CONTINUOUS
 62
     7
 10
173.05
 20
-88.11
 30
0.0
 11
173.05
 21
-92.89
 31
0.0
  0
ARC
  5
2A7
  8
0
  6
CONTINUOUS
 62
     7
 10
174.25
 20
-88.11
 30
0.0
 40
1.200000000000017
 50
90.0
 51
180.0
  0
LINE
  5
2A8
  8
0
  6
CONTINUOUS
 62
     7
 10
174.25
 20
-86.91
 30
0.0
 11
179.03
 21
-86.91
 31
0.0
  0
ARC
  5
2A9
  8
0
  6
CONTINUOUS
 62
     7
 10
179.03
 20
-88.11
 30
0.0
 40
1.200000000000045
 50
0.0
 51
90.0
  0
LINE
  5
2AA
  8
0
  6
CONTINUOUS
 62
     7
 10
180.23
 20
-88.11
 30
0.0
 11
180.23
 21
-92.89
 31
0.0
  0
ARC
  5
2AB
  8
0
  6
CONTINUOUS
 62
     7
 10
187.03
 20
-92.89
 30
0.0
 40
1.200000000000017
 50
270.0
 51
0.0
  0
LINE
  5
2AC
  8
0
  6
CONTINUOUS
 62
     7
 10
182.25
 20
-94.09
 30
0.0
 11
187.03
 21
-94.09
 31
0.0
  0
ARC
  5
2AD
  8
0
  6
CONTINUOUS
 62
     7
 10
182.25
 20
-92.89
 30
0.0
 40
1.200000000000003
 50
180.0
 51
270.0
  0
LINE
  5
2AE
  8
0
  6
CONTINUOUS
 62
     7
 10
181.05
 20
-88.11
 30
0.0
 11
181.05
 21
-92.89
 31
0.0
  0
ARC
  5
2AF
  8
0
  6
CONTINUOUS
 62
     7
 10
182.25
 20
-88.11
 30
0.0
 40
1.200000000000017
 50
90.0
 51
180.0
  0
LINE
  5
2B0
  8
0
  6
CONTINUOUS
 62
     7
 10
182.25
 20
-86.91
 30
0.0
 11
187.03
 21
-86.91
 31
0.0
  0
ARC
  5
2B1
  8
0
  6
CONTINUOUS
 62
     7
 10
187.03
 20
-88.11
 30
0.0
 40
1.200000000000017
 50
0.0
 51
90.0
  0
LINE
  5
2B2
  8
0
  6
CONTINUOUS
 62
     7
 10
188.23
 20
-88.11
 30
0.0
 11
188.23
 21
-92.89
 31
0.0
  0
ARC
  5
2B3
  8
0
  6
CONTINUOUS
 62
     7
 10
195.03
 20
-92.89
 30
0.0
 40
1.200000000000003
 50
270.0
 51
0.0
  0
LINE
  5
2B4
  8
0
  6
CONTINUOUS
 62
     7
 10
190.25
 20
-94.09
 30
0.0
 11
195.03
 21
-94.09
 31
0.0
  0
ARC
  5
2B5
  8
0
  6
CONTINUOUS
 62
     7
 10
190.25
 20
-92.89
 30
0.0
 40
1.200000000000017
 50
180.0
 51
270.0
  0
LINE
  5
2B6
  8
0
  6
CONTINUOUS
 62
     7
 10
189.05
 20
-88.11
 30
0.0
 11
189.05
 21
-92.89
 31
0.0
  0
ARC
  5
2B7
  8
0
  6
CONTINUOUS
 62
     7
 10
190.25
 20
-88.11
 30
0.0
 40
1.200000000000017
 50
90.0
 51
180.0
  0
LINE
  5
2B8
  8
0
  6
CONTINUOUS
 62
     7
 10
190.25
 20
-86.91
 30
0.0
 11
195.03
 21
-86.91
 31
0.0
  0
ARC
  5
2B9
  8
0
  6
CONTINUOUS
 62
     7
 10
195.03
 20
-88.11
 30
0.0
 40
1.200000000000017
 50
0.0
 51
90.0
  0
LINE
  5
2BA
  8
0
  6
CONTINUOUS
 62
     7
 10
196.23
 20
-88.11
 30
0.0
 11
196.23
 21
-92.89
 31
0.0
  0
ARC
  5
2BB
  8
0
  6
CONTINUOUS
 62
     7
 10
203.03
 20
-92.89
 30
0.0
 40
1.200000000000003
 50
270.0
 51
0.0
  0
LINE
  5
2BC
  8
0
  6
CONTINUOUS
 62
     7
 10
198.25
 20
-94.09
 30
0.0
 11
203.03
 21
-94.09
 31
0.0
  0
ARC
  5
2BD
  8
0
  6
CONTINUOUS
 62
     7
 10
198.25
 20
-92.89
 30
0.0
 40
1.200000000000017
 50
180.0
 51
270.0
  0
LINE
  5
2BE
  8
0
  6
CONTINUOUS
 62
     7
 10
197.05
 20
-88.11
 30
0.0
 11
197.05
 21
-92.89
 31
0.0
  0
ARC
  5
2BF
  8
0
  6
CONTINUOUS
 62
     7
 10
198.25
 20
-88.11
 30
0.0
 40
1.200000000000017
 50
90.0
 51
180.0
  0
LINE
  5
2C0
  8
0
  6
CONTINUOUS
 62
     7
 10
198.25
 20
-86.91
 30
0.0
 11
203.03
 21
-86.91
 31
0.0
  0
ARC
  5
2C1
  8
0
  6
CONTINUOUS
 62
     7
 10
203.03
 20
-88.11
 30
0.0
 40
1.200000000000017
 50
0.0
 51
90.0
  0
LINE
  5
2C2
  8
0
  6
CONTINUOUS
 62
     7
 10
204.23
 20
-88.11
 30
0.0
 11
204.23
 21
-92.89
 31
0.0
  0
ARC
  5
2C3
  8
0
  6
CONTINUOUS
 62
     7
 10
211.03
 20
-92.89
 30
0.0
 40
1.200000000000003
 50
270.0
 51
0.0
  0
LINE
  5
2C4
  8
0
  6
CONTINUOUS
 62
     7
 10
206.25
 20
-94.09
 30
0.0
 11
211.03
 21
-94.09
 31
0.0
  0
ARC
  5
2C5
  8
0
  6
CONTINUOUS
 62
     7
 10
206.25
 20
-92.89
 30
0.0
 40
1.200000000000003
 50
180.0
 51
270.0
  0
LINE
  5
2C6
  8
0
  6
CONTINUOUS
 62
     7
 10
205.05
 20
-88.11
 30
0.0
 11
205.05
 21
-92.89
 31
0.0
  0
ARC
  5
2C7
  8
0
  6
CONTINUOUS
 62
     7
 10
206.25
 20
-88.11
 30
0.0
 40
1.200000000000017
 50
90.0
 51
180.0
  0
LINE
  5
2C8
  8
0
  6
CONTINUOUS
 62
     7
 10
206.25
 20
-86.91
 30
0.0
 11
211.03
 21
-86.91
 31
0.0
  0
ARC
  5
2C9
  8
0
  6
CONTINUOUS
 62
     7
 10
211.03
 20
-88.11
 30
0.0
 40
1.200000000000017
 50
0.0
 51
90.0
  0
LINE
  5
2CA
  8
0
  6
CONTINUOUS
 62
     7
 10
212.23
 20
-88.11
 30
0.0
 11
212.23
 21
-92.89
 31
0.0
  0
ARC
  5
2CB
  8
0
  6
CONTINUOUS
 62
     7
 10
219.03
 20
-92.89
 30
0.0
 40
1.200000000000003
 50
270.0
 51
0.0
  0
LINE
  5
2CC
  8
0
  6
CONTINUOUS
 62
     7
 10
214.25
 20
-94.09
 30
0.0
 11
219.03
 21
-94.09
 31
0.0
  0
ARC
  5
2CD
  8
0
  6
CONTINUOUS
 62
     7
 10
214.25
 20
-92.89
 30
0.0
 40
1.200000000000017
 50
180.0
 51
270.0
  0
LINE
  5
2CE
  8
0
  6
CONTINUOUS
 62
     7
 10
213.05
 20
-88.11
 30
0.0
 11
213.05
 21
-92.89
 31
0.0
  0
ARC
  5
2CF
  8
0
  6
CONTINUOUS
 62
     7
 10
214.25
 20
-88.11
 30
0.0
 40
1.200000000000017
 50
90.0
 51
180.0
  0
LINE
  5
2D0
  8
0
  6
CONTINUOUS
 62
     7
 10
214.25
 20
-86.91
 30
0.0
 11
219.03
 21
-86.91
 31
0.0
  0
ARC
  5
2D1
  8
0
  6
CONTINUOUS
 62
     7
 10
219.03
 20
-88.11
 30
0.0
 40
1.200000000000017
 50
0.0
 51
90.0
  0
LINE
  5
2D2
  8
0
  6
CONTINUOUS
 62
     7
 10
220.23
 20
-88.11
 30
0.0
 11
220.23
 21
-92.89
 31
0.0
  0
ARC
  5
2D3
  8
0
  6
CONTINUOUS
 62
     7
 10
227.03
 20
-92.89
 30
0.0
 40
1.200000000000045
 50
270.0
 51
0.0
  0
LINE
  5
2D4
  8
0
  6
CONTINUOUS
 62
     7
 10
222.25
 20
-94.09
 30
0.0
 11
227.03
 21
-94.09
 31
0.0
  0
ARC
  5
2D5
  8
0
  6
CONTINUOUS
 62
     7
 10
222.25
 20
-92.89
 30
0.0
 40
1.200000000000017
 50
180.0
 51
270.0
  0
LINE
  5
2D6
  8
0
  6
CONTINUOUS
 62
     7
 10
221.05
 20
-88.11
 30
0.0
 11
221.05
 21
-92.89
 31
0.0
  0
ARC
  5
2D7
  8
0
  6
CONTINUOUS
 62
     7
 10
222.25
 20
-88.11
 30
0.0
 40
1.200000000000017
 50
90.0
 51
180.0
  0
LINE
  5
2D8
  8
0
  6
CONTINUOUS
 62
     7
 10
222.25
 20
-86.91
 30
0.0
 11
227.03
 21
-86.91
 31
0.0
  0
ARC
  5
2D9
  8
0
  6
CONTINUOUS
 62
     7
 10
227.03
 20
-88.11
 30
0.0
 40
1.200000000000045
 50
0.0
 51
90.0
  0
LINE
  5
2DA
  8
0
  6
CONTINUOUS
 62
     7
 10
228.23
 20
-88.11
 30
0.0
 11
228.23
 21
-92.89
 31
0.0
  0
ARC
  5
2DB
  8
0
  6
CONTINUOUS
 62
     7
 10
83.03
 20
-84.89
 30
0.0
 40
1.200000000000017
 50
270.0
 51
0.0
  0
LINE
  5
2DC
  8
0
  6
CONTINUOUS
 62
     7
 10
78.25
 20
-86.09
 30
0.0
 11
83.03
 21
-86.09
 31
0.0
  0
ARC
  5
2DD
  8
0
  6
CONTINUOUS
 62
     7
 10
78.25
 20
-84.89
 30
0.0
 40
1.200000000000017
 50
180.0
 51
270.0
  0
LINE
  5
2DE
  8
0
  6
CONTINUOUS
 62
     7
 10
77.05
 20
-80.11
 30
0.0
 11
77.05
 21
-84.89
 31
0.0
  0
ARC
  5
2DF
  8
0
  6
CONTINUOUS
 62
     7
 10
78.25
 20
-80.11
 30
0.0
 40
1.200000000000003
 50
90.0
 51
180.0
  0
LINE
  5
2E0
  8
0
  6
CONTINUOUS
 62
     7
 10
78.25
 20
-78.91
 30
0.0
 11
83.03
 21
-78.91
 31
0.0
  0
ARC
  5
2E1
  8
0
  6
CONTINUOUS
 62
     7
 10
83.03
 20
-80.11
 30
0.0
 40
1.200000000000003
 50
0.0
 51
90.0
  0
LINE
  5
2E2
  8
0
  6
CONTINUOUS
 62
     7
 10
84.23
 20
-80.11
 30
0.0
 11
84.23
 21
-84.89
 31
0.0
  0
ARC
  5
2E3
  8
0
  6
CONTINUOUS
 62
     7
 10
91.03
 20
-84.89
 30
0.0
 40
1.200000000000017
 50
270.0
 51
0.0
  0
LINE
  5
2E4
  8
0
  6
CONTINUOUS
 62
     7
 10
86.25
 20
-86.09
 30
0.0
 11
91.03
 21
-86.09
 31
0.0
  0
ARC
  5
2E5
  8
0
  6
CONTINUOUS
 62
     7
 10
86.25
 20
-84.89
 30
0.0
 40
1.200000000000017
 50
180.0
 51
270.0
  0
LINE
  5
2E6
  8
0
  6
CONTINUOUS
 62
     7
 10
85.05
 20
-80.11
 30
0.0
 11
85.05
 21
-84.89
 31
0.0
  0
ARC
  5
2E7
  8
0
  6
CONTINUOUS
 62
     7
 10
86.25
 20
-80.11
 30
0.0
 40
1.200000000000003
 50
90.0
 51
180.0
  0
LINE
  5
2E8
  8
0
  6
CONTINUOUS
 62
     7
 10
86.25
 20
-78.91
 30
0.0
 11
91.03
 21
-78.91
 31
0.0
  0
ARC
  5
2E9
  8
0
  6
CONTINUOUS
 62
     7
 10
91.03
 20
-80.11
 30
0.0
 40
1.200000000000017
 50
0.0
 51
90.0
  0
LINE
  5
2EA
  8
0
  6
CONTINUOUS
 62
     7
 10
92.23
 20
-80.11
 30
0.0
 11
92.23
 21
-84.89
 31
0.0
  0
ARC
  5
2EB
  8
0
  6
CONTINUOUS
 62
     7
 10
99.03
 20
-84.89
 30
0.0
 40
1.200000000000017
 50
270.0
 51
0.0
  0
LINE
  5
2EC
  8
0
  6
CONTINUOUS
 62
     7
 10
94.25
 20
-86.09
 30
0.0
 11
99.03
 21
-86.09
 31
0.0
  0
ARC
  5
2ED
  8
0
  6
CONTINUOUS
 62
     7
 10
94.25
 20
-84.89
 30
0.0
 40
1.200000000000017
 50
180.0
 51
270.0
  0
LINE
  5
2EE
  8
0
  6
CONTINUOUS
 62
     7
 10
93.05
 20
-80.11
 30
0.0
 11
93.05
 21
-84.89
 31
0.0
  0
ARC
  5
2EF
  8
0
  6
CONTINUOUS
 62
     7
 10
94.25
 20
-80.11
 30
0.0
 40
1.200000000000003
 50
90.0
 51
180.0
  0
LINE
  5
2F0
  8
0
  6
CONTINUOUS
 62
     7
 10
94.25
 20
-78.91
 30
0.0
 11
99.03
 21
-78.91
 31
0.0
  0
ARC
  5
2F1
  8
0
  6
CONTINUOUS
 62
     7
 10
99.03
 20
-80.11
 30
0.0
 40
1.200000000000003
 50
0.0
 51
90.0
  0
LINE
  5
2F2
  8
0
  6
CONTINUOUS
 62
     7
 10
100.23
 20
-80.11
 30
0.0
 11
100.23
 21
-84.89
 31
0.0
  0
ARC
  5
2F3
  8
0
  6
CONTINUOUS
 62
     7
 10
107.03
 20
-84.89
 30
0.0
 40
1.200000000000017
 50
270.0
 51
0.0
  0
LINE
  5
2F4
  8
0
  6
CONTINUOUS
 62
     7
 10
102.25
 20
-86.09
 30
0.0
 11
107.03
 21
-86.09
 31
0.0
  0
ARC
  5
2F5
  8
0
  6
CONTINUOUS
 62
     7
 10
102.25
 20
-84.89
 30
0.0
 40
1.200000000000017
 50
180.0
 51
270.0
  0
LINE
  5
2F6
  8
0
  6
CONTINUOUS
 62
     7
 10
101.05
 20
-80.11
 30
0.0
 11
101.05
 21
-84.89
 31
0.0
  0
ARC
  5
2F7
  8
0
  6
CONTINUOUS
 62
     7
 10
102.25
 20
-80.11
 30
0.0
 40
1.200000000000003
 50
90.0
 51
180.0
  0
LINE
  5
2F8
  8
0
  6
CONTINUOUS
 62
     7
 10
102.25
 20
-78.91
 30
0.0
 11
107.03
 21
-78.91
 31
0.0
  0
ARC
  5
2F9
  8
0
  6
CONTINUOUS
 62
     7
 10
107.03
 20
-80.11
 30
0.0
 40
1.200000000000003
 50
0.0
 51
90.0
  0
LINE
  5
2FA
  8
0
  6
CONTINUOUS
 62
     7
 10
108.23
 20
-80.11
 30
0.0
 11
108.23
 21
-84.89
 31
0.0
  0
ARC
  5
2FB
  8
0
  6
CONTINUOUS
 62
     7
 10
115.03
 20
-84.89
 30
0.0
 40
1.200000000000017
 50
270.0
 51
0.0
  0
LINE
  5
2FC
  8
0
  6
CONTINUOUS
 62
     7
 10
110.25
 20
-86.09
 30
0.0
 11
115.03
 21
-86.09
 31
0.0
  0
ARC
  5
2FD
  8
0
  6
CONTINUOUS
 62
     7
 10
110.25
 20
-84.89
 30
0.0
 40
1.200000000000017
 50
180.0
 51
270.0
  0
LINE
  5
2FE
  8
0
  6
CONTINUOUS
 62
     7
 10
109.05
 20
-80.11
 30
0.0
 11
109.05
 21
-84.89
 31
0.0
  0
ARC
  5
2FF
  8
0
  6
CONTINUOUS
 62
     7
 10
110.25
 20
-80.11
 30
0.0
 40
1.200000000000003
 50
90.0
 51
180.0
  0
LINE
  5
300
  8
0
  6
CONTINUOUS
 62
     7
 10
110.25
 20
-78.91
 30
0.0
 11
115.03
 21
-78.91
 31
0.0
  0
ARC
  5
301
  8
0
  6
CONTINUOUS
 62
     7
 10
115.03
 20
-80.11
 30
0.0
 40
1.200000000000003
 50
0.0
 51
90.0
  0
LINE
  5
302
  8
0
  6
CONTINUOUS
 62
     7
 10
116.23
 20
-80.11
 30
0.0
 11
116.23
 21
-84.89
 31
0.0
  0
ARC
  5
303
  8
0
  6
CONTINUOUS
 62
     7
 10
123.03
 20
-84.89
 30
0.0
 40
1.200000000000017
 50
270.0
 51
0.0
  0
LINE
  5
304
  8
0
  6
CONTINUOUS
 62
     7
 10
118.25
 20
-86.09
 30
0.0
 11
123.03
 21
-86.09
 31
0.0
  0
ARC
  5
305
  8
0
  6
CONTINUOUS
 62
     7
 10
118.25
 20
-84.89
 30
0.0
 40
1.200000000000017
 50
180.0
 51
270.0
  0
LINE
  5
306
  8
0
  6
CONTINUOUS
 62
     7
 10
117.05
 20
-80.11
 30
0.0
 11
117.05
 21
-84.89
 31
0.0
  0
ARC
  5
307
  8
0
  6
CONTINUOUS
 62
     7
 10
118.25
 20
-80.11
 30
0.0
 40
1.200000000000003
 50
90.0
 51
180.0
  0
LINE
  5
308
  8
0
  6
CONTINUOUS
 62
     7
 10
118.25
 20
-78.91
 30
0.0
 11
123.03
 21
-78.91
 31
0.0
  0
ARC
  5
309
  8
0
  6
CONTINUOUS
 62
     7
 10
123.03
 20
-80.11
 30
0.0
 40
1.200000000000017
 50
0.0
 51
90.0
  0
LINE
  5
30A
  8
0
  6
CONTINUOUS
 62
     7
 10
124.23
 20
-80.11
 30
0.0
 11
124.23
 21
-84.89
 31
0.0
  0
ARC
  5
30B
  8
0
  6
CONTINUOUS
 62
     7
 10
131.03
 20
-84.89
 30
0.0
 40
1.200000000000017
 50
270.0
 51
0.0
  0
LINE
  5
30C
  8
0
  6
CONTINUOUS
 62
     7
 10
126.25
 20
-86.09
 30
0.0
 11
131.03
 21
-86.09
 31
0.0
  0
ARC
  5
30D
  8
0
  6
CONTINUOUS
 62
     7
 10
126.25
 20
-84.89
 30
0.0
 40
1.200000000000017
 50
180.0
 51
270.0
  0
LINE
  5
30E
  8
0
  6
CONTINUOUS
 62
     7
 10
125.05
 20
-80.11
 30
0.0
 11
125.05
 21
-84.89
 31
0.0
  0
ARC
  5
30F
  8
0
  6
CONTINUOUS
 62
     7
 10
126.25
 20
-80.11
 30
0.0
 40
1.200000000000017
 50
90.0
 51
180.0
  0
LINE
  5
310
  8
0
  6
CONTINUOUS
 62
     7
 10
126.25
 20
-78.91
 30
0.0
 11
131.03
 21
-78.91
 31
0.0
  0
ARC
  5
311
  8
0
  6
CONTINUOUS
 62
     7
 10
131.03
 20
-80.11
 30
0.0
 40
1.200000000000017
 50
0.0
 51
90.0
  0
LINE
  5
312
  8
0
  6
CONTINUOUS
 62
     7
 10
132.23
 20
-80.11
 30
0.0
 11
132.23
 21
-84.89
 31
0.0
  0
ARC
  5
313
  8
0
  6
CONTINUOUS
 62
     7
 10
139.03
 20
-84.89
 30
0.0
 40
1.200000000000045
 50
270.0
 51
0.0
  0
LINE
  5
314
  8
0
  6
CONTINUOUS
 62
     7
 10
134.25
 20
-86.09
 30
0.0
 11
139.03
 21
-86.09
 31
0.0
  0
ARC
  5
315
  8
0
  6
CONTINUOUS
 62
     7
 10
134.25
 20
-84.89
 30
0.0
 40
1.200000000000017
 50
180.0
 51
270.0
  0
LINE
  5
316
  8
0
  6
CONTINUOUS
 62
     7
 10
133.05
 20
-80.11
 30
0.0
 11
133.05
 21
-84.89
 31
0.0
  0
ARC
  5
317
  8
0
  6
CONTINUOUS
 62
     7
 10
134.25
 20
-80.11
 30
0.0
 40
1.200000000000017
 50
90.0
 51
180.0
  0
LINE
  5
318
  8
0
  6
CONTINUOUS
 62
     7
 10
134.25
 20
-78.91
 30
0.0
 11
139.03
 21
-78.91
 31
0.0
  0
ARC
  5
319
  8
0
  6
CONTINUOUS
 62
     7
 10
139.03
 20
-80.11
 30
0.0
 40
1.200000000000045
 50
0.0
 51
90.0
  0
LINE
  5
31A
  8
0
  6
CONTINUOUS
 62
     7
 10
140.23
 20
-80.11
 30
0.0
 11
140.23
 21
-84.89
 31
0.0
  0
ARC
  5
31B
  8
0
  6
CONTINUOUS
 62
     7
 10
147.03
 20
-84.89
 30
0.0
 40
1.200000000000017
 50
270.0
 51
0.0
  0
LINE
  5
31C
  8
0
  6
CONTINUOUS
 62
     7
 10
142.25
 20
-86.09
 30
0.0
 11
147.03
 21
-86.09
 31
0.0
  0
ARC
  5
31D
  8
0
  6
CONTINUOUS
 62
     7
 10
142.25
 20
-84.89
 30
0.0
 40
1.200000000000017
 50
180.0
 51
270.0
  0
LINE
  5
31E
  8
0
  6
CONTINUOUS
 62
     7
 10
141.05
 20
-80.11
 30
0.0
 11
141.05
 21
-84.89
 31
0.0
  0
ARC
  5
31F
  8
0
  6
CONTINUOUS
 62
     7
 10
142.25
 20
-80.11
 30
0.0
 40
1.200000000000003
 50
90.0
 51
180.0
  0
LINE
  5
320
  8
0
  6
CONTINUOUS
 62
     7
 10
142.25
 20
-78.91
 30
0.0
 11
147.03
 21
-78.91
 31
0.0
  0
ARC
  5
321
  8
0
  6
CONTINUOUS
 62
     7
 10
147.03
 20
-80.11
 30
0.0
 40
1.200000000000017
 50
0.0
 51
90.0
  0
LINE
  5
322
  8
0
  6
CONTINUOUS
 62
     7
 10
148.23
 20
-80.11
 30
0.0
 11
148.23
 21
-84.89
 31
0.0
  0
ARC
  5
323
  8
0
  6
CONTINUOUS
 62
     7
 10
155.03
 20
-84.89
 30
0.0
 40
1.200000000000017
 50
270.0
 51
0.0
  0
LINE
  5
324
  8
0
  6
CONTINUOUS
 62
     7
 10
150.25
 20
-86.09
 30
0.0
 11
155.03
 21
-86.09
 31
0.0
  0
ARC
  5
325
  8
0
  6
CONTINUOUS
 62
     7
 10
150.25
 20
-84.89
 30
0.0
 40
1.200000000000017
 50
180.0
 51
270.0
  0
LINE
  5
326
  8
0
  6
CONTINUOUS
 62
     7
 10
149.05
 20
-80.11
 30
0.0
 11
149.05
 21
-84.89
 31
0.0
  0
ARC
  5
327
  8
0
  6
CONTINUOUS
 62
     7
 10
150.25
 20
-80.11
 30
0.0
 40
1.200000000000003
 50
90.0
 51
180.0
  0
LINE
  5
328
  8
0
  6
CONTINUOUS
 62
     7
 10
150.25
 20
-78.91
 30
0.0
 11
155.03
 21
-78.91
 31
0.0
  0
ARC
  5
329
  8
0
  6
CONTINUOUS
 62
     7
 10
155.03
 20
-80.11
 30
0.0
 40
1.200000000000017
 50
0.0
 51
90.0
  0
LINE
  5
32A
  8
0
  6
CONTINUOUS
 62
     7
 10
156.23
 20
-80.11
 30
0.0
 11
156.23
 21
-84.89
 31
0.0
  0
ARC
  5
32B
  8
0
  6
CONTINUOUS
 62
     7
 10
163.03
 20
-84.89
 30
0.0
 40
1.200000000000017
 50
270.0
 51
0.0
  0
LINE
  5
32C
  8
0
  6
CONTINUOUS
 62
     7
 10
158.25
 20
-86.09
 30
0.0
 11
163.03
 21
-86.09
 31
0.0
  0
ARC
  5
32D
  8
0
  6
CONTINUOUS
 62
     7
 10
158.25
 20
-84.89
 30
0.0
 40
1.200000000000017
 50
180.0
 51
270.0
  0
LINE
  5
32E
  8
0
  6
CONTINUOUS
 62
     7
 10
157.05
 20
-80.11
 30
0.0
 11
157.05
 21
-84.89
 31
0.0
  0
ARC
  5
32F
  8
0
  6
CONTINUOUS
 62
     7
 10
158.25
 20
-80.11
 30
0.0
 40
1.200000000000003
 50
90.0
 51
180.0
  0
LINE
  5
330
  8
0
  6
CONTINUOUS
 62
     7
 10
158.25
 20
-78.91
 30
0.0
 11
163.03
 21
-78.91
 31
0.0
  0
ARC
  5
331
  8
0
  6
CONTINUOUS
 62
     7
 10
163.03
 20
-80.11
 30
0.0
 40
1.200000000000003
 50
0.0
 51
90.0
  0
LINE
  5
332
  8
0
  6
CONTINUOUS
 62
     7
 10
164.23
 20
-80.11
 30
0.0
 11
164.23
 21
-84.89
 31
0.0
  0
ARC
  5
333
  8
0
  6
CONTINUOUS
 62
     7
 10
171.03
 20
-84.89
 30
0.0
 40
1.200000000000017
 50
270.0
 51
0.0
  0
LINE
  5
334
  8
0
  6
CONTINUOUS
 62
     7
 10
166.25
 20
-86.09
 30
0.0
 11
171.03
 21
-86.09
 31
0.0
  0
ARC
  5
335
  8
0
  6
CONTINUOUS
 62
     7
 10
166.25
 20
-84.89
 30
0.0
 40
1.200000000000017
 50
180.0
 51
270.0
  0
LINE
  5
336
  8
0
  6
CONTINUOUS
 62
     7
 10
165.05
 20
-80.11
 30
0.0
 11
165.05
 21
-84.89
 31
0.0
  0
ARC
  5
337
  8
0
  6
CONTINUOUS
 62
     7
 10
166.25
 20
-80.11
 30
0.0
 40
1.200000000000017
 50
90.0
 51
180.0
  0
LINE
  5
338
  8
0
  6
CONTINUOUS
 62
     7
 10
166.25
 20
-78.91
 30
0.0
 11
171.03
 21
-78.91
 31
0.0
  0
ARC
  5
339
  8
0
  6
CONTINUOUS
 62
     7
 10
171.03
 20
-80.11
 30
0.0
 40
1.200000000000003
 50
0.0
 51
90.0
  0
LINE
  5
33A
  8
0
  6
CONTINUOUS
 62
     7
 10
172.23
 20
-80.11
 30
0.0
 11
172.23
 21
-84.89
 31
0.0
  0
ARC
  5
33B
  8
0
  6
CONTINUOUS
 62
     7
 10
179.03
 20
-84.89
 30
0.0
 40
1.200000000000017
 50
270.0
 51
0.0
  0
LINE
  5
33C
  8
0
  6
CONTINUOUS
 62
     7
 10
174.25
 20
-86.09
 30
0.0
 11
179.03
 21
-86.09
 31
0.0
  0
ARC
  5
33D
  8
0
  6
CONTINUOUS
 62
     7
 10
174.25
 20
-84.89
 30
0.0
 40
1.200000000000017
 50
180.0
 51
270.0
  0
LINE
  5
33E
  8
0
  6
CONTINUOUS
 62
     7
 10
173.05
 20
-80.11
 30
0.0
 11
173.05
 21
-84.89
 31
0.0
  0
ARC
  5
33F
  8
0
  6
CONTINUOUS
 62
     7
 10
174.25
 20
-80.11
 30
0.0
 40
1.200000000000017
 50
90.0
 51
180.0
  0
LINE
  5
340
  8
0
  6
CONTINUOUS
 62
     7
 10
174.25
 20
-78.91
 30
0.0
 11
179.03
 21
-78.91
 31
0.0
  0
ARC
  5
341
  8
0
  6
CONTINUOUS
 62
     7
 10
179.03
 20
-80.11
 30
0.0
 40
1.200000000000003
 50
0.0
 51
90.0
  0
LINE
  5
342
  8
0
  6
CONTINUOUS
 62
     7
 10
180.23
 20
-80.11
 30
0.0
 11
180.23
 21
-84.89
 31
0.0
  0
ARC
  5
343
  8
0
  6
CONTINUOUS
 62
     7
 10
187.03
 20
-84.89
 30
0.0
 40
1.200000000000017
 50
270.0
 51
0.0
  0
LINE
  5
344
  8
0
  6
CONTINUOUS
 62
     7
 10
182.25
 20
-86.09
 30
0.0
 11
187.03
 21
-86.09
 31
0.0
  0
ARC
  5
345
  8
0
  6
CONTINUOUS
 62
     7
 10
182.25
 20
-84.89
 30
0.0
 40
1.200000000000017
 50
180.0
 51
270.0
  0
LINE
  5
346
  8
0
  6
CONTINUOUS
 62
     7
 10
181.05
 20
-80.11
 30
0.0
 11
181.05
 21
-84.89
 31
0.0
  0
ARC
  5
347
  8
0
  6
CONTINUOUS
 62
     7
 10
182.25
 20
-80.11
 30
0.0
 40
1.200000000000017
 50
90.0
 51
180.0
  0
LINE
  5
348
  8
0
  6
CONTINUOUS
 62
     7
 10
182.25
 20
-78.91
 30
0.0
 11
187.03
 21
-78.91
 31
0.0
  0
ARC
  5
349
  8
0
  6
CONTINUOUS
 62
     7
 10
187.03
 20
-80.11
 30
0.0
 40
1.200000000000017
 50
0.0
 51
90.0
  0
LINE
  5
34A
  8
0
  6
CONTINUOUS
 62
     7
 10
188.23
 20
-80.11
 30
0.0
 11
188.23
 21
-84.89
 31
0.0
  0
ARC
  5
34B
  8
0
  6
CONTINUOUS
 62
     7
 10
195.03
 20
-84.89
 30
0.0
 40
1.200000000000017
 50
270.0
 51
0.0
  0
LINE
  5
34C
  8
0
  6
CONTINUOUS
 62
     7
 10
190.25
 20
-86.09
 30
0.0
 11
195.03
 21
-86.09
 31
0.0
  0
ARC
  5
34D
  8
0
  6
CONTINUOUS
 62
     7
 10
190.25
 20
-84.89
 30
0.0
 40
1.200000000000017
 50
180.0
 51
270.0
  0
LINE
  5
34E
  8
0
  6
CONTINUOUS
 62
     7
 10
189.05
 20
-80.11
 30
0.0
 11
189.05
 21
-84.89
 31
0.0
  0
ARC
  5
34F
  8
0
  6
CONTINUOUS
 62
     7
 10
190.25
 20
-80.11
 30
0.0
 40
1.200000000000017
 50
90.0
 51
180.0
  0
LINE
  5
350
  8
0
  6
CONTINUOUS
 62
     7
 10
190.25
 20
-78.91
 30
0.0
 11
195.03
 21
-78.91
 31
0.0
  0
ARC
  5
351
  8
0
  6
CONTINUOUS
 62
     7
 10
195.03
 20
-80.11
 30
0.0
 40
1.200000000000017
 50
0.0
 51
90.0
  0
LINE
  5
352
  8
0
  6
CONTINUOUS
 62
     7
 10
196.23
 20
-80.11
 30
0.0
 11
196.23
 21
-84.89
 31
0.0
  0
ARC
  5
353
  8
0
  6
CONTINUOUS
 62
     7
 10
203.03
 20
-84.89
 30
0.0
 40
1.200000000000045
 50
270.0
 51
0.0
  0
LINE
  5
354
  8
0
  6
CONTINUOUS
 62
     7
 10
198.25
 20
-86.09
 30
0.0
 11
203.03
 21
-86.09
 31
0.0
  0
ARC
  5
355
  8
0
  6
CONTINUOUS
 62
     7
 10
198.25
 20
-84.89
 30
0.0
 40
1.200000000000017
 50
180.0
 51
270.0
  0
LINE
  5
356
  8
0
  6
CONTINUOUS
 62
     7
 10
197.05
 20
-80.11
 30
0.0
 11
197.05
 21
-84.89
 31
0.0
  0
ARC
  5
357
  8
0
  6
CONTINUOUS
 62
     7
 10
198.25
 20
-80.11
 30
0.0
 40
1.200000000000017
 50
90.0
 51
180.0
  0
LINE
  5
358
  8
0
  6
CONTINUOUS
 62
     7
 10
198.25
 20
-78.91
 30
0.0
 11
203.03
 21
-78.91
 31
0.0
  0
ARC
  5
359
  8
0
  6
CONTINUOUS
 62
     7
 10
203.03
 20
-80.11
 30
0.0
 40
1.200000000000045
 50
0.0
 51
90.0
  0
LINE
  5
35A
  8
0
  6
CONTINUOUS
 62
     7
 10
204.23
 20
-80.11
 30
0.0
 11
204.23
 21
-84.89
 31
0.0
  0
ARC
  5
35B
  8
0
  6
CONTINUOUS
 62
     7
 10
211.03
 20
-84.89
 30
0.0
 40
1.200000000000045
 50
270.0
 51
0.0
  0
LINE
  5
35C
  8
0
  6
CONTINUOUS
 62
     7
 10
206.25
 20
-86.09
 30
0.0
 11
211.03
 21
-86.09
 31
0.0
  0
ARC
  5
35D
  8
0
  6
CONTINUOUS
 62
     7
 10
206.25
 20
-84.89
 30
0.0
 40
1.200000000000017
 50
180.0
 51
270.0
  0
LINE
  5
35E
  8
0
  6
CONTINUOUS
 62
     7
 10
205.05
 20
-80.11
 30
0.0
 11
205.05
 21
-84.89
 31
0.0
  0
ARC
  5
35F
  8
0
  6
CONTINUOUS
 62
     7
 10
206.25
 20
-80.11
 30
0.0
 40
1.200000000000003
 50
90.0
 51
180.0
  0
LINE
  5
360
  8
0
  6
CONTINUOUS
 62
     7
 10
206.25
 20
-78.91
 30
0.0
 11
211.03
 21
-78.91
 31
0.0
  0
ARC
  5
361
  8
0
  6
CONTINUOUS
 62
     7
 10
211.03
 20
-80.11
 30
0.0
 40
1.200000000000045
 50
0.0
 51
90.0
  0
LINE
  5
362
  8
0
  6
CONTINUOUS
 62
     7
 10
212.23
 20
-80.11
 30
0.0
 11
212.23
 21
-84.89
 31
0.0
  0
ARC
  5
363
  8
0
  6
CONTINUOUS
 62
     7
 10
219.03
 20
-84.89
 30
0.0
 40
1.200000000000017
 50
270.0
 51
0.0
  0
LINE
  5
364
  8
0
  6
CONTINUOUS
 62
     7
 10
214.25
 20
-86.09
 30
0.0
 11
219.03
 21
-86.09
 31
0.0
  0
ARC
  5
365
  8
0
  6
CONTINUOUS
 62
     7
 10
214.25
 20
-84.89
 30
0.0
 40
1.200000000000017
 50
180.0
 51
270.0
  0
LINE
  5
366
  8
0
  6
CONTINUOUS
 62
     7
 10
213.05
 20
-80.11
 30
0.0
 11
213.05
 21
-84.89
 31
0.0
  0
ARC
  5
367
  8
0
  6
CONTINUOUS
 62
     7
 10
214.25
 20
-80.11
 30
0.0
 40
1.200000000000017
 50
90.0
 51
180.0
  0
LINE
  5
368
  8
0
  6
CONTINUOUS
 62
     7
 10
214.25
 20
-78.91
 30
0.0
 11
219.03
 21
-78.91
 31
0.0
  0
ARC
  5
369
  8
0
  6
CONTINUOUS
 62
     7
 10
219.03
 20
-80.11
 30
0.0
 40
1.200000000000017
 50
0.0
 51
90.0
  0
LINE
  5
36A
  8
0
  6
CONTINUOUS
 62
     7
 10
220.23
 20
-80.11
 30
0.0
 11
220.23
 21
-84.89
 31
0.0
  0
ARC
  5
36B
  8
0
  6
CONTINUOUS
 62
     7
 10
227.03
 20
-84.89
 30
0.0
 40
1.200000000000017
 50
270.0
 51
0.0
  0
LINE
  5
36C
  8
0
  6
CONTINUOUS
 62
     7
 10
222.25
 20
-86.09
 30
0.0
 11
227.03
 21
-86.09
 31
0.0
  0
ARC
  5
36D
  8
0
  6
CONTINUOUS
 62
     7
 10
222.25
 20
-84.89
 30
0.0
 40
1.200000000000017
 50
180.0
 51
270.0
  0
LINE
  5
36E
  8
0
  6
CONTINUOUS
 62
     7
 10
221.05
 20
-80.11
 30
0.0
 11
221.05
 21
-84.89
 31
0.0
  0
ARC
  5
36F
  8
0
  6
CONTINUOUS
 62
     7
 10
222.25
 20
-80.11
 30
0.0
 40
1.200000000000017
 50
90.0
 51
180.0
  0
LINE
  5
370
  8
0
  6
CONTINUOUS
 62
     7
 10
222.25
 20
-78.91
 30
0.0
 11
227.03
 21
-78.91
 31
0.0
  0
ARC
  5
371
  8
0
  6
CONTINUOUS
 62
     7
 10
227.03
 20
-80.11
 30
0.0
 40
1.200000000000003
 50
0.0
 51
90.0
  0
LINE
  5
372
  8
0
  6
CONTINUOUS
 62
     7
 10
228.23
 20
-80.11
 30
0.0
 11
228.23
 21
-84.89
 31
0.0
  0
ARC
  5
373
  8
0
  6
CONTINUOUS
 62
     7
 10
83.03
 20
-76.89
 30
0.0
 40
1.200000000000003
 50
270.0
 51
0.0
  0
LINE
  5
374
  8
0
  6
CONTINUOUS
 62
     7
 10
78.25
 20
-78.09
 30
0.0
 11
83.03
 21
-78.09
 31
0.0
  0
ARC
  5
375
  8
0
  6
CONTINUOUS
 62
     7
 10
78.25
 20
-76.89
 30
0.0
 40
1.200000000000003
 50
180.0
 51
270.0
  0
LINE
  5
376
  8
0
  6
CONTINUOUS
 62
     7
 10
77.05
 20
-72.11
 30
0.0
 11
77.05
 21
-76.89
 31
0.0
  0
ARC
  5
377
  8
0
  6
CONTINUOUS
 62
     7
 10
78.25
 20
-72.11
 30
0.0
 40
1.200000000000003
 50
90.0
 51
180.0
  0
LINE
  5
378
  8
0
  6
CONTINUOUS
 62
     7
 10
78.25
 20
-70.91
 30
0.0
 11
83.03
 21
-70.91
 31
0.0
  0
ARC
  5
379
  8
0
  6
CONTINUOUS
 62
     7
 10
83.03
 20
-72.11
 30
0.0
 40
1.200000000000003
 50
0.0
 51
90.0
  0
LINE
  5
37A
  8
0
  6
CONTINUOUS
 62
     7
 10
84.23
 20
-72.11
 30
0.0
 11
84.23
 21
-76.89
 31
0.0
  0
ARC
  5
37B
  8
0
  6
CONTINUOUS
 62
     7
 10
91.03
 20
-76.89
 30
0.0
 40
1.200000000000003
 50
270.0
 51
0.0
  0
LINE
  5
37C
  8
0
  6
CONTINUOUS
 62
     7
 10
86.25
 20
-78.09
 30
0.0
 11
91.03
 21
-78.09
 31
0.0
  0
ARC
  5
37D
  8
0
  6
CONTINUOUS
 62
     7
 10
86.25
 20
-76.89
 30
0.0
 40
1.200000000000003
 50
180.0
 51
270.0
  0
LINE
  5
37E
  8
0
  6
CONTINUOUS
 62
     7
 10
85.05
 20
-72.11
 30
0.0
 11
85.05
 21
-76.89
 31
0.0
  0
ARC
  5
37F
  8
0
  6
CONTINUOUS
 62
     7
 10
86.25
 20
-72.11
 30
0.0
 40
1.200000000000003
 50
90.0
 51
180.0
  0
LINE
  5
380
  8
0
  6
CONTINUOUS
 62
     7
 10
86.25
 20
-70.91
 30
0.0
 11
91.03
 21
-70.91
 31
0.0
  0
ARC
  5
381
  8
0
  6
CONTINUOUS
 62
     7
 10
91.03
 20
-72.11
 30
0.0
 40
1.200000000000003
 50
0.0
 51
90.0
  0
LINE
  5
382
  8
0
  6
CONTINUOUS
 62
     7
 10
92.23
 20
-72.11
 30
0.0
 11
92.23
 21
-76.89
 31
0.0
  0
ARC
  5
383
  8
0
  6
CONTINUOUS
 62
     7
 10
99.03
 20
-76.89
 30
0.0
 40
1.200000000000003
 50
270.0
 51
0.0
  0
LINE
  5
384
  8
0
  6
CONTINUOUS
 62
     7
 10
94.25
 20
-78.09
 30
0.0
 11
99.03
 21
-78.09
 31
0.0
  0
ARC
  5
385
  8
0
  6
CONTINUOUS
 62
     7
 10
94.25
 20
-76.89
 30
0.0
 40
1.200000000000003
 50
180.0
 51
270.0
  0
LINE
  5
386
  8
0
  6
CONTINUOUS
 62
     7
 10
93.05
 20
-72.11
 30
0.0
 11
93.05
 21
-76.89
 31
0.0
  0
ARC
  5
387
  8
0
  6
CONTINUOUS
 62
     7
 10
94.25
 20
-72.11
 30
0.0
 40
1.200000000000003
 50
90.0
 51
180.0
  0
LINE
  5
388
  8
0
  6
CONTINUOUS
 62
     7
 10
94.25
 20
-70.91
 30
0.0
 11
99.03
 21
-70.91
 31
0.0
  0
ARC
  5
389
  8
0
  6
CONTINUOUS
 62
     7
 10
99.03
 20
-72.11
 30
0.0
 40
1.200000000000003
 50
0.0
 51
90.0
  0
LINE
  5
38A
  8
0
  6
CONTINUOUS
 62
     7
 10
100.23
 20
-72.11
 30
0.0
 11
100.23
 21
-76.89
 31
0.0
  0
ARC
  5
38B
  8
0
  6
CONTINUOUS
 62
     7
 10
107.03
 20
-76.89
 30
0.0
 40
1.200000000000003
 50
270.0
 51
0.0
  0
LINE
  5
38C
  8
0
  6
CONTINUOUS
 62
     7
 10
102.25
 20
-78.09
 30
0.0
 11
107.03
 21
-78.09
 31
0.0
  0
ARC
  5
38D
  8
0
  6
CONTINUOUS
 62
     7
 10
102.25
 20
-76.89
 30
0.0
 40
1.200000000000017
 50
180.0
 51
270.0
  0
LINE
  5
38E
  8
0
  6
CONTINUOUS
 62
     7
 10
101.05
 20
-72.11
 30
0.0
 11
101.05
 21
-76.89
 31
0.0
  0
ARC
  5
38F
  8
0
  6
CONTINUOUS
 62
     7
 10
102.25
 20
-72.11
 30
0.0
 40
1.200000000000017
 50
90.0
 51
180.0
  0
LINE
  5
390
  8
0
  6
CONTINUOUS
 62
     7
 10
102.25
 20
-70.91
 30
0.0
 11
107.03
 21
-70.91
 31
0.0
  0
ARC
  5
391
  8
0
  6
CONTINUOUS
 62
     7
 10
107.03
 20
-72.11
 30
0.0
 40
1.200000000000003
 50
0.0
 51
90.0
  0
LINE
  5
392
  8
0
  6
CONTINUOUS
 62
     7
 10
108.23
 20
-72.11
 30
0.0
 11
108.23
 21
-76.89
 31
0.0
  0
ARC
  5
393
  8
0
  6
CONTINUOUS
 62
     7
 10
115.03
 20
-76.89
 30
0.0
 40
1.200000000000003
 50
270.0
 51
0.0
  0
LINE
  5
394
  8
0
  6
CONTINUOUS
 62
     7
 10
110.25
 20
-78.09
 30
0.0
 11
115.03
 21
-78.09
 31
0.0
  0
ARC
  5
395
  8
0
  6
CONTINUOUS
 62
     7
 10
110.25
 20
-76.89
 30
0.0
 40
1.200000000000003
 50
180.0
 51
270.0
  0
LINE
  5
396
  8
0
  6
CONTINUOUS
 62
     7
 10
109.05
 20
-72.11
 30
0.0
 11
109.05
 21
-76.89
 31
0.0
  0
ARC
  5
397
  8
0
  6
CONTINUOUS
 62
     7
 10
110.25
 20
-72.11
 30
0.0
 40
1.200000000000003
 50
90.0
 51
180.0
  0
LINE
  5
398
  8
0
  6
CONTINUOUS
 62
     7
 10
110.25
 20
-70.91
 30
0.0
 11
115.03
 21
-70.91
 31
0.0
  0
ARC
  5
399
  8
0
  6
CONTINUOUS
 62
     7
 10
115.03
 20
-72.11
 30
0.0
 40
1.200000000000003
 50
0.0
 51
90.0
  0
LINE
  5
39A
  8
0
  6
CONTINUOUS
 62
     7
 10
116.23
 20
-72.11
 30
0.0
 11
116.23
 21
-76.89
 31
0.0
  0
ARC
  5
39B
  8
0
  6
CONTINUOUS
 62
     7
 10
123.03
 20
-76.89
 30
0.0
 40
1.200000000000017
 50
270.0
 51
0.0
  0
LINE
  5
39C
  8
0
  6
CONTINUOUS
 62
     7
 10
118.25
 20
-78.09
 30
0.0
 11
123.03
 21
-78.09
 31
0.0
  0
ARC
  5
39D
  8
0
  6
CONTINUOUS
 62
     7
 10
118.25
 20
-76.89
 30
0.0
 40
1.200000000000003
 50
180.0
 51
270.0
  0
LINE
  5
39E
  8
0
  6
CONTINUOUS
 62
     7
 10
117.05
 20
-72.11
 30
0.0
 11
117.05
 21
-76.89
 31
0.0
  0
ARC
  5
39F
  8
0
  6
CONTINUOUS
 62
     7
 10
118.25
 20
-72.11
 30
0.0
 40
1.200000000000003
 50
90.0
 51
180.0
  0
LINE
  5
3A0
  8
0
  6
CONTINUOUS
 62
     7
 10
118.25
 20
-70.91
 30
0.0
 11
123.03
 21
-70.91
 31
0.0
  0
ARC
  5
3A1
  8
0
  6
CONTINUOUS
 62
     7
 10
123.03
 20
-72.11
 30
0.0
 40
1.200000000000017
 50
0.0
 51
90.0
  0
LINE
  5
3A2
  8
0
  6
CONTINUOUS
 62
     7
 10
124.23
 20
-72.11
 30
0.0
 11
124.23
 21
-76.89
 31
0.0
  0
ARC
  5
3A3
  8
0
  6
CONTINUOUS
 62
     7
 10
131.03
 20
-76.89
 30
0.0
 40
1.200000000000017
 50
270.0
 51
0.0
  0
LINE
  5
3A4
  8
0
  6
CONTINUOUS
 62
     7
 10
126.25
 20
-78.09
 30
0.0
 11
131.03
 21
-78.09
 31
0.0
  0
ARC
  5
3A5
  8
0
  6
CONTINUOUS
 62
     7
 10
126.25
 20
-76.89
 30
0.0
 40
1.200000000000017
 50
180.0
 51
270.0
  0
LINE
  5
3A6
  8
0
  6
CONTINUOUS
 62
     7
 10
125.05
 20
-72.11
 30
0.0
 11
125.05
 21
-76.89
 31
0.0
  0
ARC
  5
3A7
  8
0
  6
CONTINUOUS
 62
     7
 10
126.25
 20
-72.11
 30
0.0
 40
1.200000000000017
 50
90.0
 51
180.0
  0
LINE
  5
3A8
  8
0
  6
CONTINUOUS
 62
     7
 10
126.25
 20
-70.91
 30
0.0
 11
131.03
 21
-70.91
 31
0.0
  0
ARC
  5
3A9
  8
0
  6
CONTINUOUS
 62
     7
 10
131.03
 20
-72.11
 30
0.0
 40
1.200000000000017
 50
0.0
 51
90.0
  0
LINE
  5
3AA
  8
0
  6
CONTINUOUS
 62
     7
 10
132.23
 20
-72.11
 30
0.0
 11
132.23
 21
-76.89
 31
0.0
  0
ARC
  5
3AB
  8
0
  6
CONTINUOUS
 62
     7
 10
139.03
 20
-76.89
 30
0.0
 40
1.200000000000003
 50
270.0
 51
0.0
  0
LINE
  5
3AC
  8
0
  6
CONTINUOUS
 62
     7
 10
134.25
 20
-78.09
 30
0.0
 11
139.03
 21
-78.09
 31
0.0
  0
ARC
  5
3AD
  8
0
  6
CONTINUOUS
 62
     7
 10
134.25
 20
-76.89
 30
0.0
 40
1.200000000000003
 50
180.0
 51
270.0
  0
LINE
  5
3AE
  8
0
  6
CONTINUOUS
 62
     7
 10
133.05
 20
-72.11
 30
0.0
 11
133.05
 21
-76.89
 31
0.0
  0
ARC
  5
3AF
  8
0
  6
CONTINUOUS
 62
     7
 10
134.25
 20
-72.11
 30
0.0
 40
1.200000000000003
 50
90.0
 51
180.0
  0
LINE
  5
3B0
  8
0
  6
CONTINUOUS
 62
     7
 10
134.25
 20
-70.91
 30
0.0
 11
139.03
 21
-70.91
 31
0.0
  0
ARC
  5
3B1
  8
0
  6
CONTINUOUS
 62
     7
 10
139.03
 20
-72.11
 30
0.0
 40
1.200000000000003
 50
0.0
 51
90.0
  0
LINE
  5
3B2
  8
0
  6
CONTINUOUS
 62
     7
 10
140.23
 20
-72.11
 30
0.0
 11
140.23
 21
-76.89
 31
0.0
  0
ARC
  5
3B3
  8
0
  6
CONTINUOUS
 62
     7
 10
147.03
 20
-76.89
 30
0.0
 40
1.200000000000003
 50
270.0
 51
0.0
  0
LINE
  5
3B4
  8
0
  6
CONTINUOUS
 62
     7
 10
142.25
 20
-78.09
 30
0.0
 11
147.03
 21
-78.09
 31
0.0
  0
ARC
  5
3B5
  8
0
  6
CONTINUOUS
 62
     7
 10
142.25
 20
-76.89
 30
0.0
 40
1.200000000000003
 50
180.0
 51
270.0
  0
LINE
  5
3B6
  8
0
  6
CONTINUOUS
 62
     7
 10
141.05
 20
-72.11
 30
0.0
 11
141.05
 21
-76.89
 31
0.0
  0
ARC
  5
3B7
  8
0
  6
CONTINUOUS
 62
     7
 10
142.25
 20
-72.11
 30
0.0
 40
1.200000000000003
 50
90.0
 51
180.0
  0
LINE
  5
3B8
  8
0
  6
CONTINUOUS
 62
     7
 10
142.25
 20
-70.91
 30
0.0
 11
147.03
 21
-70.91
 31
0.0
  0
ARC
  5
3B9
  8
0
  6
CONTINUOUS
 62
     7
 10
147.03
 20
-72.11
 30
0.0
 40
1.200000000000003
 50
0.0
 51
90.0
  0
LINE
  5
3BA
  8
0
  6
CONTINUOUS
 62
     7
 10
148.23
 20
-72.11
 30
0.0
 11
148.23
 21
-76.89
 31
0.0
  0
ARC
  5
3BB
  8
0
  6
CONTINUOUS
 62
     7
 10
155.03
 20
-76.89
 30
0.0
 40
1.200000000000017
 50
270.0
 51
0.0
  0
LINE
  5
3BC
  8
0
  6
CONTINUOUS
 62
     7
 10
150.25
 20
-78.09
 30
0.0
 11
155.03
 21
-78.09
 31
0.0
  0
ARC
  5
3BD
  8
0
  6
CONTINUOUS
 62
     7
 10
150.25
 20
-76.89
 30
0.0
 40
1.200000000000045
 50
180.0
 51
270.0
  0
LINE
  5
3BE
  8
0
  6
CONTINUOUS
 62
     7
 10
149.05
 20
-72.11
 30
0.0
 11
149.05
 21
-76.89
 31
0.0
  0
ARC
  5
3BF
  8
0
  6
CONTINUOUS
 62
     7
 10
150.25
 20
-72.11
 30
0.0
 40
1.200000000000045
 50
90.0
 51
180.0
  0
LINE
  5
3C0
  8
0
  6
CONTINUOUS
 62
     7
 10
150.25
 20
-70.91
 30
0.0
 11
155.03
 21
-70.91
 31
0.0
  0
ARC
  5
3C1
  8
0
  6
CONTINUOUS
 62
     7
 10
155.03
 20
-72.11
 30
0.0
 40
1.200000000000017
 50
0.0
 51
90.0
  0
LINE
  5
3C2
  8
0
  6
CONTINUOUS
 62
     7
 10
156.23
 20
-72.11
 30
0.0
 11
156.23
 21
-76.89
 31
0.0
  0
ARC
  5
3C3
  8
0
  6
CONTINUOUS
 62
     7
 10
163.03
 20
-76.89
 30
0.0
 40
1.200000000000045
 50
270.0
 51
0.0
  0
LINE
  5
3C4
  8
0
  6
CONTINUOUS
 62
     7
 10
158.25
 20
-78.09
 30
0.0
 11
163.03
 21
-78.09
 31
0.0
  0
ARC
  5
3C5
  8
0
  6
CONTINUOUS
 62
     7
 10
158.25
 20
-76.89
 30
0.0
 40
1.200000000000003
 50
180.0
 51
270.0
  0
LINE
  5
3C6
  8
0
  6
CONTINUOUS
 62
     7
 10
157.05
 20
-72.11
 30
0.0
 11
157.05
 21
-76.89
 31
0.0
  0
ARC
  5
3C7
  8
0
  6
CONTINUOUS
 62
     7
 10
158.25
 20
-72.11
 30
0.0
 40
1.200000000000003
 50
90.0
 51
180.0
  0
LINE
  5
3C8
  8
0
  6
CONTINUOUS
 62
     7
 10
158.25
 20
-70.91
 30
0.0
 11
163.03
 21
-70.91
 31
0.0
  0
ARC
  5
3C9
  8
0
  6
CONTINUOUS
 62
     7
 10
163.03
 20
-72.11
 30
0.0
 40
1.200000000000045
 50
0.0
 51
90.0
  0
LINE
  5
3CA
  8
0
  6
CONTINUOUS
 62
     7
 10
164.23
 20
-72.11
 30
0.0
 11
164.23
 21
-76.89
 31
0.0
  0
ARC
  5
3CB
  8
0
  6
CONTINUOUS
 62
     7
 10
171.03
 20
-76.89
 30
0.0
 40
1.200000000000017
 50
270.0
 51
0.0
  0
LINE
  5
3CC
  8
0
  6
CONTINUOUS
 62
     7
 10
166.25
 20
-78.09
 30
0.0
 11
171.03
 21
-78.09
 31
0.0
  0
ARC
  5
3CD
  8
0
  6
CONTINUOUS
 62
     7
 10
166.25
 20
-76.89
 30
0.0
 40
1.200000000000017
 50
180.0
 51
270.0
  0
LINE
  5
3CE
  8
0
  6
CONTINUOUS
 62
     7
 10
165.05
 20
-72.11
 30
0.0
 11
165.05
 21
-76.89
 31
0.0
  0
ARC
  5
3CF
  8
0
  6
CONTINUOUS
 62
     7
 10
166.25
 20
-72.11
 30
0.0
 40
1.200000000000017
 50
90.0
 51
180.0
  0
LINE
  5
3D0
  8
0
  6
CONTINUOUS
 62
     7
 10
166.25
 20
-70.91
 30
0.0
 11
171.03
 21
-70.91
 31
0.0
  0
ARC
  5
3D1
  8
0
  6
CONTINUOUS
 62
     7
 10
171.03
 20
-72.11
 30
0.0
 40
1.200000000000017
 50
0.0
 51
90.0
  0
LINE
  5
3D2
  8
0
  6
CONTINUOUS
 62
     7
 10
172.23
 20
-72.11
 30
0.0
 11
172.23
 21
-76.89
 31
0.0
  0
ARC
  5
3D3
  8
0
  6
CONTINUOUS
 62
     7
 10
179.03
 20
-76.89
 30
0.0
 40
1.200000000000045
 50
270.0
 51
0.0
  0
LINE
  5
3D4
  8
0
  6
CONTINUOUS
 62
     7
 10
174.25
 20
-78.09
 30
0.0
 11
179.03
 21
-78.09
 31
0.0
  0
ARC
  5
3D5
  8
0
  6
CONTINUOUS
 62
     7
 10
174.25
 20
-76.89
 30
0.0
 40
1.200000000000017
 50
180.0
 51
270.0
  0
LINE
  5
3D6
  8
0
  6
CONTINUOUS
 62
     7
 10
173.05
 20
-72.11
 30
0.0
 11
173.05
 21
-76.89
 31
0.0
  0
ARC
  5
3D7
  8
0
  6
CONTINUOUS
 62
     7
 10
174.25
 20
-72.11
 30
0.0
 40
1.200000000000017
 50
90.0
 51
180.0
  0
LINE
  5
3D8
  8
0
  6
CONTINUOUS
 62
     7
 10
174.25
 20
-70.91
 30
0.0
 11
179.03
 21
-70.91
 31
0.0
  0
ARC
  5
3D9
  8
0
  6
CONTINUOUS
 62
     7
 10
179.03
 20
-72.11
 30
0.0
 40
1.200000000000045
 50
0.0
 51
90.0
  0
LINE
  5
3DA
  8
0
  6
CONTINUOUS
 62
     7
 10
180.23
 20
-72.11
 30
0.0
 11
180.23
 21
-76.89
 31
0.0
  0
ARC
  5
3DB
  8
0
  6
CONTINUOUS
 62
     7
 10
187.03
 20
-76.89
 30
0.0
 40
1.200000000000017
 50
270.0
 51
0.0
  0
LINE
  5
3DC
  8
0
  6
CONTINUOUS
 62
     7
 10
182.25
 20
-78.09
 30
0.0
 11
187.03
 21
-78.09
 31
0.0
  0
ARC
  5
3DD
  8
0
  6
CONTINUOUS
 62
     7
 10
182.25
 20
-76.89
 30
0.0
 40
1.200000000000003
 50
180.0
 51
270.0
  0
LINE
  5
3DE
  8
0
  6
CONTINUOUS
 62
     7
 10
181.05
 20
-72.11
 30
0.0
 11
181.05
 21
-76.89
 31
0.0
  0
ARC
  5
3DF
  8
0
  6
CONTINUOUS
 62
     7
 10
182.25
 20
-72.11
 30
0.0
 40
1.200000000000003
 50
90.0
 51
180.0
  0
LINE
  5
3E0
  8
0
  6
CONTINUOUS
 62
     7
 10
182.25
 20
-70.91
 30
0.0
 11
187.03
 21
-70.91
 31
0.0
  0
ARC
  5
3E1
  8
0
  6
CONTINUOUS
 62
     7
 10
187.03
 20
-72.11
 30
0.0
 40
1.200000000000017
 50
0.0
 51
90.0
  0
LINE
  5
3E2
  8
0
  6
CONTINUOUS
 62
     7
 10
188.23
 20
-72.11
 30
0.0
 11
188.23
 21
-76.89
 31
0.0
  0
ARC
  5
3E3
  8
0
  6
CONTINUOUS
 62
     7
 10
195.03
 20
-76.89
 30
0.0
 40
1.200000000000003
 50
270.0
 51
0.0
  0
LINE
  5
3E4
  8
0
  6
CONTINUOUS
 62
     7
 10
190.25
 20
-78.09
 30
0.0
 11
195.03
 21
-78.09
 31
0.0
  0
ARC
  5
3E5
  8
0
  6
CONTINUOUS
 62
     7
 10
190.25
 20
-76.89
 30
0.0
 40
1.200000000000017
 50
180.0
 51
270.0
  0
LINE
  5
3E6
  8
0
  6
CONTINUOUS
 62
     7
 10
189.05
 20
-72.11
 30
0.0
 11
189.05
 21
-76.89
 31
0.0
  0
ARC
  5
3E7
  8
0
  6
CONTINUOUS
 62
     7
 10
190.25
 20
-72.11
 30
0.0
 40
1.200000000000017
 50
90.0
 51
180.0
  0
LINE
  5
3E8
  8
0
  6
CONTINUOUS
 62
     7
 10
190.25
 20
-70.91
 30
0.0
 11
195.03
 21
-70.91
 31
0.0
  0
ARC
  5
3E9
  8
0
  6
CONTINUOUS
 62
     7
 10
195.03
 20
-72.11
 30
0.0
 40
1.200000000000003
 50
0.0
 51
90.0
  0
LINE
  5
3EA
  8
0
  6
CONTINUOUS
 62
     7
 10
196.23
 20
-72.11
 30
0.0
 11
196.23
 21
-76.89
 31
0.0
  0
ARC
  5
3EB
  8
0
  6
CONTINUOUS
 62
     7
 10
203.03
 20
-76.89
 30
0.0
 40
1.200000000000003
 50
270.0
 51
0.0
  0
LINE
  5
3EC
  8
0
  6
CONTINUOUS
 62
     7
 10
198.25
 20
-78.09
 30
0.0
 11
203.03
 21
-78.09
 31
0.0
  0
ARC
  5
3ED
  8
0
  6
CONTINUOUS
 62
     7
 10
198.25
 20
-76.89
 30
0.0
 40
1.200000000000017
 50
180.0
 51
270.0
  0
LINE
  5
3EE
  8
0
  6
CONTINUOUS
 62
     7
 10
197.05
 20
-72.11
 30
0.0
 11
197.05
 21
-76.89
 31
0.0
  0
ARC
  5
3EF
  8
0
  6
CONTINUOUS
 62
     7
 10
198.25
 20
-72.11
 30
0.0
 40
1.200000000000017
 50
90.0
 51
180.0
  0
LINE
  5
3F0
  8
0
  6
CONTINUOUS
 62
     7
 10
198.25
 20
-70.91
 30
0.0
 11
203.03
 21
-70.91
 31
0.0
  0
ARC
  5
3F1
  8
0
  6
CONTINUOUS
 62
     7
 10
203.03
 20
-72.11
 30
0.0
 40
1.200000000000003
 50
0.0
 51
90.0
  0
LINE
  5
3F2
  8
0
  6
CONTINUOUS
 62
     7
 10
204.23
 20
-72.11
 30
0.0
 11
204.23
 21
-76.89
 31
0.0
  0
ARC
  5
3F3
  8
0
  6
CONTINUOUS
 62
     7
 10
211.03
 20
-76.89
 30
0.0
 40
1.200000000000003
 50
270.0
 51
0.0
  0
LINE
  5
3F4
  8
0
  6
CONTINUOUS
 62
     7
 10
206.25
 20
-78.09
 30
0.0
 11
211.03
 21
-78.09
 31
0.0
  0
ARC
  5
3F5
  8
0
  6
CONTINUOUS
 62
     7
 10
206.25
 20
-76.89
 30
0.0
 40
1.200000000000003
 50
180.0
 51
270.0
  0
LINE
  5
3F6
  8
0
  6
CONTINUOUS
 62
     7
 10
205.05
 20
-72.11
 30
0.0
 11
205.05
 21
-76.89
 31
0.0
  0
ARC
  5
3F7
  8
0
  6
CONTINUOUS
 62
     7
 10
206.25
 20
-72.11
 30
0.0
 40
1.200000000000003
 50
90.0
 51
180.0
  0
LINE
  5
3F8
  8
0
  6
CONTINUOUS
 62
     7
 10
206.25
 20
-70.91
 30
0.0
 11
211.03
 21
-70.91
 31
0.0
  0
ARC
  5
3F9
  8
0
  6
CONTINUOUS
 62
     7
 10
211.03
 20
-72.11
 30
0.0
 40
1.200000000000003
 50
0.0
 51
90.0
  0
LINE
  5
3FA
  8
0
  6
CONTINUOUS
 62
     7
 10
212.23
 20
-72.11
 30
0.0
 11
212.23
 21
-76.89
 31
0.0
  0
ARC
  5
3FB
  8
0
  6
CONTINUOUS
 62
     7
 10
219.03
 20
-76.89
 30
0.0
 40
1.200000000000003
 50
270.0
 51
0.0
  0
LINE
  5
3FC
  8
0
  6
CONTINUOUS
 62
     7
 10
214.25
 20
-78.09
 30
0.0
 11
219.03
 21
-78.09
 31
0.0
  0
ARC
  5
3FD
  8
0
  6
CONTINUOUS
 62
     7
 10
214.25
 20
-76.89
 30
0.0
 40
1.200000000000017
 50
180.0
 51
270.0
  0
LINE
  5
3FE
  8
0
  6
CONTINUOUS
 62
     7
 10
213.05
 20
-72.11
 30
0.0
 11
213.05
 21
-76.89
 31
0.0
  0
ARC
  5
3FF
  8
0
  6
CONTINUOUS
 62
     7
 10
214.25
 20
-72.11
 30
0.0
 40
1.200000000000017
 50
90.0
 51
180.0
  0
LINE
  5
400
  8
0
  6
CONTINUOUS
 62
     7
 10
214.25
 20
-70.91
 30
0.0
 11
219.03
 21
-70.91
 31
0.0
  0
ARC
  5
401
  8
0
  6
CONTINUOUS
 62
     7
 10
219.03
 20
-72.11
 30
0.0
 40
1.200000000000003
 50
0.0
 51
90.0
  0
LINE
  5
402
  8
0
  6
CONTINUOUS
 62
     7
 10
220.23
 20
-72.11
 30
0.0
 11
220.23
 21
-76.89
 31
0.0
  0
ARC
  5
403
  8
0
  6
CONTINUOUS
 62
     7
 10
227.03
 20
-76.89
 30
0.0
 40
1.200000000000045
 50
270.0
 51
0.0
  0
LINE
  5
404
  8
0
  6
CONTINUOUS
 62
     7
 10
222.25
 20
-78.09
 30
0.0
 11
227.03
 21
-78.09
 31
0.0
  0
ARC
  5
405
  8
0
  6
CONTINUOUS
 62
     7
 10
222.25
 20
-76.89
 30
0.0
 40
1.200000000000017
 50
180.0
 51
270.0
  0
LINE
  5
406
  8
0
  6
CONTINUOUS
 62
     7
 10
221.05
 20
-72.11
 30
0.0
 11
221.05
 21
-76.89
 31
0.0
  0
ARC
  5
407
  8
0
  6
CONTINUOUS
 62
     7
 10
222.25
 20
-72.11
 30
0.0
 40
1.200000000000017
 50
90.0
 51
180.0
  0
LINE
  5
408
  8
0
  6
CONTINUOUS
 62
     7
 10
222.25
 20
-70.91
 30
0.0
 11
227.03
 21
-70.91
 31
0.0
  0
ARC
  5
409
  8
0
  6
CONTINUOUS
 62
     7
 10
227.03
 20
-72.11
 30
0.0
 40
1.200000000000045
 50
0.0
 51
90.0
  0
LINE
  5
40A
  8
0
  6
CONTINUOUS
 62
     7
 10
228.23
 20
-72.11
 30
0.0
 11
228.23
 21
-76.89
 31
0.0
  0
ARC
  5
40B
  8
0
  6
CONTINUOUS
 62
     7
 10
83.03
 20
-68.89
 30
0.0
 40
1.200000000000017
 50
270.0
 51
0.0
  0
LINE
  5
40C
  8
0
  6
CONTINUOUS
 62
     7
 10
78.25
 20
-70.09
 30
0.0
 11
83.03
 21
-70.09
 31
0.0
  0
ARC
  5
40D
  8
0
  6
CONTINUOUS
 62
     7
 10
78.25
 20
-68.89
 30
0.0
 40
1.200000000000017
 50
180.0
 51
270.0
  0
LINE
  5
40E
  8
0
  6
CONTINUOUS
 62
     7
 10
77.05
 20
-64.11
 30
0.0
 11
77.05
 21
-68.89
 31
0.0
  0
ARC
  5
40F
  8
0
  6
CONTINUOUS
 62
     7
 10
78.25
 20
-64.11
 30
0.0
 40
1.20000000000001
 50
90.0
 51
180.0
  0
LINE
  5
410
  8
0
  6
CONTINUOUS
 62
     7
 10
78.25
 20
-62.91
 30
0.0
 11
83.03
 21
-62.91
 31
0.0
  0
ARC
  5
411
  8
0
  6
CONTINUOUS
 62
     7
 10
83.03
 20
-64.11
 30
0.0
 40
1.20000000000001
 50
0.0
 51
90.0
  0
LINE
  5
412
  8
0
  6
CONTINUOUS
 62
     7
 10
84.23
 20
-64.11
 30
0.0
 11
84.23
 21
-68.89
 31
0.0
  0
ARC
  5
413
  8
0
  6
CONTINUOUS
 62
     7
 10
91.03
 20
-68.89
 30
0.0
 40
1.200000000000017
 50
270.0
 51
0.0
  0
LINE
  5
414
  8
0
  6
CONTINUOUS
 62
     7
 10
86.25
 20
-70.09
 30
0.0
 11
91.03
 21
-70.09
 31
0.0
  0
ARC
  5
415
  8
0
  6
CONTINUOUS
 62
     7
 10
86.25
 20
-68.89
 30
0.0
 40
1.200000000000017
 50
180.0
 51
270.0
  0
LINE
  5
416
  8
0
  6
CONTINUOUS
 62
     7
 10
85.05
 20
-64.11
 30
0.0
 11
85.05
 21
-68.89
 31
0.0
  0
ARC
  5
417
  8
0
  6
CONTINUOUS
 62
     7
 10
86.25
 20
-64.11
 30
0.0
 40
1.20000000000001
 50
90.0
 51
180.0
  0
LINE
  5
418
  8
0
  6
CONTINUOUS
 62
     7
 10
86.25
 20
-62.91
 30
0.0
 11
91.03
 21
-62.91
 31
0.0
  0
ARC
  5
419
  8
0
  6
CONTINUOUS
 62
     7
 10
91.03
 20
-64.11
 30
0.0
 40
1.20000000000001
 50
0.0
 51
90.0
  0
LINE
  5
41A
  8
0
  6
CONTINUOUS
 62
     7
 10
92.23
 20
-64.11
 30
0.0
 11
92.23
 21
-68.89
 31
0.0
  0
ARC
  5
41B
  8
0
  6
CONTINUOUS
 62
     7
 10
99.03
 20
-68.89
 30
0.0
 40
1.200000000000017
 50
270.0
 51
0.0
  0
LINE
  5
41C
  8
0
  6
CONTINUOUS
 62
     7
 10
94.25
 20
-70.09
 30
0.0
 11
99.03
 21
-70.09
 31
0.0
  0
ARC
  5
41D
  8
0
  6
CONTINUOUS
 62
     7
 10
94.25
 20
-68.89
 30
0.0
 40
1.200000000000017
 50
180.0
 51
270.0
  0
LINE
  5
41E
  8
0
  6
CONTINUOUS
 62
     7
 10
93.05
 20
-64.11
 30
0.0
 11
93.05
 21
-68.89
 31
0.0
  0
ARC
  5
41F
  8
0
  6
CONTINUOUS
 62
     7
 10
94.25
 20
-64.11
 30
0.0
 40
1.20000000000001
 50
90.0
 51
180.0
  0
LINE
  5
420
  8
0
  6
CONTINUOUS
 62
     7
 10
94.25
 20
-62.91
 30
0.0
 11
99.03
 21
-62.91
 31
0.0
  0
ARC
  5
421
  8
0
  6
CONTINUOUS
 62
     7
 10
99.03
 20
-64.11
 30
0.0
 40
1.200000000000017
 50
0.0
 51
90.0
  0
LINE
  5
422
  8
0
  6
CONTINUOUS
 62
     7
 10
100.23
 20
-64.11
 30
0.0
 11
100.23
 21
-68.89
 31
0.0
  0
ARC
  5
423
  8
0
  6
CONTINUOUS
 62
     7
 10
107.03
 20
-68.89
 30
0.0
 40
1.200000000000017
 50
270.0
 51
0.0
  0
LINE
  5
424
  8
0
  6
CONTINUOUS
 62
     7
 10
102.25
 20
-70.09
 30
0.0
 11
107.03
 21
-70.09
 31
0.0
  0
ARC
  5
425
  8
0
  6
CONTINUOUS
 62
     7
 10
102.25
 20
-68.89
 30
0.0
 40
1.200000000000017
 50
180.0
 51
270.0
  0
LINE
  5
426
  8
0
  6
CONTINUOUS
 62
     7
 10
101.05
 20
-64.11
 30
0.0
 11
101.05
 21
-68.89
 31
0.0
  0
ARC
  5
427
  8
0
  6
CONTINUOUS
 62
     7
 10
102.25
 20
-64.11
 30
0.0
 40
1.200000000000017
 50
90.0
 51
180.0
  0
LINE
  5
428
  8
0
  6
CONTINUOUS
 62
     7
 10
102.25
 20
-62.91
 30
0.0
 11
107.03
 21
-62.91
 31
0.0
  0
ARC
  5
429
  8
0
  6
CONTINUOUS
 62
     7
 10
107.03
 20
-64.11
 30
0.0
 40
1.20000000000001
 50
0.0
 51
90.0
  0
LINE
  5
42A
  8
0
  6
CONTINUOUS
 62
     7
 10
108.23
 20
-64.11
 30
0.0
 11
108.23
 21
-68.89
 31
0.0
  0
ARC
  5
42B
  8
0
  6
CONTINUOUS
 62
     7
 10
115.03
 20
-68.89
 30
0.0
 40
1.200000000000017
 50
270.0
 51
0.0
  0
LINE
  5
42C
  8
0
  6
CONTINUOUS
 62
     7
 10
110.25
 20
-70.09
 30
0.0
 11
115.03
 21
-70.09
 31
0.0
  0
ARC
  5
42D
  8
0
  6
CONTINUOUS
 62
     7
 10
110.25
 20
-68.89
 30
0.0
 40
1.200000000000017
 50
180.0
 51
270.0
  0
LINE
  5
42E
  8
0
  6
CONTINUOUS
 62
     7
 10
109.05
 20
-64.11
 30
0.0
 11
109.05
 21
-68.89
 31
0.0
  0
ARC
  5
42F
  8
0
  6
CONTINUOUS
 62
     7
 10
110.25
 20
-64.11
 30
0.0
 40
1.20000000000001
 50
90.0
 51
180.0
  0
LINE
  5
430
  8
0
  6
CONTINUOUS
 62
     7
 10
110.25
 20
-62.91
 30
0.0
 11
115.03
 21
-62.91
 31
0.0
  0
ARC
  5
431
  8
0
  6
CONTINUOUS
 62
     7
 10
115.03
 20
-64.11
 30
0.0
 40
1.20000000000001
 50
0.0
 51
90.0
  0
LINE
  5
432
  8
0
  6
CONTINUOUS
 62
     7
 10
116.23
 20
-64.11
 30
0.0
 11
116.23
 21
-68.89
 31
0.0
  0
ARC
  5
433
  8
0
  6
CONTINUOUS
 62
     7
 10
123.03
 20
-68.89
 30
0.0
 40
1.200000000000017
 50
270.0
 51
0.0
  0
LINE
  5
434
  8
0
  6
CONTINUOUS
 62
     7
 10
118.25
 20
-70.09
 30
0.0
 11
123.03
 21
-70.09
 31
0.0
  0
ARC
  5
435
  8
0
  6
CONTINUOUS
 62
     7
 10
118.25
 20
-68.89
 30
0.0
 40
1.200000000000017
 50
180.0
 51
270.0
  0
LINE
  5
436
  8
0
  6
CONTINUOUS
 62
     7
 10
117.05
 20
-64.11
 30
0.0
 11
117.05
 21
-68.89
 31
0.0
  0
ARC
  5
437
  8
0
  6
CONTINUOUS
 62
     7
 10
118.25
 20
-64.11
 30
0.0
 40
1.20000000000001
 50
90.0
 51
180.0
  0
LINE
  5
438
  8
0
  6
CONTINUOUS
 62
     7
 10
118.25
 20
-62.91
 30
0.0
 11
123.03
 21
-62.91
 31
0.0
  0
ARC
  5
439
  8
0
  6
CONTINUOUS
 62
     7
 10
123.03
 20
-64.11
 30
0.0
 40
1.200000000000017
 50
0.0
 51
90.0
  0
LINE
  5
43A
  8
0
  6
CONTINUOUS
 62
     7
 10
124.23
 20
-64.11
 30
0.0
 11
124.23
 21
-68.89
 31
0.0
  0
ARC
  5
43B
  8
0
  6
CONTINUOUS
 62
     7
 10
131.03
 20
-68.89
 30
0.0
 40
1.200000000000017
 50
270.0
 51
0.0
  0
LINE
  5
43C
  8
0
  6
CONTINUOUS
 62
     7
 10
126.25
 20
-70.09
 30
0.0
 11
131.03
 21
-70.09
 31
0.0
  0
ARC
  5
43D
  8
0
  6
CONTINUOUS
 62
     7
 10
126.25
 20
-68.89
 30
0.0
 40
1.200000000000017
 50
180.0
 51
270.0
  0
LINE
  5
43E
  8
0
  6
CONTINUOUS
 62
     7
 10
125.05
 20
-64.11
 30
0.0
 11
125.05
 21
-68.89
 31
0.0
  0
ARC
  5
43F
  8
0
  6
CONTINUOUS
 62
     7
 10
126.25
 20
-64.11
 30
0.0
 40
1.200000000000017
 50
90.0
 51
180.0
  0
LINE
  5
440
  8
0
  6
CONTINUOUS
 62
     7
 10
126.25
 20
-62.91
 30
0.0
 11
131.03
 21
-62.91
 31
0.0
  0
ARC
  5
441
  8
0
  6
CONTINUOUS
 62
     7
 10
131.03
 20
-64.11
 30
0.0
 40
1.200000000000017
 50
0.0
 51
90.0
  0
LINE
  5
442
  8
0
  6
CONTINUOUS
 62
     7
 10
132.23
 20
-64.11
 30
0.0
 11
132.23
 21
-68.89
 31
0.0
  0
ARC
  5
443
  8
0
  6
CONTINUOUS
 62
     7
 10
139.03
 20
-68.89
 30
0.0
 40
1.200000000000045
 50
270.0
 51
0.0
  0
LINE
  5
444
  8
0
  6
CONTINUOUS
 62
     7
 10
134.25
 20
-70.09
 30
0.0
 11
139.03
 21
-70.09
 31
0.0
  0
ARC
  5
445
  8
0
  6
CONTINUOUS
 62
     7
 10
134.25
 20
-68.89
 30
0.0
 40
1.200000000000017
 50
180.0
 51
270.0
  0
LINE
  5
446
  8
0
  6
CONTINUOUS
 62
     7
 10
133.05
 20
-64.11
 30
0.0
 11
133.05
 21
-68.89
 31
0.0
  0
ARC
  5
447
  8
0
  6
CONTINUOUS
 62
     7
 10
134.25
 20
-64.11
 30
0.0
 40
1.20000000000001
 50
90.0
 51
180.0
  0
LINE
  5
448
  8
0
  6
CONTINUOUS
 62
     7
 10
134.25
 20
-62.91
 30
0.0
 11
139.03
 21
-62.91
 31
0.0
  0
ARC
  5
449
  8
0
  6
CONTINUOUS
 62
     7
 10
139.03
 20
-64.11
 30
0.0
 40
1.200000000000045
 50
0.0
 51
90.0
  0
LINE
  5
44A
  8
0
  6
CONTINUOUS
 62
     7
 10
140.23
 20
-64.11
 30
0.0
 11
140.23
 21
-68.89
 31
0.0
  0
ARC
  5
44B
  8
0
  6
CONTINUOUS
 62
     7
 10
147.03
 20
-68.89
 30
0.0
 40
1.200000000000017
 50
270.0
 51
0.0
  0
LINE
  5
44C
  8
0
  6
CONTINUOUS
 62
     7
 10
142.25
 20
-70.09
 30
0.0
 11
147.03
 21
-70.09
 31
0.0
  0
ARC
  5
44D
  8
0
  6
CONTINUOUS
 62
     7
 10
142.25
 20
-68.89
 30
0.0
 40
1.200000000000017
 50
180.0
 51
270.0
  0
LINE
  5
44E
  8
0
  6
CONTINUOUS
 62
     7
 10
141.05
 20
-64.11
 30
0.0
 11
141.05
 21
-68.89
 31
0.0
  0
ARC
  5
44F
  8
0
  6
CONTINUOUS
 62
     7
 10
142.25
 20
-64.11
 30
0.0
 40
1.200000000000017
 50
90.0
 51
180.0
  0
LINE
  5
450
  8
0
  6
CONTINUOUS
 62
     7
 10
142.25
 20
-62.91
 30
0.0
 11
147.03
 21
-62.91
 31
0.0
  0
ARC
  5
451
  8
0
  6
CONTINUOUS
 62
     7
 10
147.03
 20
-64.11
 30
0.0
 40
1.200000000000017
 50
0.0
 51
90.0
  0
LINE
  5
452
  8
0
  6
CONTINUOUS
 62
     7
 10
148.23
 20
-64.11
 30
0.0
 11
148.23
 21
-68.89
 31
0.0
  0
ARC
  5
453
  8
0
  6
CONTINUOUS
 62
     7
 10
155.03
 20
-68.89
 30
0.0
 40
1.200000000000017
 50
270.0
 51
0.0
  0
LINE
  5
454
  8
0
  6
CONTINUOUS
 62
     7
 10
150.25
 20
-70.09
 30
0.0
 11
155.03
 21
-70.09
 31
0.0
  0
ARC
  5
455
  8
0
  6
CONTINUOUS
 62
     7
 10
150.25
 20
-68.89
 30
0.0
 40
1.200000000000017
 50
180.0
 51
270.0
  0
LINE
  5
456
  8
0
  6
CONTINUOUS
 62
     7
 10
149.05
 20
-64.11
 30
0.0
 11
149.05
 21
-68.89
 31
0.0
  0
ARC
  5
457
  8
0
  6
CONTINUOUS
 62
     7
 10
150.25
 20
-64.11
 30
0.0
 40
1.20000000000001
 50
90.0
 51
180.0
  0
LINE
  5
458
  8
0
  6
CONTINUOUS
 62
     7
 10
150.25
 20
-62.91
 30
0.0
 11
155.03
 21
-62.91
 31
0.0
  0
ARC
  5
459
  8
0
  6
CONTINUOUS
 62
     7
 10
155.03
 20
-64.11
 30
0.0
 40
1.200000000000017
 50
0.0
 51
90.0
  0
LINE
  5
45A
  8
0
  6
CONTINUOUS
 62
     7
 10
156.23
 20
-64.11
 30
0.0
 11
156.23
 21
-68.89
 31
0.0
  0
ARC
  5
45B
  8
0
  6
CONTINUOUS
 62
     7
 10
163.03
 20
-68.89
 30
0.0
 40
1.200000000000017
 50
270.0
 51
0.0
  0
LINE
  5
45C
  8
0
  6
CONTINUOUS
 62
     7
 10
158.25
 20
-70.09
 30
0.0
 11
163.03
 21
-70.09
 31
0.0
  0
ARC
  5
45D
  8
0
  6
CONTINUOUS
 62
     7
 10
158.25
 20
-68.89
 30
0.0
 40
1.200000000000017
 50
180.0
 51
270.0
  0
LINE
  5
45E
  8
0
  6
CONTINUOUS
 62
     7
 10
157.05
 20
-64.11
 30
0.0
 11
157.05
 21
-68.89
 31
0.0
  0
ARC
  5
45F
  8
0
  6
CONTINUOUS
 62
     7
 10
158.25
 20
-64.11
 30
0.0
 40
1.20000000000001
 50
90.0
 51
180.0
  0
LINE
  5
460
  8
0
  6
CONTINUOUS
 62
     7
 10
158.25
 20
-62.91
 30
0.0
 11
163.03
 21
-62.91
 31
0.0
  0
ARC
  5
461
  8
0
  6
CONTINUOUS
 62
     7
 10
163.03
 20
-64.11
 30
0.0
 40
1.20000000000001
 50
0.0
 51
90.0
  0
LINE
  5
462
  8
0
  6
CONTINUOUS
 62
     7
 10
164.23
 20
-64.11
 30
0.0
 11
164.23
 21
-68.89
 31
0.0
  0
ARC
  5
463
  8
0
  6
CONTINUOUS
 62
     7
 10
171.03
 20
-68.89
 30
0.0
 40
1.200000000000017
 50
270.0
 51
0.0
  0
LINE
  5
464
  8
0
  6
CONTINUOUS
 62
     7
 10
166.25
 20
-70.09
 30
0.0
 11
171.03
 21
-70.09
 31
0.0
  0
ARC
  5
465
  8
0
  6
CONTINUOUS
 62
     7
 10
166.25
 20
-68.89
 30
0.0
 40
1.200000000000017
 50
180.0
 51
270.0
  0
LINE
  5
466
  8
0
  6
CONTINUOUS
 62
     7
 10
165.05
 20
-64.11
 30
0.0
 11
165.05
 21
-68.89
 31
0.0
  0
ARC
  5
467
  8
0
  6
CONTINUOUS
 62
     7
 10
166.25
 20
-64.11
 30
0.0
 40
1.200000000000017
 50
90.0
 51
180.0
  0
LINE
  5
468
  8
0
  6
CONTINUOUS
 62
     7
 10
166.25
 20
-62.91
 30
0.0
 11
171.03
 21
-62.91
 31
0.0
  0
ARC
  5
469
  8
0
  6
CONTINUOUS
 62
     7
 10
171.03
 20
-64.11
 30
0.0
 40
1.20000000000001
 50
0.0
 51
90.0
  0
LINE
  5
46A
  8
0
  6
CONTINUOUS
 62
     7
 10
172.23
 20
-64.11
 30
0.0
 11
172.23
 21
-68.89
 31
0.0
  0
ARC
  5
46B
  8
0
  6
CONTINUOUS
 62
     7
 10
179.03
 20
-68.89
 30
0.0
 40
1.200000000000017
 50
270.0
 51
0.0
  0
LINE
  5
46C
  8
0
  6
CONTINUOUS
 62
     7
 10
174.25
 20
-70.09
 30
0.0
 11
179.03
 21
-70.09
 31
0.0
  0
ARC
  5
46D
  8
0
  6
CONTINUOUS
 62
     7
 10
174.25
 20
-68.89
 30
0.0
 40
1.200000000000017
 50
180.0
 51
270.0
  0
LINE
  5
46E
  8
0
  6
CONTINUOUS
 62
     7
 10
173.05
 20
-64.11
 30
0.0
 11
173.05
 21
-68.89
 31
0.0
  0
ARC
  5
46F
  8
0
  6
CONTINUOUS
 62
     7
 10
174.25
 20
-64.11
 30
0.0
 40
1.200000000000017
 50
90.0
 51
180.0
  0
LINE
  5
470
  8
0
  6
CONTINUOUS
 62
     7
 10
174.25
 20
-62.91
 30
0.0
 11
179.03
 21
-62.91
 31
0.0
  0
ARC
  5
471
  8
0
  6
CONTINUOUS
 62
     7
 10
179.03
 20
-64.11
 30
0.0
 40
1.20000000000001
 50
0.0
 51
90.0
  0
LINE
  5
472
  8
0
  6
CONTINUOUS
 62
     7
 10
180.23
 20
-64.11
 30
0.0
 11
180.23
 21
-68.89
 31
0.0
  0
ARC
  5
473
  8
0
  6
CONTINUOUS
 62
     7
 10
187.03
 20
-68.89
 30
0.0
 40
1.200000000000017
 50
270.0
 51
0.0
  0
LINE
  5
474
  8
0
  6
CONTINUOUS
 62
     7
 10
182.25
 20
-70.09
 30
0.0
 11
187.03
 21
-70.09
 31
0.0
  0
ARC
  5
475
  8
0
  6
CONTINUOUS
 62
     7
 10
182.25
 20
-68.89
 30
0.0
 40
1.200000000000017
 50
180.0
 51
270.0
  0
LINE
  5
476
  8
0
  6
CONTINUOUS
 62
     7
 10
181.05
 20
-64.11
 30
0.0
 11
181.05
 21
-68.89
 31
0.0
  0
ARC
  5
477
  8
0
  6
CONTINUOUS
 62
     7
 10
182.25
 20
-64.11
 30
0.0
 40
1.200000000000017
 50
90.0
 51
180.0
  0
LINE
  5
478
  8
0
  6
CONTINUOUS
 62
     7
 10
182.25
 20
-62.91
 30
0.0
 11
187.03
 21
-62.91
 31
0.0
  0
ARC
  5
479
  8
0
  6
CONTINUOUS
 62
     7
 10
187.03
 20
-64.11
 30
0.0
 40
1.200000000000017
 50
0.0
 51
90.0
  0
LINE
  5
47A
  8
0
  6
CONTINUOUS
 62
     7
 10
188.23
 20
-64.11
 30
0.0
 11
188.23
 21
-68.89
 31
0.0
  0
ARC
  5
47B
  8
0
  6
CONTINUOUS
 62
     7
 10
195.03
 20
-68.89
 30
0.0
 40
1.200000000000017
 50
270.0
 51
0.0
  0
LINE
  5
47C
  8
0
  6
CONTINUOUS
 62
     7
 10
190.25
 20
-70.09
 30
0.0
 11
195.03
 21
-70.09
 31
0.0
  0
ARC
  5
47D
  8
0
  6
CONTINUOUS
 62
     7
 10
190.25
 20
-68.89
 30
0.0
 40
1.200000000000017
 50
180.0
 51
270.0
  0
LINE
  5
47E
  8
0
  6
CONTINUOUS
 62
     7
 10
189.05
 20
-64.11
 30
0.0
 11
189.05
 21
-68.89
 31
0.0
  0
ARC
  5
47F
  8
0
  6
CONTINUOUS
 62
     7
 10
190.25
 20
-64.11
 30
0.0
 40
1.200000000000017
 50
90.0
 51
180.0
  0
LINE
  5
480
  8
0
  6
CONTINUOUS
 62
     7
 10
190.25
 20
-62.91
 30
0.0
 11
195.03
 21
-62.91
 31
0.0
  0
ARC
  5
481
  8
0
  6
CONTINUOUS
 62
     7
 10
195.03
 20
-64.11
 30
0.0
 40
1.200000000000017
 50
0.0
 51
90.0
  0
LINE
  5
482
  8
0
  6
CONTINUOUS
 62
     7
 10
196.23
 20
-64.11
 30
0.0
 11
196.23
 21
-68.89
 31
0.0
  0
ARC
  5
483
  8
0
  6
CONTINUOUS
 62
     7
 10
203.03
 20
-68.89
 30
0.0
 40
1.200000000000045
 50
270.0
 51
0.0
  0
LINE
  5
484
  8
0
  6
CONTINUOUS
 62
     7
 10
198.25
 20
-70.09
 30
0.0
 11
203.03
 21
-70.09
 31
0.0
  0
ARC
  5
485
  8
0
  6
CONTINUOUS
 62
     7
 10
198.25
 20
-68.89
 30
0.0
 40
1.200000000000017
 50
180.0
 51
270.0
  0
LINE
  5
486
  8
0
  6
CONTINUOUS
 62
     7
 10
197.05
 20
-64.11
 30
0.0
 11
197.05
 21
-68.89
 31
0.0
  0
ARC
  5
487
  8
0
  6
CONTINUOUS
 62
     7
 10
198.25
 20
-64.11
 30
0.0
 40
1.200000000000017
 50
90.0
 51
180.0
  0
LINE
  5
488
  8
0
  6
CONTINUOUS
 62
     7
 10
198.25
 20
-62.91
 30
0.0
 11
203.03
 21
-62.91
 31
0.0
  0
ARC
  5
489
  8
0
  6
CONTINUOUS
 62
     7
 10
203.03
 20
-64.11
 30
0.0
 40
1.200000000000045
 50
0.0
 51
90.0
  0
LINE
  5
48A
  8
0
  6
CONTINUOUS
 62
     7
 10
204.23
 20
-64.11
 30
0.0
 11
204.23
 21
-68.89
 31
0.0
  0
ARC
  5
48B
  8
0
  6
CONTINUOUS
 62
     7
 10
211.03
 20
-68.89
 30
0.0
 40
1.200000000000017
 50
270.0
 51
0.0
  0
LINE
  5
48C
  8
0
  6
CONTINUOUS
 62
     7
 10
206.25
 20
-70.09
 30
0.0
 11
211.03
 21
-70.09
 31
0.0
  0
ARC
  5
48D
  8
0
  6
CONTINUOUS
 62
     7
 10
206.25
 20
-68.89
 30
0.0
 40
1.200000000000017
 50
180.0
 51
270.0
  0
LINE
  5
48E
  8
0
  6
CONTINUOUS
 62
     7
 10
205.05
 20
-64.11
 30
0.0
 11
205.05
 21
-68.89
 31
0.0
  0
ARC
  5
48F
  8
0
  6
CONTINUOUS
 62
     7
 10
206.25
 20
-64.11
 30
0.0
 40
1.20000000000001
 50
90.0
 51
180.0
  0
LINE
  5
490
  8
0
  6
CONTINUOUS
 62
     7
 10
206.25
 20
-62.91
 30
0.0
 11
211.03
 21
-62.91
 31
0.0
  0
ARC
  5
491
  8
0
  6
CONTINUOUS
 62
     7
 10
211.03
 20
-64.11
 30
0.0
 40
1.200000000000017
 50
0.0
 51
90.0
  0
LINE
  5
492
  8
0
  6
CONTINUOUS
 62
     7
 10
212.23
 20
-64.11
 30
0.0
 11
212.23
 21
-68.89
 31
0.0
  0
ARC
  5
493
  8
0
  6
CONTINUOUS
 62
     7
 10
219.03
 20
-68.89
 30
0.0
 40
1.200000000000017
 50
270.0
 51
0.0
  0
LINE
  5
494
  8
0
  6
CONTINUOUS
 62
     7
 10
214.25
 20
-70.09
 30
0.0
 11
219.03
 21
-70.09
 31
0.0
  0
ARC
  5
495
  8
0
  6
CONTINUOUS
 62
     7
 10
214.25
 20
-68.89
 30
0.0
 40
1.200000000000017
 50
180.0
 51
270.0
  0
LINE
  5
496
  8
0
  6
CONTINUOUS
 62
     7
 10
213.05
 20
-64.11
 30
0.0
 11
213.05
 21
-68.89
 31
0.0
  0
ARC
  5
497
  8
0
  6
CONTINUOUS
 62
     7
 10
214.25
 20
-64.11
 30
0.0
 40
1.200000000000017
 50
90.0
 51
180.0
  0
LINE
  5
498
  8
0
  6
CONTINUOUS
 62
     7
 10
214.25
 20
-62.91
 30
0.0
 11
219.03
 21
-62.91
 31
0.0
  0
ARC
  5
499
  8
0
  6
CONTINUOUS
 62
     7
 10
219.03
 20
-64.11
 30
0.0
 40
1.200000000000017
 50
0.0
 51
90.0
  0
LINE
  5
49A
  8
0
  6
CONTINUOUS
 62
     7
 10
220.23
 20
-64.11
 30
0.0
 11
220.23
 21
-68.89
 31
0.0
  0
ARC
  5
49B
  8
0
  6
CONTINUOUS
 62
     7
 10
227.03
 20
-68.89
 30
0.0
 40
1.200000000000017
 50
270.0
 51
0.0
  0
LINE
  5
49C
  8
0
  6
CONTINUOUS
 62
     7
 10
222.25
 20
-70.09
 30
0.0
 11
227.03
 21
-70.09
 31
0.0
  0
ARC
  5
49D
  8
0
  6
CONTINUOUS
 62
     7
 10
222.25
 20
-68.89
 30
0.0
 40
1.200000000000017
 50
180.0
 51
270.0
  0
LINE
  5
49E
  8
0
  6
CONTINUOUS
 62
     7
 10
221.05
 20
-64.11
 30
0.0
 11
221.05
 21
-68.89
 31
0.0
  0
ARC
  5
49F
  8
0
  6
CONTINUOUS
 62
     7
 10
222.25
 20
-64.11
 30
0.0
 40
1.200000000000017
 50
90.0
 51
180.0
  0
LINE
  5
4A0
  8
0
  6
CONTINUOUS
 62
     7
 10
222.25
 20
-62.91
 30
0.0
 11
227.03
 21
-62.91
 31
0.0
  0
ARC
  5
4A1
  8
0
  6
CONTINUOUS
 62
     7
 10
227.03
 20
-64.11
 30
0.0
 40
1.20000000000001
 50
0.0
 51
90.0
  0
LINE
  5
4A2
  8
0
  6
CONTINUOUS
 62
     7
 10
228.23
 20
-64.11
 30
0.0
 11
228.23
 21
-68.89
 31
0.0
  0
ARC
  5
4A3
  8
0
  6
CONTINUOUS
 62
     7
 10
75.03
 20
-108.89
 30
0.0
 40
1.200000000000003
 50
270.0
 51
0.0
  0
LINE
  5
4A4
  8
0
  6
CONTINUOUS
 62
     7
 10
70.25
 20
-110.09
 30
0.0
 11
75.03
 21
-110.09
 31
0.0
  0
ARC
  5
4A5
  8
0
  6
CONTINUOUS
 62
     7
 10
70.25
 20
-108.89
 30
0.0
 40
1.200000000000017
 50
180.0
 51
270.0
  0
LINE
  5
4A6
  8
0
  6
CONTINUOUS
 62
     7
 10
69.05
 20
-104.11
 30
0.0
 11
69.05
 21
-108.89
 31
0.0
  0
ARC
  5
4A7
  8
0
  6
CONTINUOUS
 62
     7
 10
70.25
 20
-104.11
 30
0.0
 40
1.200000000000017
 50
90.0
 51
180.0
  0
LINE
  5
4A8
  8
0
  6
CONTINUOUS
 62
     7
 10
70.25
 20
-102.91
 30
0.0
 11
75.03
 21
-102.91
 31
0.0
  0
ARC
  5
4A9
  8
0
  6
CONTINUOUS
 62
     7
 10
75.03
 20
-104.11
 30
0.0
 40
1.200000000000017
 50
0.0
 51
90.0
  0
LINE
  5
4AA
  8
0
  6
CONTINUOUS
 62
     7
 10
76.23
 20
-104.11
 30
0.0
 11
76.23
 21
-108.89
 31
0.0
  0
ARC
  5
4AB
  8
0
  6
CONTINUOUS
 62
     7
 10
75.03
 20
-100.89
 30
0.0
 40
1.200000000000017
 50
270.0
 51
0.0
  0
LINE
  5
4AC
  8
0
  6
CONTINUOUS
 62
     7
 10
70.25
 20
-102.09
 30
0.0
 11
75.03
 21
-102.09
 31
0.0
  0
ARC
  5
4AD
  8
0
  6
CONTINUOUS
 62
     7
 10
70.25
 20
-100.89
 30
0.0
 40
1.200000000000017
 50
180.0
 51
270.0
  0
LINE
  5
4AE
  8
0
  6
CONTINUOUS
 62
     7
 10
69.05
 20
-96.11
 30
0.0
 11
69.05
 21
-100.89
 31
0.0
  0
ARC
  5
4AF
  8
0
  6
CONTINUOUS
 62
     7
 10
70.25
 20
-96.11
 30
0.0
 40
1.200000000000017
 50
90.0
 51
180.0
  0
LINE
  5
4B0
  8
0
  6
CONTINUOUS
 62
     7
 10
70.25
 20
-94.91
 30
0.0
 11
75.03
 21
-94.91
 31
0.0
  0
ARC
  5
4B1
  8
0
  6
CONTINUOUS
 62
     7
 10
75.03
 20
-96.11
 30
0.0
 40
1.200000000000003
 50
0.0
 51
90.0
  0
LINE
  5
4B2
  8
0
  6
CONTINUOUS
 62
     7
 10
76.23
 20
-96.11
 30
0.0
 11
76.23
 21
-100.89
 31
0.0
  0
ARC
  5
4B3
  8
0
  6
CONTINUOUS
 62
     7
 10
75.03
 20
-92.89
 30
0.0
 40
1.200000000000003
 50
270.0
 51
0.0
  0
LINE
  5
4B4
  8
0
  6
CONTINUOUS
 62
     7
 10
70.25
 20
-94.09
 30
0.0
 11
75.03
 21
-94.09
 31
0.0
  0
ARC
  5
4B5
  8
0
  6
CONTINUOUS
 62
     7
 10
70.25
 20
-92.89
 30
0.0
 40
1.200000000000017
 50
180.0
 51
270.0
  0
LINE
  5
4B6
  8
0
  6
CONTINUOUS
 62
     7
 10
69.05
 20
-88.11
 30
0.0
 11
69.05
 21
-92.89
 31
0.0
  0
ARC
  5
4B7
  8
0
  6
CONTINUOUS
 62
     7
 10
70.25
 20
-88.11
 30
0.0
 40
1.200000000000017
 50
90.0
 51
180.0
  0
LINE
  5
4B8
  8
0
  6
CONTINUOUS
 62
     7
 10
70.25
 20
-86.91
 30
0.0
 11
75.03
 21
-86.91
 31
0.0
  0
ARC
  5
4B9
  8
0
  6
CONTINUOUS
 62
     7
 10
75.03
 20
-88.11
 30
0.0
 40
1.200000000000017
 50
0.0
 51
90.0
  0
LINE
  5
4BA
  8
0
  6
CONTINUOUS
 62
     7
 10
76.23
 20
-88.11
 30
0.0
 11
76.23
 21
-92.89
 31
0.0
  0
ARC
  5
4BB
  8
0
  6
CONTINUOUS
 62
     7
 10
75.03
 20
-84.89
 30
0.0
 40
1.200000000000017
 50
270.0
 51
0.0
  0
LINE
  5
4BC
  8
0
  6
CONTINUOUS
 62
     7
 10
70.25
 20
-86.09
 30
0.0
 11
75.03
 21
-86.09
 31
0.0
  0
ARC
  5
4BD
  8
0
  6
CONTINUOUS
 62
     7
 10
70.25
 20
-84.89
 30
0.0
 40
1.200000000000017
 50
180.0
 51
270.0
  0
LINE
  5
4BE
  8
0
  6
CONTINUOUS
 62
     7
 10
69.05
 20
-80.11
 30
0.0
 11
69.05
 21
-84.89
 31
0.0
  0
ARC
  5
4BF
  8
0
  6
CONTINUOUS
 62
     7
 10
70.25
 20
-80.11
 30
0.0
 40
1.200000000000017
 50
90.0
 51
180.0
  0
LINE
  5
4C0
  8
0
  6
CONTINUOUS
 62
     7
 10
70.25
 20
-78.91
 30
0.0
 11
75.03
 21
-78.91
 31
0.0
  0
ARC
  5
4C1
  8
0
  6
CONTINUOUS
 62
     7
 10
75.03
 20
-80.11
 30
0.0
 40
1.200000000000003
 50
0.0
 51
90.0
  0
LINE
  5
4C2
  8
0
  6
CONTINUOUS
 62
     7
 10
76.23
 20
-80.11
 30
0.0
 11
76.23
 21
-84.89
 31
0.0
  0
ARC
  5
4C3
  8
0
  6
CONTINUOUS
 62
     7
 10
75.03
 20
-76.89
 30
0.0
 40
1.200000000000003
 50
270.0
 51
0.0
  0
LINE
  5
4C4
  8
0
  6
CONTINUOUS
 62
     7
 10
70.25
 20
-78.09
 30
0.0
 11
75.03
 21
-78.09
 31
0.0
  0
ARC
  5
4C5
  8
0
  6
CONTINUOUS
 62
     7
 10
70.25
 20
-76.89
 30
0.0
 40
1.200000000000017
 50
180.0
 51
270.0
  0
LINE
  5
4C6
  8
0
  6
CONTINUOUS
 62
     7
 10
69.05
 20
-72.11
 30
0.0
 11
69.05
 21
-76.89
 31
0.0
  0
ARC
  5
4C7
  8
0
  6
CONTINUOUS
 62
     7
 10
70.25
 20
-72.11
 30
0.0
 40
1.200000000000017
 50
90.0
 51
180.0
  0
LINE
  5
4C8
  8
0
  6
CONTINUOUS
 62
     7
 10
70.25
 20
-70.91
 30
0.0
 11
75.03
 21
-70.91
 31
0.0
  0
ARC
  5
4C9
  8
0
  6
CONTINUOUS
 62
     7
 10
75.03
 20
-72.11
 30
0.0
 40
1.200000000000003
 50
0.0
 51
90.0
  0
LINE
  5
4CA
  8
0
  6
CONTINUOUS
 62
     7
 10
76.23
 20
-72.11
 30
0.0
 11
76.23
 21
-76.89
 31
0.0
  0
ARC
  5
4CB
  8
0
  6
CONTINUOUS
 62
     7
 10
75.03
 20
-68.89
 30
0.0
 40
1.200000000000017
 50
270.0
 51
0.0
  0
LINE
  5
4CC
  8
0
  6
CONTINUOUS
 62
     7
 10
70.25
 20
-70.09
 30
0.0
 11
75.03
 21
-70.09
 31
0.0
  0
ARC
  5
4CD
  8
0
  6
CONTINUOUS
 62
     7
 10
70.25
 20
-68.89
 30
0.0
 40
1.200000000000017
 50
180.0
 51
270.0
  0
LINE
  5
4CE
  8
0
  6
CONTINUOUS
 62
     7
 10
69.05
 20
-64.11
 30
0.0
 11
69.05
 21
-68.89
 31
0.0
  0
ARC
  5
4CF
  8
0
  6
CONTINUOUS
 62
     7
 10
70.25
 20
-64.11
 30
0.0
 40
1.20000000000001
 50
90.0
 51
180.0
  0
LINE
  5
4D0
  8
0
  6
CONTINUOUS
 62
     7
 10
70.25
 20
-62.91
 30
0.0
 11
75.03
 21
-62.91
 31
0.0
  0
ARC
  5
4D1
  8
0
  6
CONTINUOUS
 62
     7
 10
75.03
 20
-64.11
 30
0.0
 40
1.20000000000001
 50
0.0
 51
90.0
  0
LINE
  5
4D2
  8
0
  6
CONTINUOUS
 62
     7
 10
76.23
 20
-64.11
 30
0.0
 11
76.23
 21
-68.89
 31
0.0
  0
LINE
  5
4D3
  8
0
  6
CONTINUOUS
 62
     7
 10
69.45
 20
-61.2509133617
 30
0.0
 11
227.83
 21
-61.2509133617
 31
0.0
  0
ARC
  5
4D4
  8
0
  6
CONTINUOUS
 62
     7
 10
69.45
 20
-62.7509133617
 30
0.0
 40
1.5
 50
90.0
 51
180.0
  0
LINE
  5
4D5
  8
0
  6
CONTINUOUS
 62
     7
 10
67.95
 20
-62.7509133617
 30
0.0
 11
67.95
 21
-118.4917568965
 31
0.0
  0
ARC
  5
4D6
  8
0
  6
CONTINUOUS
 62
     7
 10
69.45
 20
-118.4917568965
 30
0.0
 40
1.5
 50
180.0
 51
270.0
  0
LINE
  5
4D7
  8
0
  6
CONTINUOUS
 62
     7
 10
69.45
 20
-119.9917568965
 30
0.0
 11
230.83
 21
-119.9917568965
 31
0.0
  0
ARC
  5
4D8
  8
0
  6
CONTINUOUS
 62
     7
 10
230.83
 20
-118.4917568965
 30
0.0
 40
1.5
 50
270.0
 51
0.0
  0
LINE
  5
4D9
  8
0
  6
CONTINUOUS
 62
     7
 10
232.33
 20
-118.4917568965
 30
0.0
 11
232.33
 21
-118.2917568965
 31
0.0
  0
ARC
  5
4DA
  8
0
  6
CONTINUOUS
 62
     7
 10
230.83
 20
-118.2917568965
 30
0.0
 40
1.500000000000014
 50
0.0
 51
90.0
  0
LINE
  5
4DB
  8
0
  6
CONTINUOUS
 62
     7
 10
230.83
 20
-116.7917568965
 30
0.0
 11
229.33
 21
-116.7917568965
 31
0.0
  0
LINE
  5
4DC
  8
0
  6
CONTINUOUS
 62
     7
 10
229.33
 20
-116.7917568965
 30
0.0
 11
229.33
 21
-62.7509133617
 31
0.0
  0
ARC
  5
4DD
  8
0
  6
CONTINUOUS
 62
     7
 10
227.83
 20
-62.7509133617
 30
0.0
 40
1.5
 50
0.0
 51
90.0
  0
ENDSEC
  0
EOF
