  0
SECTION
  2
HEADER
  9
$ANGBASE
  50
0.0
  9
$ANGDIR
  70
1
  9
$MEASUREMENT
  70
1
  0
ENDSEC
  0
SECTION
  2
TABLES
  0
TABLE
  2
LTYPE
  70
4
  0
LTYPE
  5
40F
  2
CONTINUOUS
  70
0
  3
Solid line
  72
65
  73
0
  40
0.0
  0
LTYPE
  5
410
  2
DASHDOT
 70
0
  3
Dash Dot ____ _ ____ _
 72
65
 73
4
 40
2.0
 49
1.25
 49
-0.25
 49
0.25
 49
-0.25
  0
LTYPE
  5
411
  2
DASHED
 70
0
  3
Dashed __ __ __ __ __
 72
65
 73
2
 40
0.75
 49
0.5
 49
-0.25
  0
LTYPE
  5
43B
  2
DOTTED
 70
0
  3
Dotted .  .  .  .
 72
65
 73
2
 40
0.2
 49
0.0
 49
-0.2
  0
ENDTAB
  0
TABLE
  2
STYLE
  70
4
  0
STYLE
  2
KICAD
  70
0
  40
0
  41
1
  42
1
  50
0
  71
0
  3
isocp.shx
  0
STYLE
  2
KICADB
  70
0
  40
0
  41
1
  42
1
  50
0
  71
0
  3
isocp.shx
  0
STYLE
  2
KICADI
  70
0
  40
0
  41
1
  42
1
  50
15
  71
0
  3
isocp.shx
  0
STYLE
  2
KICADBI
  70
0
  40
0
  41
1
  42
1
  50
15
  71
0
  3
isocp.shx
  0
ENDTAB
  0
TABLE
  2
LAYER
  70
1
  0
LAYER
  2
BLACK
  70
0
  62
7
  6
CONTINUOUS
  0
ENDTAB
  0
ENDSEC
  0
SECTION
  2
ENTITIES
0
LINE
8
BLACK
6
CONTINUOUS
10
136.5403419999999812
20
-111.8830600000000004
11
136.653380999999996
21
-111.948323000000002
0
LINE
8
BLACK
6
CONTINUOUS
10
136.653380999999996
20
-111.948323000000002
11
136.7456770000000006
21
-112.0406189999999924
0
LINE
8
BLACK
6
CONTINUOUS
10
136.7456770000000006
20
-112.0406189999999924
11
136.810939999999988
21
-112.153657999999993
0
LINE
8
BLACK
6
CONTINUOUS
10
136.810939999999988
20
-112.153657999999993
11
136.8447219999999902
21
-112.2797369999999972
0
LINE
8
BLACK
6
CONTINUOUS
10
136.8447219999999902
20
-112.2797369999999972
11
136.8489999999999895
21
-112.3449999999999989
0
LINE
8
BLACK
6
CONTINUOUS
10
136.8489999999999895
20
-112.3449999999999989
11
136.8489999999999895
21
-113.144999999999996
0
LINE
8
BLACK
6
CONTINUOUS
10
136.8489999999999895
20
-113.144999999999996
11
136.8447219999999902
21
-113.2102629999999976
0
LINE
8
BLACK
6
CONTINUOUS
10
136.8447219999999902
20
-113.2102629999999976
11
136.810939999999988
21
-113.3363420000000019
0
LINE
8
BLACK
6
CONTINUOUS
10
136.810939999999988
20
-113.3363420000000019
11
136.7456770000000006
21
-113.4493809999999883
0
LINE
8
BLACK
6
CONTINUOUS
10
136.7456770000000006
20
-113.4493809999999883
11
136.653380999999996
21
-113.5416769999999929
0
LINE
8
BLACK
6
CONTINUOUS
10
136.653380999999996
20
-113.5416769999999929
11
136.5403419999999812
21
-113.6069399999999945
0
LINE
8
BLACK
6
CONTINUOUS
10
136.5403419999999812
20
-113.6069399999999945
11
136.4142630000000054
21
-113.6407219999999967
0
LINE
8
BLACK
6
CONTINUOUS
10
136.4142630000000054
20
-113.6407219999999967
11
136.2837370000000021
21
-113.6407219999999967
0
LINE
8
BLACK
6
CONTINUOUS
10
136.2837370000000021
20
-113.6407219999999967
11
136.1576579999999979
21
-113.6069399999999945
0
LINE
8
BLACK
6
CONTINUOUS
10
136.1576579999999979
20
-113.6069399999999945
11
136.0446189999999831
21
-113.5416769999999929
0
LINE
8
BLACK
6
CONTINUOUS
10
136.0446189999999831
20
-113.5416769999999929
11
135.9523230000000069
21
-113.4493809999999883
0
LINE
8
BLACK
6
CONTINUOUS
10
135.9523230000000069
20
-113.4493809999999883
11
135.8870599999999911
21
-113.3363420000000019
0
LINE
8
BLACK
6
CONTINUOUS
10
135.8870599999999911
20
-113.3363420000000019
11
135.8532779999999889
21
-113.2102629999999976
0
LINE
8
BLACK
6
CONTINUOUS
10
135.8532779999999889
20
-113.2102629999999976
11
135.8489999999999895
21
-113.144999999999996
0
LINE
8
BLACK
6
CONTINUOUS
10
135.8489999999999895
20
-113.144999999999996
11
135.8489999999999895
21
-112.3449999999999989
0
LINE
8
BLACK
6
CONTINUOUS
10
135.8489999999999895
20
-112.3449999999999989
11
135.8532779999999889
21
-112.2797369999999972
0
LINE
8
BLACK
6
CONTINUOUS
10
135.8532779999999889
20
-112.2797369999999972
11
135.8870599999999911
21
-112.153657999999993
0
LINE
8
BLACK
6
CONTINUOUS
10
135.8870599999999911
20
-112.153657999999993
11
135.9523230000000069
21
-112.0406189999999924
0
LINE
8
BLACK
6
CONTINUOUS
10
135.9523230000000069
20
-112.0406189999999924
11
136.0446189999999831
21
-111.948323000000002
0
LINE
8
BLACK
6
CONTINUOUS
10
136.0446189999999831
20
-111.948323000000002
11
136.1576579999999979
21
-111.8830600000000004
0
LINE
8
BLACK
6
CONTINUOUS
10
136.1576579999999979
20
-111.8830600000000004
11
136.2837370000000021
21
-111.8492779999999982
0
LINE
8
BLACK
6
CONTINUOUS
10
136.2837370000000021
20
-111.8492779999999982
11
136.4142630000000054
21
-111.8492779999999982
0
LINE
8
BLACK
6
CONTINUOUS
10
136.4142630000000054
20
-111.8492779999999982
11
136.5403419999999812
21
-111.8830600000000004
0
LINE
8
BLACK
6
CONTINUOUS
10
145.180341999999996
20
-111.8830600000000004
11
145.2933809999999824
21
-111.948323000000002
0
LINE
8
BLACK
6
CONTINUOUS
10
145.2933809999999824
20
-111.948323000000002
11
145.3856769999999869
21
-112.0406189999999924
0
LINE
8
BLACK
6
CONTINUOUS
10
145.3856769999999869
20
-112.0406189999999924
11
145.4509400000000028
21
-112.153657999999993
0
LINE
8
BLACK
6
CONTINUOUS
10
145.4509400000000028
20
-112.153657999999993
11
145.484722000000005
21
-112.2797369999999972
0
LINE
8
BLACK
6
CONTINUOUS
10
145.484722000000005
20
-112.2797369999999972
11
145.4890000000000043
21
-112.3449999999999989
0
LINE
8
BLACK
6
CONTINUOUS
10
145.4890000000000043
20
-112.3449999999999989
11
145.4890000000000043
21
-113.144999999999996
0
LINE
8
BLACK
6
CONTINUOUS
10
145.4890000000000043
20
-113.144999999999996
11
145.484722000000005
21
-113.2102629999999976
0
LINE
8
BLACK
6
CONTINUOUS
10
145.484722000000005
20
-113.2102629999999976
11
145.4509400000000028
21
-113.3363420000000019
0
LINE
8
BLACK
6
CONTINUOUS
10
145.4509400000000028
20
-113.3363420000000019
11
145.3856769999999869
21
-113.4493809999999883
0
LINE
8
BLACK
6
CONTINUOUS
10
145.3856769999999869
20
-113.4493809999999883
11
145.2933809999999824
21
-113.5416769999999929
0
LINE
8
BLACK
6
CONTINUOUS
10
145.2933809999999824
20
-113.5416769999999929
11
145.180341999999996
21
-113.6069399999999945
0
LINE
8
BLACK
6
CONTINUOUS
10
145.180341999999996
20
-113.6069399999999945
11
145.0542629999999917
21
-113.6407219999999967
0
LINE
8
BLACK
6
CONTINUOUS
10
145.0542629999999917
20
-113.6407219999999967
11
144.9237369999999885
21
-113.6407219999999967
0
LINE
8
BLACK
6
CONTINUOUS
10
144.9237369999999885
20
-113.6407219999999967
11
144.7976579999999842
21
-113.6069399999999945
0
LINE
8
BLACK
6
CONTINUOUS
10
144.7976579999999842
20
-113.6069399999999945
11
144.6846189999999979
21
-113.5416769999999929
0
LINE
8
BLACK
6
CONTINUOUS
10
144.6846189999999979
20
-113.5416769999999929
11
144.5923229999999933
21
-113.4493809999999883
0
LINE
8
BLACK
6
CONTINUOUS
10
144.5923229999999933
20
-113.4493809999999883
11
144.5270600000000059
21
-113.3363420000000019
0
LINE
8
BLACK
6
CONTINUOUS
10
144.5270600000000059
20
-113.3363420000000019
11
144.4932780000000037
21
-113.2102629999999976
0
LINE
8
BLACK
6
CONTINUOUS
10
144.4932780000000037
20
-113.2102629999999976
11
144.4890000000000043
21
-113.144999999999996
0
LINE
8
BLACK
6
CONTINUOUS
10
144.4890000000000043
20
-113.144999999999996
11
144.4890000000000043
21
-112.3449999999999989
0
LINE
8
BLACK
6
CONTINUOUS
10
144.4890000000000043
20
-112.3449999999999989
11
144.4932780000000037
21
-112.2797369999999972
0
LINE
8
BLACK
6
CONTINUOUS
10
144.4932780000000037
20
-112.2797369999999972
11
144.5270600000000059
21
-112.153657999999993
0
LINE
8
BLACK
6
CONTINUOUS
10
144.5270600000000059
20
-112.153657999999993
11
144.5923229999999933
21
-112.0406189999999924
0
LINE
8
BLACK
6
CONTINUOUS
10
144.5923229999999933
20
-112.0406189999999924
11
144.6846189999999979
21
-111.948323000000002
0
LINE
8
BLACK
6
CONTINUOUS
10
144.6846189999999979
20
-111.948323000000002
11
144.7976579999999842
21
-111.8830600000000004
0
LINE
8
BLACK
6
CONTINUOUS
10
144.7976579999999842
20
-111.8830600000000004
11
144.9237369999999885
21
-111.8492779999999982
0
LINE
8
BLACK
6
CONTINUOUS
10
144.9237369999999885
20
-111.8492779999999982
11
145.0542629999999917
21
-111.8492779999999982
0
LINE
8
BLACK
6
CONTINUOUS
10
145.0542629999999917
20
-111.8492779999999982
11
145.180341999999996
21
-111.8830600000000004
0
LINE
8
BLACK
6
CONTINUOUS
10
136.5403419999999812
20
-107.5530600000000021
11
136.653380999999996
21
-107.6183229999999895
0
LINE
8
BLACK
6
CONTINUOUS
10
136.653380999999996
20
-107.6183229999999895
11
136.7456770000000006
21
-107.7106189999999941
0
LINE
8
BLACK
6
CONTINUOUS
10
136.7456770000000006
20
-107.7106189999999941
11
136.810939999999988
21
-107.8236579999999947
0
LINE
8
BLACK
6
CONTINUOUS
10
136.810939999999988
20
-107.8236579999999947
11
136.8447219999999902
21
-107.9497369999999989
0
LINE
8
BLACK
6
CONTINUOUS
10
136.8447219999999902
20
-107.9497369999999989
11
136.8489999999999895
21
-108.0150000000000006
0
LINE
8
BLACK
6
CONTINUOUS
10
136.8489999999999895
20
-108.0150000000000006
11
136.8489999999999895
21
-109.1149999999999949
0
LINE
8
BLACK
6
CONTINUOUS
10
136.8489999999999895
20
-109.1149999999999949
11
136.8447219999999902
21
-109.1802629999999965
0
LINE
8
BLACK
6
CONTINUOUS
10
136.8447219999999902
20
-109.1802629999999965
11
136.810939999999988
21
-109.3063420000000008
0
LINE
8
BLACK
6
CONTINUOUS
10
136.810939999999988
20
-109.3063420000000008
11
136.7456770000000006
21
-109.4193810000000013
0
LINE
8
BLACK
6
CONTINUOUS
10
136.7456770000000006
20
-109.4193810000000013
11
136.653380999999996
21
-109.5116769999999917
0
LINE
8
BLACK
6
CONTINUOUS
10
136.653380999999996
20
-109.5116769999999917
11
136.5403419999999812
21
-109.5769399999999933
0
LINE
8
BLACK
6
CONTINUOUS
10
136.5403419999999812
20
-109.5769399999999933
11
136.4142630000000054
21
-109.6107219999999955
0
LINE
8
BLACK
6
CONTINUOUS
10
136.4142630000000054
20
-109.6107219999999955
11
136.2837370000000021
21
-109.6107219999999955
0
LINE
8
BLACK
6
CONTINUOUS
10
136.2837370000000021
20
-109.6107219999999955
11
136.1576579999999979
21
-109.5769399999999933
0
LINE
8
BLACK
6
CONTINUOUS
10
136.1576579999999979
20
-109.5769399999999933
11
136.0446189999999831
21
-109.5116769999999917
0
LINE
8
BLACK
6
CONTINUOUS
10
136.0446189999999831
20
-109.5116769999999917
11
135.9523230000000069
21
-109.4193810000000013
0
LINE
8
BLACK
6
CONTINUOUS
10
135.9523230000000069
20
-109.4193810000000013
11
135.8870599999999911
21
-109.3063420000000008
0
LINE
8
BLACK
6
CONTINUOUS
10
135.8870599999999911
20
-109.3063420000000008
11
135.8532779999999889
21
-109.1802629999999965
0
LINE
8
BLACK
6
CONTINUOUS
10
135.8532779999999889
20
-109.1802629999999965
11
135.8489999999999895
21
-109.1149999999999949
0
LINE
8
BLACK
6
CONTINUOUS
10
135.8489999999999895
20
-109.1149999999999949
11
135.8489999999999895
21
-108.0150000000000006
0
LINE
8
BLACK
6
CONTINUOUS
10
135.8489999999999895
20
-108.0150000000000006
11
135.8532779999999889
21
-107.9497369999999989
0
LINE
8
BLACK
6
CONTINUOUS
10
135.8532779999999889
20
-107.9497369999999989
11
135.8870599999999911
21
-107.8236579999999947
0
LINE
8
BLACK
6
CONTINUOUS
10
135.8870599999999911
20
-107.8236579999999947
11
135.9523230000000069
21
-107.7106189999999941
0
LINE
8
BLACK
6
CONTINUOUS
10
135.9523230000000069
20
-107.7106189999999941
11
136.0446189999999831
21
-107.6183229999999895
0
LINE
8
BLACK
6
CONTINUOUS
10
136.0446189999999831
20
-107.6183229999999895
11
136.1576579999999979
21
-107.5530600000000021
0
LINE
8
BLACK
6
CONTINUOUS
10
136.1576579999999979
20
-107.5530600000000021
11
136.2837370000000021
21
-107.5192779999999999
0
LINE
8
BLACK
6
CONTINUOUS
10
136.2837370000000021
20
-107.5192779999999999
11
136.4142630000000054
21
-107.5192779999999999
0
LINE
8
BLACK
6
CONTINUOUS
10
136.4142630000000054
20
-107.5192779999999999
11
136.5403419999999812
21
-107.5530600000000021
0
LINE
8
BLACK
6
CONTINUOUS
10
145.180341999999996
20
-107.5530600000000021
11
145.2933809999999824
21
-107.6183229999999895
0
LINE
8
BLACK
6
CONTINUOUS
10
145.2933809999999824
20
-107.6183229999999895
11
145.3856769999999869
21
-107.7106189999999941
0
LINE
8
BLACK
6
CONTINUOUS
10
145.3856769999999869
20
-107.7106189999999941
11
145.4509400000000028
21
-107.8236579999999947
0
LINE
8
BLACK
6
CONTINUOUS
10
145.4509400000000028
20
-107.8236579999999947
11
145.484722000000005
21
-107.9497369999999989
0
LINE
8
BLACK
6
CONTINUOUS
10
145.484722000000005
20
-107.9497369999999989
11
145.4890000000000043
21
-108.0150000000000006
0
LINE
8
BLACK
6
CONTINUOUS
10
145.4890000000000043
20
-108.0150000000000006
11
145.4890000000000043
21
-109.1149999999999949
0
LINE
8
BLACK
6
CONTINUOUS
10
145.4890000000000043
20
-109.1149999999999949
11
145.484722000000005
21
-109.1802629999999965
0
LINE
8
BLACK
6
CONTINUOUS
10
145.484722000000005
20
-109.1802629999999965
11
145.4509400000000028
21
-109.3063420000000008
0
LINE
8
BLACK
6
CONTINUOUS
10
145.4509400000000028
20
-109.3063420000000008
11
145.3856769999999869
21
-109.4193810000000013
0
LINE
8
BLACK
6
CONTINUOUS
10
145.3856769999999869
20
-109.4193810000000013
11
145.2933809999999824
21
-109.5116769999999917
0
LINE
8
BLACK
6
CONTINUOUS
10
145.2933809999999824
20
-109.5116769999999917
11
145.180341999999996
21
-109.5769399999999933
0
LINE
8
BLACK
6
CONTINUOUS
10
145.180341999999996
20
-109.5769399999999933
11
145.0542629999999917
21
-109.6107219999999955
0
LINE
8
BLACK
6
CONTINUOUS
10
145.0542629999999917
20
-109.6107219999999955
11
144.9237369999999885
21
-109.6107219999999955
0
LINE
8
BLACK
6
CONTINUOUS
10
144.9237369999999885
20
-109.6107219999999955
11
144.7976579999999842
21
-109.5769399999999933
0
LINE
8
BLACK
6
CONTINUOUS
10
144.7976579999999842
20
-109.5769399999999933
11
144.6846189999999979
21
-109.5116769999999917
0
LINE
8
BLACK
6
CONTINUOUS
10
144.6846189999999979
20
-109.5116769999999917
11
144.5923229999999933
21
-109.4193810000000013
0
LINE
8
BLACK
6
CONTINUOUS
10
144.5923229999999933
20
-109.4193810000000013
11
144.5270600000000059
21
-109.3063420000000008
0
LINE
8
BLACK
6
CONTINUOUS
10
144.5270600000000059
20
-109.3063420000000008
11
144.4932780000000037
21
-109.1802629999999965
0
LINE
8
BLACK
6
CONTINUOUS
10
144.4932780000000037
20
-109.1802629999999965
11
144.4890000000000043
21
-109.1149999999999949
0
LINE
8
BLACK
6
CONTINUOUS
10
144.4890000000000043
20
-109.1149999999999949
11
144.4890000000000043
21
-108.0150000000000006
0
LINE
8
BLACK
6
CONTINUOUS
10
144.4890000000000043
20
-108.0150000000000006
11
144.4932780000000037
21
-107.9497369999999989
0
LINE
8
BLACK
6
CONTINUOUS
10
144.4932780000000037
20
-107.9497369999999989
11
144.5270600000000059
21
-107.8236579999999947
0
LINE
8
BLACK
6
CONTINUOUS
10
144.5270600000000059
20
-107.8236579999999947
11
144.5923229999999933
21
-107.7106189999999941
0
LINE
8
BLACK
6
CONTINUOUS
10
144.5923229999999933
20
-107.7106189999999941
11
144.6846189999999979
21
-107.6183229999999895
0
LINE
8
BLACK
6
CONTINUOUS
10
144.6846189999999979
20
-107.6183229999999895
11
144.7976579999999842
21
-107.5530600000000021
0
LINE
8
BLACK
6
CONTINUOUS
10
144.7976579999999842
20
-107.5530600000000021
11
144.9237369999999885
21
-107.5192779999999999
0
LINE
8
BLACK
6
CONTINUOUS
10
144.9237369999999885
20
-107.5192779999999999
11
145.0542629999999917
21
-107.5192779999999999
0
LINE
8
BLACK
6
CONTINUOUS
10
145.0542629999999917
20
-107.5192779999999999
11
145.180341999999996
21
-107.5530600000000021
0
LINE
8
BLACK
6
CONTINUOUS
10
137.6764029999999934
20
-107.4264179999999982
11
137.7250659999999982
21
-107.4589339999999993
0
LINE
8
BLACK
6
CONTINUOUS
10
137.7250659999999982
20
-107.4589339999999993
11
137.7575819999999851
21
-107.5075969999999899
0
LINE
8
BLACK
6
CONTINUOUS
10
137.7575819999999851
20
-107.5075969999999899
11
137.7690000000000055
21
-107.5649999999999977
0
LINE
8
BLACK
6
CONTINUOUS
10
137.7690000000000055
20
-107.5649999999999977
11
137.7690000000000055
21
-108.414999999999992
0
LINE
8
BLACK
6
CONTINUOUS
10
137.7690000000000055
20
-108.414999999999992
11
137.7575819999999851
21
-108.4724029999999999
0
LINE
8
BLACK
6
CONTINUOUS
10
137.7575819999999851
20
-108.4724029999999999
11
137.7250659999999982
21
-108.5210659999999905
0
LINE
8
BLACK
6
CONTINUOUS
10
137.7250659999999982
20
-108.5210659999999905
11
137.6764029999999934
21
-108.5535819999999916
0
LINE
8
BLACK
6
CONTINUOUS
10
137.6764029999999934
20
-108.5535819999999916
11
137.6189999999999998
21
-108.5649999999999977
0
LINE
8
BLACK
6
CONTINUOUS
10
137.6189999999999998
20
-108.5649999999999977
11
137.3189999999999884
21
-108.5649999999999977
0
LINE
8
BLACK
6
CONTINUOUS
10
137.3189999999999884
20
-108.5649999999999977
11
137.2615969999999948
21
-108.5535819999999916
0
LINE
8
BLACK
6
CONTINUOUS
10
137.2615969999999948
20
-108.5535819999999916
11
137.21293399999999
21
-108.5210659999999905
0
LINE
8
BLACK
6
CONTINUOUS
10
137.21293399999999
20
-108.5210659999999905
11
137.1804180000000031
21
-108.4724029999999999
0
LINE
8
BLACK
6
CONTINUOUS
10
137.1804180000000031
20
-108.4724029999999999
11
137.1689999999999827
21
-108.414999999999992
0
LINE
8
BLACK
6
CONTINUOUS
10
137.1689999999999827
20
-108.414999999999992
11
137.1689999999999827
21
-107.5649999999999977
0
LINE
8
BLACK
6
CONTINUOUS
10
137.1689999999999827
20
-107.5649999999999977
11
137.1804180000000031
21
-107.5075969999999899
0
LINE
8
BLACK
6
CONTINUOUS
10
137.1804180000000031
20
-107.5075969999999899
11
137.21293399999999
21
-107.4589339999999993
0
LINE
8
BLACK
6
CONTINUOUS
10
137.21293399999999
20
-107.4589339999999993
11
137.2615969999999948
21
-107.4264179999999982
0
LINE
8
BLACK
6
CONTINUOUS
10
137.2615969999999948
20
-107.4264179999999982
11
137.3189999999999884
21
-107.414999999999992
0
LINE
8
BLACK
6
CONTINUOUS
10
137.3189999999999884
20
-107.414999999999992
11
137.6189999999999998
21
-107.414999999999992
0
LINE
8
BLACK
6
CONTINUOUS
10
137.6189999999999998
20
-107.414999999999992
11
137.6764029999999934
21
-107.4264179999999982
0
LINE
8
BLACK
6
CONTINUOUS
10
138.4764030000000048
20
-107.4264179999999982
11
138.5250659999999812
21
-107.4589339999999993
0
LINE
8
BLACK
6
CONTINUOUS
10
138.5250659999999812
20
-107.4589339999999993
11
138.5575819999999965
21
-107.5075969999999899
0
LINE
8
BLACK
6
CONTINUOUS
10
138.5575819999999965
20
-107.5075969999999899
11
138.5689999999999884
21
-107.5649999999999977
0
LINE
8
BLACK
6
CONTINUOUS
10
138.5689999999999884
20
-107.5649999999999977
11
138.5689999999999884
21
-108.414999999999992
0
LINE
8
BLACK
6
CONTINUOUS
10
138.5689999999999884
20
-108.414999999999992
11
138.5575819999999965
21
-108.4724029999999999
0
LINE
8
BLACK
6
CONTINUOUS
10
138.5575819999999965
20
-108.4724029999999999
11
138.5250659999999812
21
-108.5210659999999905
0
LINE
8
BLACK
6
CONTINUOUS
10
138.5250659999999812
20
-108.5210659999999905
11
138.4764030000000048
21
-108.5535819999999916
0
LINE
8
BLACK
6
CONTINUOUS
10
138.4764030000000048
20
-108.5535819999999916
11
138.4189999999999827
21
-108.5649999999999977
0
LINE
8
BLACK
6
CONTINUOUS
10
138.4189999999999827
20
-108.5649999999999977
11
138.1189999999999998
21
-108.5649999999999977
0
LINE
8
BLACK
6
CONTINUOUS
10
138.1189999999999998
20
-108.5649999999999977
11
138.0615970000000061
21
-108.5535819999999916
0
LINE
8
BLACK
6
CONTINUOUS
10
138.0615970000000061
20
-108.5535819999999916
11
138.0129340000000013
21
-108.5210659999999905
0
LINE
8
BLACK
6
CONTINUOUS
10
138.0129340000000013
20
-108.5210659999999905
11
137.980417999999986
21
-108.4724029999999999
0
LINE
8
BLACK
6
CONTINUOUS
10
137.980417999999986
20
-108.4724029999999999
11
137.9689999999999941
21
-108.414999999999992
0
LINE
8
BLACK
6
CONTINUOUS
10
137.9689999999999941
20
-108.414999999999992
11
137.9689999999999941
21
-107.5649999999999977
0
LINE
8
BLACK
6
CONTINUOUS
10
137.9689999999999941
20
-107.5649999999999977
11
137.980417999999986
21
-107.5075969999999899
0
LINE
8
BLACK
6
CONTINUOUS
10
137.980417999999986
20
-107.5075969999999899
11
138.0129340000000013
21
-107.4589339999999993
0
LINE
8
BLACK
6
CONTINUOUS
10
138.0129340000000013
20
-107.4589339999999993
11
138.0615970000000061
21
-107.4264179999999982
0
LINE
8
BLACK
6
CONTINUOUS
10
138.0615970000000061
20
-107.4264179999999982
11
138.1189999999999998
21
-107.414999999999992
0
LINE
8
BLACK
6
CONTINUOUS
10
138.1189999999999998
20
-107.414999999999992
11
138.4189999999999827
21
-107.414999999999992
0
LINE
8
BLACK
6
CONTINUOUS
10
138.4189999999999827
20
-107.414999999999992
11
138.4764030000000048
21
-107.4264179999999982
0
LINE
8
BLACK
6
CONTINUOUS
10
139.0227009999999837
20
-107.4207090000000022
11
139.047032999999999
21
-107.4369669999999957
0
LINE
8
BLACK
6
CONTINUOUS
10
139.047032999999999
20
-107.4369669999999957
11
139.0632909999999924
21
-107.4612989999999968
0
LINE
8
BLACK
6
CONTINUOUS
10
139.0632909999999924
20
-107.4612989999999968
11
139.0689999999999884
21
-107.4899999999999949
0
LINE
8
BLACK
6
CONTINUOUS
10
139.0689999999999884
20
-107.4899999999999949
11
139.0689999999999884
21
-108.4899999999999949
0
LINE
8
BLACK
6
CONTINUOUS
10
139.0689999999999884
20
-108.4899999999999949
11
139.0632909999999924
21
-108.518700999999993
0
LINE
8
BLACK
6
CONTINUOUS
10
139.0632909999999924
20
-108.518700999999993
11
139.047032999999999
21
-108.5430329999999941
0
LINE
8
BLACK
6
CONTINUOUS
10
139.047032999999999
20
-108.5430329999999941
11
139.0227009999999837
21
-108.5592910000000018
0
LINE
8
BLACK
6
CONTINUOUS
10
139.0227009999999837
20
-108.5592910000000018
11
138.9939999999999998
21
-108.5649999999999977
0
LINE
8
BLACK
6
CONTINUOUS
10
138.9939999999999998
20
-108.5649999999999977
11
138.8439999999999941
21
-108.5649999999999977
0
LINE
8
BLACK
6
CONTINUOUS
10
138.8439999999999941
20
-108.5649999999999977
11
138.8152989999999818
21
-108.5592910000000018
0
LINE
8
BLACK
6
CONTINUOUS
10
138.8152989999999818
20
-108.5592910000000018
11
138.7909669999999949
21
-108.5430329999999941
0
LINE
8
BLACK
6
CONTINUOUS
10
138.7909669999999949
20
-108.5430329999999941
11
138.7747090000000014
21
-108.518700999999993
0
LINE
8
BLACK
6
CONTINUOUS
10
138.7747090000000014
20
-108.518700999999993
11
138.7690000000000055
21
-108.4899999999999949
0
LINE
8
BLACK
6
CONTINUOUS
10
138.7690000000000055
20
-108.4899999999999949
11
138.7690000000000055
21
-107.4899999999999949
0
LINE
8
BLACK
6
CONTINUOUS
10
138.7690000000000055
20
-107.4899999999999949
11
138.7747090000000014
21
-107.4612989999999968
0
LINE
8
BLACK
6
CONTINUOUS
10
138.7747090000000014
20
-107.4612989999999968
11
138.7909669999999949
21
-107.4369669999999957
0
LINE
8
BLACK
6
CONTINUOUS
10
138.7909669999999949
20
-107.4369669999999957
11
138.8152989999999818
21
-107.4207090000000022
0
LINE
8
BLACK
6
CONTINUOUS
10
138.8152989999999818
20
-107.4207090000000022
11
138.8439999999999941
21
-107.414999999999992
0
LINE
8
BLACK
6
CONTINUOUS
10
138.8439999999999941
20
-107.414999999999992
11
138.9939999999999998
21
-107.414999999999992
0
LINE
8
BLACK
6
CONTINUOUS
10
138.9939999999999998
20
-107.414999999999992
11
139.0227009999999837
21
-107.4207090000000022
0
LINE
8
BLACK
6
CONTINUOUS
10
139.5227009999999837
20
-107.4207090000000022
11
139.547032999999999
21
-107.4369669999999957
0
LINE
8
BLACK
6
CONTINUOUS
10
139.547032999999999
20
-107.4369669999999957
11
139.5632909999999924
21
-107.4612989999999968
0
LINE
8
BLACK
6
CONTINUOUS
10
139.5632909999999924
20
-107.4612989999999968
11
139.5689999999999884
21
-107.4899999999999949
0
LINE
8
BLACK
6
CONTINUOUS
10
139.5689999999999884
20
-107.4899999999999949
11
139.5689999999999884
21
-108.4899999999999949
0
LINE
8
BLACK
6
CONTINUOUS
10
139.5689999999999884
20
-108.4899999999999949
11
139.5632909999999924
21
-108.518700999999993
0
LINE
8
BLACK
6
CONTINUOUS
10
139.5632909999999924
20
-108.518700999999993
11
139.547032999999999
21
-108.5430329999999941
0
LINE
8
BLACK
6
CONTINUOUS
10
139.547032999999999
20
-108.5430329999999941
11
139.5227009999999837
21
-108.5592910000000018
0
LINE
8
BLACK
6
CONTINUOUS
10
139.5227009999999837
20
-108.5592910000000018
11
139.4939999999999998
21
-108.5649999999999977
0
LINE
8
BLACK
6
CONTINUOUS
10
139.4939999999999998
20
-108.5649999999999977
11
139.3439999999999941
21
-108.5649999999999977
0
LINE
8
BLACK
6
CONTINUOUS
10
139.3439999999999941
20
-108.5649999999999977
11
139.3152989999999818
21
-108.5592910000000018
0
LINE
8
BLACK
6
CONTINUOUS
10
139.3152989999999818
20
-108.5592910000000018
11
139.2909669999999949
21
-108.5430329999999941
0
LINE
8
BLACK
6
CONTINUOUS
10
139.2909669999999949
20
-108.5430329999999941
11
139.2747090000000014
21
-108.518700999999993
0
LINE
8
BLACK
6
CONTINUOUS
10
139.2747090000000014
20
-108.518700999999993
11
139.2690000000000055
21
-108.4899999999999949
0
LINE
8
BLACK
6
CONTINUOUS
10
139.2690000000000055
20
-108.4899999999999949
11
139.2690000000000055
21
-107.4899999999999949
0
LINE
8
BLACK
6
CONTINUOUS
10
139.2690000000000055
20
-107.4899999999999949
11
139.2747090000000014
21
-107.4612989999999968
0
LINE
8
BLACK
6
CONTINUOUS
10
139.2747090000000014
20
-107.4612989999999968
11
139.2909669999999949
21
-107.4369669999999957
0
LINE
8
BLACK
6
CONTINUOUS
10
139.2909669999999949
20
-107.4369669999999957
11
139.3152989999999818
21
-107.4207090000000022
0
LINE
8
BLACK
6
CONTINUOUS
10
139.3152989999999818
20
-107.4207090000000022
11
139.3439999999999941
21
-107.414999999999992
0
LINE
8
BLACK
6
CONTINUOUS
10
139.3439999999999941
20
-107.414999999999992
11
139.4939999999999998
21
-107.414999999999992
0
LINE
8
BLACK
6
CONTINUOUS
10
139.4939999999999998
20
-107.414999999999992
11
139.5227009999999837
21
-107.4207090000000022
0
LINE
8
BLACK
6
CONTINUOUS
10
140.0227009999999837
20
-107.4207090000000022
11
140.047032999999999
21
-107.4369669999999957
0
LINE
8
BLACK
6
CONTINUOUS
10
140.047032999999999
20
-107.4369669999999957
11
140.0632909999999924
21
-107.4612989999999968
0
LINE
8
BLACK
6
CONTINUOUS
10
140.0632909999999924
20
-107.4612989999999968
11
140.0689999999999884
21
-107.4899999999999949
0
LINE
8
BLACK
6
CONTINUOUS
10
140.0689999999999884
20
-107.4899999999999949
11
140.0689999999999884
21
-108.4899999999999949
0
LINE
8
BLACK
6
CONTINUOUS
10
140.0689999999999884
20
-108.4899999999999949
11
140.0632909999999924
21
-108.518700999999993
0
LINE
8
BLACK
6
CONTINUOUS
10
140.0632909999999924
20
-108.518700999999993
11
140.047032999999999
21
-108.5430329999999941
0
LINE
8
BLACK
6
CONTINUOUS
10
140.047032999999999
20
-108.5430329999999941
11
140.0227009999999837
21
-108.5592910000000018
0
LINE
8
BLACK
6
CONTINUOUS
10
140.0227009999999837
20
-108.5592910000000018
11
139.9939999999999998
21
-108.5649999999999977
0
LINE
8
BLACK
6
CONTINUOUS
10
139.9939999999999998
20
-108.5649999999999977
11
139.8439999999999941
21
-108.5649999999999977
0
LINE
8
BLACK
6
CONTINUOUS
10
139.8439999999999941
20
-108.5649999999999977
11
139.8152989999999818
21
-108.5592910000000018
0
LINE
8
BLACK
6
CONTINUOUS
10
139.8152989999999818
20
-108.5592910000000018
11
139.7909669999999949
21
-108.5430329999999941
0
LINE
8
BLACK
6
CONTINUOUS
10
139.7909669999999949
20
-108.5430329999999941
11
139.7747090000000014
21
-108.518700999999993
0
LINE
8
BLACK
6
CONTINUOUS
10
139.7747090000000014
20
-108.518700999999993
11
139.7690000000000055
21
-108.4899999999999949
0
LINE
8
BLACK
6
CONTINUOUS
10
139.7690000000000055
20
-108.4899999999999949
11
139.7690000000000055
21
-107.4899999999999949
0
LINE
8
BLACK
6
CONTINUOUS
10
139.7690000000000055
20
-107.4899999999999949
11
139.7747090000000014
21
-107.4612989999999968
0
LINE
8
BLACK
6
CONTINUOUS
10
139.7747090000000014
20
-107.4612989999999968
11
139.7909669999999949
21
-107.4369669999999957
0
LINE
8
BLACK
6
CONTINUOUS
10
139.7909669999999949
20
-107.4369669999999957
11
139.8152989999999818
21
-107.4207090000000022
0
LINE
8
BLACK
6
CONTINUOUS
10
139.8152989999999818
20
-107.4207090000000022
11
139.8439999999999941
21
-107.414999999999992
0
LINE
8
BLACK
6
CONTINUOUS
10
139.8439999999999941
20
-107.414999999999992
11
139.9939999999999998
21
-107.414999999999992
0
LINE
8
BLACK
6
CONTINUOUS
10
139.9939999999999998
20
-107.414999999999992
11
140.0227009999999837
21
-107.4207090000000022
0
LINE
8
BLACK
6
CONTINUOUS
10
140.5227009999999837
20
-107.4207090000000022
11
140.547032999999999
21
-107.4369669999999957
0
LINE
8
BLACK
6
CONTINUOUS
10
140.547032999999999
20
-107.4369669999999957
11
140.5632909999999924
21
-107.4612989999999968
0
LINE
8
BLACK
6
CONTINUOUS
10
140.5632909999999924
20
-107.4612989999999968
11
140.5689999999999884
21
-107.4899999999999949
0
LINE
8
BLACK
6
CONTINUOUS
10
140.5689999999999884
20
-107.4899999999999949
11
140.5689999999999884
21
-108.4899999999999949
0
LINE
8
BLACK
6
CONTINUOUS
10
140.5689999999999884
20
-108.4899999999999949
11
140.5632909999999924
21
-108.518700999999993
0
LINE
8
BLACK
6
CONTINUOUS
10
140.5632909999999924
20
-108.518700999999993
11
140.547032999999999
21
-108.5430329999999941
0
LINE
8
BLACK
6
CONTINUOUS
10
140.547032999999999
20
-108.5430329999999941
11
140.5227009999999837
21
-108.5592910000000018
0
LINE
8
BLACK
6
CONTINUOUS
10
140.5227009999999837
20
-108.5592910000000018
11
140.4939999999999998
21
-108.5649999999999977
0
LINE
8
BLACK
6
CONTINUOUS
10
140.4939999999999998
20
-108.5649999999999977
11
140.3439999999999941
21
-108.5649999999999977
0
LINE
8
BLACK
6
CONTINUOUS
10
140.3439999999999941
20
-108.5649999999999977
11
140.3152989999999818
21
-108.5592910000000018
0
LINE
8
BLACK
6
CONTINUOUS
10
140.3152989999999818
20
-108.5592910000000018
11
140.2909669999999949
21
-108.5430329999999941
0
LINE
8
BLACK
6
CONTINUOUS
10
140.2909669999999949
20
-108.5430329999999941
11
140.2747090000000014
21
-108.518700999999993
0
LINE
8
BLACK
6
CONTINUOUS
10
140.2747090000000014
20
-108.518700999999993
11
140.2690000000000055
21
-108.4899999999999949
0
LINE
8
BLACK
6
CONTINUOUS
10
140.2690000000000055
20
-108.4899999999999949
11
140.2690000000000055
21
-107.4899999999999949
0
LINE
8
BLACK
6
CONTINUOUS
10
140.2690000000000055
20
-107.4899999999999949
11
140.2747090000000014
21
-107.4612989999999968
0
LINE
8
BLACK
6
CONTINUOUS
10
140.2747090000000014
20
-107.4612989999999968
11
140.2909669999999949
21
-107.4369669999999957
0
LINE
8
BLACK
6
CONTINUOUS
10
140.2909669999999949
20
-107.4369669999999957
11
140.3152989999999818
21
-107.4207090000000022
0
LINE
8
BLACK
6
CONTINUOUS
10
140.3152989999999818
20
-107.4207090000000022
11
140.3439999999999941
21
-107.414999999999992
0
LINE
8
BLACK
6
CONTINUOUS
10
140.3439999999999941
20
-107.414999999999992
11
140.4939999999999998
21
-107.414999999999992
0
LINE
8
BLACK
6
CONTINUOUS
10
140.4939999999999998
20
-107.414999999999992
11
140.5227009999999837
21
-107.4207090000000022
0
LINE
8
BLACK
6
CONTINUOUS
10
141.0227009999999837
20
-107.4207090000000022
11
141.047032999999999
21
-107.4369669999999957
0
LINE
8
BLACK
6
CONTINUOUS
10
141.047032999999999
20
-107.4369669999999957
11
141.0632909999999924
21
-107.4612989999999968
0
LINE
8
BLACK
6
CONTINUOUS
10
141.0632909999999924
20
-107.4612989999999968
11
141.0689999999999884
21
-107.4899999999999949
0
LINE
8
BLACK
6
CONTINUOUS
10
141.0689999999999884
20
-107.4899999999999949
11
141.0689999999999884
21
-108.4899999999999949
0
LINE
8
BLACK
6
CONTINUOUS
10
141.0689999999999884
20
-108.4899999999999949
11
141.0632909999999924
21
-108.518700999999993
0
LINE
8
BLACK
6
CONTINUOUS
10
141.0632909999999924
20
-108.518700999999993
11
141.047032999999999
21
-108.5430329999999941
0
LINE
8
BLACK
6
CONTINUOUS
10
141.047032999999999
20
-108.5430329999999941
11
141.0227009999999837
21
-108.5592910000000018
0
LINE
8
BLACK
6
CONTINUOUS
10
141.0227009999999837
20
-108.5592910000000018
11
140.9939999999999998
21
-108.5649999999999977
0
LINE
8
BLACK
6
CONTINUOUS
10
140.9939999999999998
20
-108.5649999999999977
11
140.8439999999999941
21
-108.5649999999999977
0
LINE
8
BLACK
6
CONTINUOUS
10
140.8439999999999941
20
-108.5649999999999977
11
140.8152989999999818
21
-108.5592910000000018
0
LINE
8
BLACK
6
CONTINUOUS
10
140.8152989999999818
20
-108.5592910000000018
11
140.7909669999999949
21
-108.5430329999999941
0
LINE
8
BLACK
6
CONTINUOUS
10
140.7909669999999949
20
-108.5430329999999941
11
140.7747090000000014
21
-108.518700999999993
0
LINE
8
BLACK
6
CONTINUOUS
10
140.7747090000000014
20
-108.518700999999993
11
140.7690000000000055
21
-108.4899999999999949
0
LINE
8
BLACK
6
CONTINUOUS
10
140.7690000000000055
20
-108.4899999999999949
11
140.7690000000000055
21
-107.4899999999999949
0
LINE
8
BLACK
6
CONTINUOUS
10
140.7690000000000055
20
-107.4899999999999949
11
140.7747090000000014
21
-107.4612989999999968
0
LINE
8
BLACK
6
CONTINUOUS
10
140.7747090000000014
20
-107.4612989999999968
11
140.7909669999999949
21
-107.4369669999999957
0
LINE
8
BLACK
6
CONTINUOUS
10
140.7909669999999949
20
-107.4369669999999957
11
140.8152989999999818
21
-107.4207090000000022
0
LINE
8
BLACK
6
CONTINUOUS
10
140.8152989999999818
20
-107.4207090000000022
11
140.8439999999999941
21
-107.414999999999992
0
LINE
8
BLACK
6
CONTINUOUS
10
140.8439999999999941
20
-107.414999999999992
11
140.9939999999999998
21
-107.414999999999992
0
LINE
8
BLACK
6
CONTINUOUS
10
140.9939999999999998
20
-107.414999999999992
11
141.0227009999999837
21
-107.4207090000000022
0
LINE
8
BLACK
6
CONTINUOUS
10
141.5227009999999837
20
-107.4207090000000022
11
141.547032999999999
21
-107.4369669999999957
0
LINE
8
BLACK
6
CONTINUOUS
10
141.547032999999999
20
-107.4369669999999957
11
141.5632909999999924
21
-107.4612989999999968
0
LINE
8
BLACK
6
CONTINUOUS
10
141.5632909999999924
20
-107.4612989999999968
11
141.5689999999999884
21
-107.4899999999999949
0
LINE
8
BLACK
6
CONTINUOUS
10
141.5689999999999884
20
-107.4899999999999949
11
141.5689999999999884
21
-108.4899999999999949
0
LINE
8
BLACK
6
CONTINUOUS
10
141.5689999999999884
20
-108.4899999999999949
11
141.5632909999999924
21
-108.518700999999993
0
LINE
8
BLACK
6
CONTINUOUS
10
141.5632909999999924
20
-108.518700999999993
11
141.547032999999999
21
-108.5430329999999941
0
LINE
8
BLACK
6
CONTINUOUS
10
141.547032999999999
20
-108.5430329999999941
11
141.5227009999999837
21
-108.5592910000000018
0
LINE
8
BLACK
6
CONTINUOUS
10
141.5227009999999837
20
-108.5592910000000018
11
141.4939999999999998
21
-108.5649999999999977
0
LINE
8
BLACK
6
CONTINUOUS
10
141.4939999999999998
20
-108.5649999999999977
11
141.3439999999999941
21
-108.5649999999999977
0
LINE
8
BLACK
6
CONTINUOUS
10
141.3439999999999941
20
-108.5649999999999977
11
141.3152989999999818
21
-108.5592910000000018
0
LINE
8
BLACK
6
CONTINUOUS
10
141.3152989999999818
20
-108.5592910000000018
11
141.2909669999999949
21
-108.5430329999999941
0
LINE
8
BLACK
6
CONTINUOUS
10
141.2909669999999949
20
-108.5430329999999941
11
141.2747090000000014
21
-108.518700999999993
0
LINE
8
BLACK
6
CONTINUOUS
10
141.2747090000000014
20
-108.518700999999993
11
141.2690000000000055
21
-108.4899999999999949
0
LINE
8
BLACK
6
CONTINUOUS
10
141.2690000000000055
20
-108.4899999999999949
11
141.2690000000000055
21
-107.4899999999999949
0
LINE
8
BLACK
6
CONTINUOUS
10
141.2690000000000055
20
-107.4899999999999949
11
141.2747090000000014
21
-107.4612989999999968
0
LINE
8
BLACK
6
CONTINUOUS
10
141.2747090000000014
20
-107.4612989999999968
11
141.2909669999999949
21
-107.4369669999999957
0
LINE
8
BLACK
6
CONTINUOUS
10
141.2909669999999949
20
-107.4369669999999957
11
141.3152989999999818
21
-107.4207090000000022
0
LINE
8
BLACK
6
CONTINUOUS
10
141.3152989999999818
20
-107.4207090000000022
11
141.3439999999999941
21
-107.414999999999992
0
LINE
8
BLACK
6
CONTINUOUS
10
141.3439999999999941
20
-107.414999999999992
11
141.4939999999999998
21
-107.414999999999992
0
LINE
8
BLACK
6
CONTINUOUS
10
141.4939999999999998
20
-107.414999999999992
11
141.5227009999999837
21
-107.4207090000000022
0
LINE
8
BLACK
6
CONTINUOUS
10
142.0227009999999837
20
-107.4207090000000022
11
142.047032999999999
21
-107.4369669999999957
0
LINE
8
BLACK
6
CONTINUOUS
10
142.047032999999999
20
-107.4369669999999957
11
142.0632909999999924
21
-107.4612989999999968
0
LINE
8
BLACK
6
CONTINUOUS
10
142.0632909999999924
20
-107.4612989999999968
11
142.0689999999999884
21
-107.4899999999999949
0
LINE
8
BLACK
6
CONTINUOUS
10
142.0689999999999884
20
-107.4899999999999949
11
142.0689999999999884
21
-108.4899999999999949
0
LINE
8
BLACK
6
CONTINUOUS
10
142.0689999999999884
20
-108.4899999999999949
11
142.0632909999999924
21
-108.518700999999993
0
LINE
8
BLACK
6
CONTINUOUS
10
142.0632909999999924
20
-108.518700999999993
11
142.047032999999999
21
-108.5430329999999941
0
LINE
8
BLACK
6
CONTINUOUS
10
142.047032999999999
20
-108.5430329999999941
11
142.0227009999999837
21
-108.5592910000000018
0
LINE
8
BLACK
6
CONTINUOUS
10
142.0227009999999837
20
-108.5592910000000018
11
141.9939999999999998
21
-108.5649999999999977
0
LINE
8
BLACK
6
CONTINUOUS
10
141.9939999999999998
20
-108.5649999999999977
11
141.8439999999999941
21
-108.5649999999999977
0
LINE
8
BLACK
6
CONTINUOUS
10
141.8439999999999941
20
-108.5649999999999977
11
141.8152989999999818
21
-108.5592910000000018
0
LINE
8
BLACK
6
CONTINUOUS
10
141.8152989999999818
20
-108.5592910000000018
11
141.7909669999999949
21
-108.5430329999999941
0
LINE
8
BLACK
6
CONTINUOUS
10
141.7909669999999949
20
-108.5430329999999941
11
141.7747090000000014
21
-108.518700999999993
0
LINE
8
BLACK
6
CONTINUOUS
10
141.7747090000000014
20
-108.518700999999993
11
141.7690000000000055
21
-108.4899999999999949
0
LINE
8
BLACK
6
CONTINUOUS
10
141.7690000000000055
20
-108.4899999999999949
11
141.7690000000000055
21
-107.4899999999999949
0
LINE
8
BLACK
6
CONTINUOUS
10
141.7690000000000055
20
-107.4899999999999949
11
141.7747090000000014
21
-107.4612989999999968
0
LINE
8
BLACK
6
CONTINUOUS
10
141.7747090000000014
20
-107.4612989999999968
11
141.7909669999999949
21
-107.4369669999999957
0
LINE
8
BLACK
6
CONTINUOUS
10
141.7909669999999949
20
-107.4369669999999957
11
141.8152989999999818
21
-107.4207090000000022
0
LINE
8
BLACK
6
CONTINUOUS
10
141.8152989999999818
20
-107.4207090000000022
11
141.8439999999999941
21
-107.414999999999992
0
LINE
8
BLACK
6
CONTINUOUS
10
141.8439999999999941
20
-107.414999999999992
11
141.9939999999999998
21
-107.414999999999992
0
LINE
8
BLACK
6
CONTINUOUS
10
141.9939999999999998
20
-107.414999999999992
11
142.0227009999999837
21
-107.4207090000000022
0
LINE
8
BLACK
6
CONTINUOUS
10
142.5227009999999837
20
-107.4207090000000022
11
142.547032999999999
21
-107.4369669999999957
0
LINE
8
BLACK
6
CONTINUOUS
10
142.547032999999999
20
-107.4369669999999957
11
142.5632909999999924
21
-107.4612989999999968
0
LINE
8
BLACK
6
CONTINUOUS
10
142.5632909999999924
20
-107.4612989999999968
11
142.5689999999999884
21
-107.4899999999999949
0
LINE
8
BLACK
6
CONTINUOUS
10
142.5689999999999884
20
-107.4899999999999949
11
142.5689999999999884
21
-108.4899999999999949
0
LINE
8
BLACK
6
CONTINUOUS
10
142.5689999999999884
20
-108.4899999999999949
11
142.5632909999999924
21
-108.518700999999993
0
LINE
8
BLACK
6
CONTINUOUS
10
142.5632909999999924
20
-108.518700999999993
11
142.547032999999999
21
-108.5430329999999941
0
LINE
8
BLACK
6
CONTINUOUS
10
142.547032999999999
20
-108.5430329999999941
11
142.5227009999999837
21
-108.5592910000000018
0
LINE
8
BLACK
6
CONTINUOUS
10
142.5227009999999837
20
-108.5592910000000018
11
142.4939999999999998
21
-108.5649999999999977
0
LINE
8
BLACK
6
CONTINUOUS
10
142.4939999999999998
20
-108.5649999999999977
11
142.3439999999999941
21
-108.5649999999999977
0
LINE
8
BLACK
6
CONTINUOUS
10
142.3439999999999941
20
-108.5649999999999977
11
142.3152989999999818
21
-108.5592910000000018
0
LINE
8
BLACK
6
CONTINUOUS
10
142.3152989999999818
20
-108.5592910000000018
11
142.2909669999999949
21
-108.5430329999999941
0
LINE
8
BLACK
6
CONTINUOUS
10
142.2909669999999949
20
-108.5430329999999941
11
142.2747090000000014
21
-108.518700999999993
0
LINE
8
BLACK
6
CONTINUOUS
10
142.2747090000000014
20
-108.518700999999993
11
142.2690000000000055
21
-108.4899999999999949
0
LINE
8
BLACK
6
CONTINUOUS
10
142.2690000000000055
20
-108.4899999999999949
11
142.2690000000000055
21
-107.4899999999999949
0
LINE
8
BLACK
6
CONTINUOUS
10
142.2690000000000055
20
-107.4899999999999949
11
142.2747090000000014
21
-107.4612989999999968
0
LINE
8
BLACK
6
CONTINUOUS
10
142.2747090000000014
20
-107.4612989999999968
11
142.2909669999999949
21
-107.4369669999999957
0
LINE
8
BLACK
6
CONTINUOUS
10
142.2909669999999949
20
-107.4369669999999957
11
142.3152989999999818
21
-107.4207090000000022
0
LINE
8
BLACK
6
CONTINUOUS
10
142.3152989999999818
20
-107.4207090000000022
11
142.3439999999999941
21
-107.414999999999992
0
LINE
8
BLACK
6
CONTINUOUS
10
142.3439999999999941
20
-107.414999999999992
11
142.4939999999999998
21
-107.414999999999992
0
LINE
8
BLACK
6
CONTINUOUS
10
142.4939999999999998
20
-107.414999999999992
11
142.5227009999999837
21
-107.4207090000000022
0
LINE
8
BLACK
6
CONTINUOUS
10
143.2764029999999877
20
-107.4264179999999982
11
143.3250659999999925
21
-107.4589339999999993
0
LINE
8
BLACK
6
CONTINUOUS
10
143.3250659999999925
20
-107.4589339999999993
11
143.3575819999999794
21
-107.5075969999999899
0
LINE
8
BLACK
6
CONTINUOUS
10
143.3575819999999794
20
-107.5075969999999899
11
143.3689999999999998
21
-107.5649999999999977
0
LINE
8
BLACK
6
CONTINUOUS
10
143.3689999999999998
20
-107.5649999999999977
11
143.3689999999999998
21
-108.414999999999992
0
LINE
8
BLACK
6
CONTINUOUS
10
143.3689999999999998
20
-108.414999999999992
11
143.3575819999999794
21
-108.4724029999999999
0
LINE
8
BLACK
6
CONTINUOUS
10
143.3575819999999794
20
-108.4724029999999999
11
143.3250659999999925
21
-108.5210659999999905
0
LINE
8
BLACK
6
CONTINUOUS
10
143.3250659999999925
20
-108.5210659999999905
11
143.2764029999999877
21
-108.5535819999999916
0
LINE
8
BLACK
6
CONTINUOUS
10
143.2764029999999877
20
-108.5535819999999916
11
143.2189999999999941
21
-108.5649999999999977
0
LINE
8
BLACK
6
CONTINUOUS
10
143.2189999999999941
20
-108.5649999999999977
11
142.9189999999999827
21
-108.5649999999999977
0
LINE
8
BLACK
6
CONTINUOUS
10
142.9189999999999827
20
-108.5649999999999977
11
142.8615969999999891
21
-108.5535819999999916
0
LINE
8
BLACK
6
CONTINUOUS
10
142.8615969999999891
20
-108.5535819999999916
11
142.8129339999999843
21
-108.5210659999999905
0
LINE
8
BLACK
6
CONTINUOUS
10
142.8129339999999843
20
-108.5210659999999905
11
142.7804179999999974
21
-108.4724029999999999
0
LINE
8
BLACK
6
CONTINUOUS
10
142.7804179999999974
20
-108.4724029999999999
11
142.7690000000000055
21
-108.414999999999992
0
LINE
8
BLACK
6
CONTINUOUS
10
142.7690000000000055
20
-108.414999999999992
11
142.7690000000000055
21
-107.5649999999999977
0
LINE
8
BLACK
6
CONTINUOUS
10
142.7690000000000055
20
-107.5649999999999977
11
142.7804179999999974
21
-107.5075969999999899
0
LINE
8
BLACK
6
CONTINUOUS
10
142.7804179999999974
20
-107.5075969999999899
11
142.8129339999999843
21
-107.4589339999999993
0
LINE
8
BLACK
6
CONTINUOUS
10
142.8129339999999843
20
-107.4589339999999993
11
142.8615969999999891
21
-107.4264179999999982
0
LINE
8
BLACK
6
CONTINUOUS
10
142.8615969999999891
20
-107.4264179999999982
11
142.9189999999999827
21
-107.414999999999992
0
LINE
8
BLACK
6
CONTINUOUS
10
142.9189999999999827
20
-107.414999999999992
11
143.2189999999999941
21
-107.414999999999992
0
LINE
8
BLACK
6
CONTINUOUS
10
143.2189999999999941
20
-107.414999999999992
11
143.2764029999999877
21
-107.4264179999999982
0
LINE
8
BLACK
6
CONTINUOUS
10
144.0764029999999991
20
-107.4264179999999982
11
144.1250660000000039
21
-107.4589339999999993
0
LINE
8
BLACK
6
CONTINUOUS
10
144.1250660000000039
20
-107.4589339999999993
11
144.1575819999999908
21
-107.5075969999999899
0
LINE
8
BLACK
6
CONTINUOUS
10
144.1575819999999908
20
-107.5075969999999899
11
144.1689999999999827
21
-107.5649999999999977
0
LINE
8
BLACK
6
CONTINUOUS
10
144.1689999999999827
20
-107.5649999999999977
11
144.1689999999999827
21
-108.414999999999992
0
LINE
8
BLACK
6
CONTINUOUS
10
144.1689999999999827
20
-108.414999999999992
11
144.1575819999999908
21
-108.4724029999999999
0
LINE
8
BLACK
6
CONTINUOUS
10
144.1575819999999908
20
-108.4724029999999999
11
144.1250660000000039
21
-108.5210659999999905
0
LINE
8
BLACK
6
CONTINUOUS
10
144.1250660000000039
20
-108.5210659999999905
11
144.0764029999999991
21
-108.5535819999999916
0
LINE
8
BLACK
6
CONTINUOUS
10
144.0764029999999991
20
-108.5535819999999916
11
144.0190000000000055
21
-108.5649999999999977
0
LINE
8
BLACK
6
CONTINUOUS
10
144.0190000000000055
20
-108.5649999999999977
11
143.7189999999999941
21
-108.5649999999999977
0
LINE
8
BLACK
6
CONTINUOUS
10
143.7189999999999941
20
-108.5649999999999977
11
143.6615970000000004
21
-108.5535819999999916
0
LINE
8
BLACK
6
CONTINUOUS
10
143.6615970000000004
20
-108.5535819999999916
11
143.6129339999999956
21
-108.5210659999999905
0
LINE
8
BLACK
6
CONTINUOUS
10
143.6129339999999956
20
-108.5210659999999905
11
143.5804179999999803
21
-108.4724029999999999
0
LINE
8
BLACK
6
CONTINUOUS
10
143.5804179999999803
20
-108.4724029999999999
11
143.5689999999999884
21
-108.414999999999992
0
LINE
8
BLACK
6
CONTINUOUS
10
143.5689999999999884
20
-108.414999999999992
11
143.5689999999999884
21
-107.5649999999999977
0
LINE
8
BLACK
6
CONTINUOUS
10
143.5689999999999884
20
-107.5649999999999977
11
143.5804179999999803
21
-107.5075969999999899
0
LINE
8
BLACK
6
CONTINUOUS
10
143.5804179999999803
20
-107.5075969999999899
11
143.6129339999999956
21
-107.4589339999999993
0
LINE
8
BLACK
6
CONTINUOUS
10
143.6129339999999956
20
-107.4589339999999993
11
143.6615970000000004
21
-107.4264179999999982
0
LINE
8
BLACK
6
CONTINUOUS
10
143.6615970000000004
20
-107.4264179999999982
11
143.7189999999999941
21
-107.414999999999992
0
LINE
8
BLACK
6
CONTINUOUS
10
143.7189999999999941
20
-107.414999999999992
11
144.0190000000000055
21
-107.414999999999992
0
LINE
8
BLACK
6
CONTINUOUS
10
144.0190000000000055
20
-107.414999999999992
11
144.0764029999999991
21
-107.4264179999999982
0
LINE
8
BLACK
6
CONTINUOUS
10
146.9410000000000025
20
-106.2219999999999942
11
143.4410000000000025
21
-106.2219999999999942
0
LINE
8
BLACK
6
CONTINUOUS
10
143.4410000000000025
20
-106.2219999999999942
11
143.4410000000000025
21
-103.421999999999997
0
LINE
8
BLACK
6
CONTINUOUS
10
143.4410000000000025
20
-103.421999999999997
11
146.9410000000000025
21
-103.421999999999997
0
LINE
8
BLACK
6
CONTINUOUS
10
146.9410000000000025
20
-103.421999999999997
11
146.9410000000000025
21
-106.2219999999999942
0
LINE
8
BLACK
6
CONTINUOUS
10
142.4259999999999877
20
-106.2109999999999985
11
138.9259999999999877
21
-106.2109999999999985
0
LINE
8
BLACK
6
CONTINUOUS
10
138.9259999999999877
20
-106.2109999999999985
11
138.9259999999999877
21
-103.4110000000000014
0
LINE
8
BLACK
6
CONTINUOUS
10
138.9259999999999877
20
-103.4110000000000014
11
142.4259999999999877
21
-103.4110000000000014
0
LINE
8
BLACK
6
CONTINUOUS
10
142.4259999999999877
20
-103.4110000000000014
11
142.4259999999999877
21
-106.2109999999999985
0
LINE
8
BLACK
6
CONTINUOUS
10
137.936000000000007
20
-106.1999999999999886
11
134.436000000000007
21
-106.1999999999999886
0
LINE
8
BLACK
6
CONTINUOUS
10
134.436000000000007
20
-106.1999999999999886
11
134.436000000000007
21
-103.3999999999999915
0
LINE
8
BLACK
6
CONTINUOUS
10
134.436000000000007
20
-103.3999999999999915
11
137.936000000000007
21
-103.3999999999999915
0
LINE
8
BLACK
6
CONTINUOUS
10
137.936000000000007
20
-103.3999999999999915
11
137.936000000000007
21
-106.1999999999999886
0
LINE
8
BLACK
6
CONTINUOUS
10
147.1837840000000028
20
-98.2084519999999941
11
147.1905480000000068
21
-98.2152159999999981
0
LINE
8
BLACK
6
CONTINUOUS
10
147.1905480000000068
20
-98.2152159999999981
11
147.1914999999999907
21
-98.2199999999999989
0
LINE
8
BLACK
6
CONTINUOUS
10
147.1914999999999907
20
-98.2199999999999989
11
147.1914999999999907
21
-101.2199999999999989
0
LINE
8
BLACK
6
CONTINUOUS
10
147.1914999999999907
20
-101.2199999999999989
11
147.1905480000000068
21
-101.2247839999999997
0
LINE
8
BLACK
6
CONTINUOUS
10
147.1905480000000068
20
-101.2247839999999997
11
147.1837840000000028
21
-101.2315479999999894
0
LINE
8
BLACK
6
CONTINUOUS
10
147.1837840000000028
20
-101.2315479999999894
11
147.179000000000002
21
-101.2325000000000017
0
LINE
8
BLACK
6
CONTINUOUS
10
147.179000000000002
20
-101.2325000000000017
11
142.179000000000002
21
-101.2325000000000017
0
LINE
8
BLACK
6
CONTINUOUS
10
142.179000000000002
20
-101.2325000000000017
11
142.1148189999999829
21
-101.2325000000000017
0
LINE
8
BLACK
6
CONTINUOUS
10
142.1148189999999829
20
-101.2325000000000017
11
141.9908319999999833
21
-101.2657219999999967
0
LINE
8
BLACK
6
CONTINUOUS
10
141.9908319999999833
20
-101.2657219999999967
11
141.879667999999981
21
-101.3299030000000016
0
LINE
8
BLACK
6
CONTINUOUS
10
141.879667999999981
20
-101.3299030000000016
11
141.7889030000000048
21
-101.420667999999992
0
LINE
8
BLACK
6
CONTINUOUS
10
141.7889030000000048
20
-101.420667999999992
11
141.7247219999999857
21
-101.5318319999999943
0
LINE
8
BLACK
6
CONTINUOUS
10
141.7247219999999857
20
-101.5318319999999943
11
141.6914999999999907
21
-101.6558189999999939
0
LINE
8
BLACK
6
CONTINUOUS
10
141.6914999999999907
20
-101.6558189999999939
11
141.6914999999999907
21
-101.7199999999999989
0
LINE
8
BLACK
6
CONTINUOUS
10
141.6914999999999907
20
-101.7199999999999989
11
141.6914999999999907
21
-102.7199999999999989
0
LINE
8
BLACK
6
CONTINUOUS
10
141.6914999999999907
20
-102.7199999999999989
11
141.6914999999999907
21
-102.7841809999999896
0
LINE
8
BLACK
6
CONTINUOUS
10
141.6914999999999907
20
-102.7841809999999896
11
141.7247219999999857
21
-102.9081679999999892
0
LINE
8
BLACK
6
CONTINUOUS
10
141.7247219999999857
20
-102.9081679999999892
11
141.7889030000000048
21
-103.0193319999999915
0
LINE
8
BLACK
6
CONTINUOUS
10
141.7889030000000048
20
-103.0193319999999915
11
141.879667999999981
21
-103.1100969999999961
0
LINE
8
BLACK
6
CONTINUOUS
10
141.879667999999981
20
-103.1100969999999961
11
141.9908319999999833
21
-103.174278000000001
0
LINE
8
BLACK
6
CONTINUOUS
10
141.9908319999999833
20
-103.174278000000001
11
142.1148189999999829
21
-103.207499999999996
0
LINE
8
BLACK
6
CONTINUOUS
10
142.1148189999999829
20
-103.207499999999996
11
142.179000000000002
21
-103.207499999999996
0
LINE
8
BLACK
6
CONTINUOUS
10
142.179000000000002
20
-103.207499999999996
11
147.179000000000002
21
-103.207499999999996
0
LINE
8
BLACK
6
CONTINUOUS
10
147.179000000000002
20
-103.207499999999996
11
147.1837840000000028
21
-103.2084519999999941
0
LINE
8
BLACK
6
CONTINUOUS
10
147.1837840000000028
20
-103.2084519999999941
11
147.1905480000000068
21
-103.2152159999999981
0
LINE
8
BLACK
6
CONTINUOUS
10
147.1905480000000068
20
-103.2152159999999981
11
147.1914999999999907
21
-103.2199999999999989
0
LINE
8
BLACK
6
CONTINUOUS
10
147.1914999999999907
20
-103.2199999999999989
11
147.1914999999999907
21
-106.207499999999996
0
LINE
8
BLACK
6
CONTINUOUS
10
147.1914999999999907
20
-106.207499999999996
11
148.179000000000002
21
-106.207499999999996
0
LINE
8
BLACK
6
CONTINUOUS
10
148.179000000000002
20
-106.207499999999996
11
148.1837840000000028
21
-106.2084519999999941
0
LINE
8
BLACK
6
CONTINUOUS
10
148.1837840000000028
20
-106.2084519999999941
11
148.1905480000000068
21
-106.2152159999999981
0
LINE
8
BLACK
6
CONTINUOUS
10
148.1905480000000068
20
-106.2152159999999981
11
148.1914999999999907
21
-106.2199999999999989
0
LINE
8
BLACK
6
CONTINUOUS
10
148.1914999999999907
20
-106.2199999999999989
11
148.1914999999999907
21
-114.2199999999999989
0
LINE
8
BLACK
6
CONTINUOUS
10
148.1914999999999907
20
-114.2199999999999989
11
148.1905480000000068
21
-114.2247839999999997
0
LINE
8
BLACK
6
CONTINUOUS
10
148.1905480000000068
20
-114.2247839999999997
11
148.1837840000000028
21
-114.2315479999999894
0
LINE
8
BLACK
6
CONTINUOUS
10
148.1837840000000028
20
-114.2315479999999894
11
148.179000000000002
21
-114.2325000000000017
0
LINE
8
BLACK
6
CONTINUOUS
10
148.179000000000002
20
-114.2325000000000017
11
133.179000000000002
21
-114.2325000000000017
0
LINE
8
BLACK
6
CONTINUOUS
10
133.179000000000002
20
-114.2325000000000017
11
133.1742160000000013
21
-114.2315479999999894
0
LINE
8
BLACK
6
CONTINUOUS
10
133.1742160000000013
20
-114.2315479999999894
11
133.1674519999999973
21
-114.2247839999999997
0
LINE
8
BLACK
6
CONTINUOUS
10
133.1674519999999973
20
-114.2247839999999997
11
133.166499999999985
21
-114.2199999999999989
0
LINE
8
BLACK
6
CONTINUOUS
10
133.166499999999985
20
-114.2199999999999989
11
133.166499999999985
21
-106.2199999999999989
0
LINE
8
BLACK
6
CONTINUOUS
10
133.166499999999985
20
-106.2199999999999989
11
133.1674519999999973
21
-106.2152159999999981
0
LINE
8
BLACK
6
CONTINUOUS
10
133.1674519999999973
20
-106.2152159999999981
11
133.1742160000000013
21
-106.2084519999999941
0
LINE
8
BLACK
6
CONTINUOUS
10
133.1742160000000013
20
-106.2084519999999941
11
133.179000000000002
21
-106.207499999999996
0
LINE
8
BLACK
6
CONTINUOUS
10
133.179000000000002
20
-106.207499999999996
11
134.166499999999985
21
-106.207499999999996
0
LINE
8
BLACK
6
CONTINUOUS
10
134.166499999999985
20
-106.207499999999996
11
134.166499999999985
21
-103.2199999999999989
0
LINE
8
BLACK
6
CONTINUOUS
10
134.166499999999985
20
-103.2199999999999989
11
134.1674519999999973
21
-103.2152159999999981
0
LINE
8
BLACK
6
CONTINUOUS
10
134.1674519999999973
20
-103.2152159999999981
11
134.1742160000000013
21
-103.2084519999999941
0
LINE
8
BLACK
6
CONTINUOUS
10
134.1742160000000013
20
-103.2084519999999941
11
134.179000000000002
21
-103.207499999999996
0
LINE
8
BLACK
6
CONTINUOUS
10
134.179000000000002
20
-103.207499999999996
11
139.179000000000002
21
-103.207499999999996
0
LINE
8
BLACK
6
CONTINUOUS
10
139.179000000000002
20
-103.207499999999996
11
139.2431809999999928
21
-103.207499999999996
0
LINE
8
BLACK
6
CONTINUOUS
10
139.2431809999999928
20
-103.207499999999996
11
139.3671679999999924
21
-103.174278000000001
0
LINE
8
BLACK
6
CONTINUOUS
10
139.3671679999999924
20
-103.174278000000001
11
139.4783319999999947
21
-103.1100969999999961
0
LINE
8
BLACK
6
CONTINUOUS
10
139.4783319999999947
20
-103.1100969999999961
11
139.5690969999999993
21
-103.0193319999999915
0
LINE
8
BLACK
6
CONTINUOUS
10
139.5690969999999993
20
-103.0193319999999915
11
139.63327799999999
21
-102.9081679999999892
0
LINE
8
BLACK
6
CONTINUOUS
10
139.63327799999999
20
-102.9081679999999892
11
139.666499999999985
21
-102.7841809999999896
0
LINE
8
BLACK
6
CONTINUOUS
10
139.666499999999985
20
-102.7841809999999896
11
139.666499999999985
21
-102.7199999999999989
0
LINE
8
BLACK
6
CONTINUOUS
10
139.666499999999985
20
-102.7199999999999989
11
139.666499999999985
21
-101.7199999999999989
0
LINE
8
BLACK
6
CONTINUOUS
10
139.666499999999985
20
-101.7199999999999989
11
139.666499999999985
21
-101.6558189999999939
0
LINE
8
BLACK
6
CONTINUOUS
10
139.666499999999985
20
-101.6558189999999939
11
139.63327799999999
21
-101.5318319999999943
0
LINE
8
BLACK
6
CONTINUOUS
10
139.63327799999999
20
-101.5318319999999943
11
139.5690969999999993
21
-101.420667999999992
0
LINE
8
BLACK
6
CONTINUOUS
10
139.5690969999999993
20
-101.420667999999992
11
139.4783319999999947
21
-101.3299030000000016
0
LINE
8
BLACK
6
CONTINUOUS
10
139.4783319999999947
20
-101.3299030000000016
11
139.3671679999999924
21
-101.2657219999999967
0
LINE
8
BLACK
6
CONTINUOUS
10
139.3671679999999924
20
-101.2657219999999967
11
139.2431809999999928
21
-101.2325000000000017
0
LINE
8
BLACK
6
CONTINUOUS
10
139.2431809999999928
20
-101.2325000000000017
11
139.179000000000002
21
-101.2325000000000017
0
LINE
8
BLACK
6
CONTINUOUS
10
139.179000000000002
20
-101.2325000000000017
11
134.179000000000002
21
-101.2325000000000017
0
LINE
8
BLACK
6
CONTINUOUS
10
134.179000000000002
20
-101.2325000000000017
11
134.1742160000000013
21
-101.2315479999999894
0
LINE
8
BLACK
6
CONTINUOUS
10
134.1742160000000013
20
-101.2315479999999894
11
134.1674519999999973
21
-101.2247839999999997
0
LINE
8
BLACK
6
CONTINUOUS
10
134.1674519999999973
20
-101.2247839999999997
11
134.166499999999985
21
-101.2199999999999989
0
LINE
8
BLACK
6
CONTINUOUS
10
134.166499999999985
20
-101.2199999999999989
11
134.166499999999985
21
-98.2199999999999989
0
LINE
8
BLACK
6
CONTINUOUS
10
134.166499999999985
20
-98.2199999999999989
11
134.1674519999999973
21
-98.2152159999999981
0
LINE
8
BLACK
6
CONTINUOUS
10
134.1674519999999973
20
-98.2152159999999981
11
134.1742160000000013
21
-98.2084519999999941
0
LINE
8
BLACK
6
CONTINUOUS
10
134.1742160000000013
20
-98.2084519999999941
11
134.179000000000002
21
-98.207499999999996
0
LINE
8
BLACK
6
CONTINUOUS
10
134.179000000000002
20
-98.207499999999996
11
147.179000000000002
21
-98.207499999999996
0
LINE
8
BLACK
6
CONTINUOUS
10
147.179000000000002
20
-98.207499999999996
11
147.1837840000000028
21
-98.2084519999999941
0
LINE
8
BLACK
6
CONTINUOUS
10
134.1914999999999907
20
-98.2325000000000017
11
134.1914999999999907
21
-101.207499999999996
0
LINE
8
BLACK
6
CONTINUOUS
10
134.1914999999999907
20
-101.207499999999996
11
139.179000000000002
21
-101.207499999999996
0
LINE
8
BLACK
6
CONTINUOUS
10
139.179000000000002
20
-101.207499999999996
11
139.2930419999999856
21
-101.2203489999999988
0
LINE
8
BLACK
6
CONTINUOUS
10
139.2930419999999856
20
-101.2203489999999988
11
139.4013649999999984
21
-101.2582529999999963
0
LINE
8
BLACK
6
CONTINUOUS
10
139.4013649999999984
20
-101.2582529999999963
11
139.4985389999999938
21
-101.319310999999999
0
LINE
8
BLACK
6
CONTINUOUS
10
139.4985389999999938
20
-101.319310999999999
11
139.5796890000000019
21
-101.4004609999999929
0
LINE
8
BLACK
6
CONTINUOUS
10
139.5796890000000019
20
-101.4004609999999929
11
139.6407470000000046
21
-101.4976350000000025
0
LINE
8
BLACK
6
CONTINUOUS
10
139.6407470000000046
20
-101.4976350000000025
11
139.6786510000000021
21
-101.6059580000000011
0
LINE
8
BLACK
6
CONTINUOUS
10
139.6786510000000021
20
-101.6059580000000011
11
139.6914999999999907
21
-101.7199999999999989
0
LINE
8
BLACK
6
CONTINUOUS
10
139.6914999999999907
20
-101.7199999999999989
11
139.6914999999999907
21
-102.7199999999999989
0
LINE
8
BLACK
6
CONTINUOUS
10
139.6914999999999907
20
-102.7199999999999989
11
139.6786510000000021
21
-102.8340419999999966
0
LINE
8
BLACK
6
CONTINUOUS
10
139.6786510000000021
20
-102.8340419999999966
11
139.6407470000000046
21
-102.9423649999999952
0
LINE
8
BLACK
6
CONTINUOUS
10
139.6407470000000046
20
-102.9423649999999952
11
139.5796890000000019
21
-103.0395389999999907
0
LINE
8
BLACK
6
CONTINUOUS
10
139.5796890000000019
20
-103.0395389999999907
11
139.4985389999999938
21
-103.1206889999999987
0
LINE
8
BLACK
6
CONTINUOUS
10
139.4985389999999938
20
-103.1206889999999987
11
139.4013649999999984
21
-103.1817470000000014
0
LINE
8
BLACK
6
CONTINUOUS
10
139.4013649999999984
20
-103.1817470000000014
11
139.2930419999999856
21
-103.2196509999999989
0
LINE
8
BLACK
6
CONTINUOUS
10
139.2930419999999856
20
-103.2196509999999989
11
139.179000000000002
21
-103.2325000000000017
0
LINE
8
BLACK
6
CONTINUOUS
10
139.179000000000002
20
-103.2325000000000017
11
134.1914999999999907
21
-103.2325000000000017
0
LINE
8
BLACK
6
CONTINUOUS
10
134.1914999999999907
20
-103.2325000000000017
11
134.1914999999999907
21
-106.2199999999999989
0
LINE
8
BLACK
6
CONTINUOUS
10
134.1914999999999907
20
-106.2199999999999989
11
134.1905480000000068
21
-106.2247839999999997
0
LINE
8
BLACK
6
CONTINUOUS
10
134.1905480000000068
20
-106.2247839999999997
11
134.1837840000000028
21
-106.2315479999999894
0
LINE
8
BLACK
6
CONTINUOUS
10
134.1837840000000028
20
-106.2315479999999894
11
134.179000000000002
21
-106.2325000000000017
0
LINE
8
BLACK
6
CONTINUOUS
10
134.179000000000002
20
-106.2325000000000017
11
133.1914999999999907
21
-106.2325000000000017
0
LINE
8
BLACK
6
CONTINUOUS
10
133.1914999999999907
20
-106.2325000000000017
11
133.1914999999999907
21
-114.207499999999996
0
LINE
8
BLACK
6
CONTINUOUS
10
133.1914999999999907
20
-114.207499999999996
11
148.166499999999985
21
-114.207499999999996
0
LINE
8
BLACK
6
CONTINUOUS
10
148.166499999999985
20
-114.207499999999996
11
148.166499999999985
21
-106.2325000000000017
0
LINE
8
BLACK
6
CONTINUOUS
10
148.166499999999985
20
-106.2325000000000017
11
147.179000000000002
21
-106.2325000000000017
0
LINE
8
BLACK
6
CONTINUOUS
10
147.179000000000002
20
-106.2325000000000017
11
147.1742160000000013
21
-106.2315479999999894
0
LINE
8
BLACK
6
CONTINUOUS
10
147.1742160000000013
20
-106.2315479999999894
11
147.1674519999999973
21
-106.2247839999999997
0
LINE
8
BLACK
6
CONTINUOUS
10
147.1674519999999973
20
-106.2247839999999997
11
147.166499999999985
21
-106.2199999999999989
0
LINE
8
BLACK
6
CONTINUOUS
10
147.166499999999985
20
-106.2199999999999989
11
147.166499999999985
21
-103.2325000000000017
0
LINE
8
BLACK
6
CONTINUOUS
10
147.166499999999985
20
-103.2325000000000017
11
142.179000000000002
21
-103.2325000000000017
0
LINE
8
BLACK
6
CONTINUOUS
10
142.179000000000002
20
-103.2325000000000017
11
142.0649579999999901
21
-103.2196509999999989
0
LINE
8
BLACK
6
CONTINUOUS
10
142.0649579999999901
20
-103.2196509999999989
11
141.9566350000000057
21
-103.1817470000000014
0
LINE
8
BLACK
6
CONTINUOUS
10
141.9566350000000057
20
-103.1817470000000014
11
141.8594609999999818
21
-103.1206889999999987
0
LINE
8
BLACK
6
CONTINUOUS
10
141.8594609999999818
20
-103.1206889999999987
11
141.7783110000000022
21
-103.0395389999999907
0
LINE
8
BLACK
6
CONTINUOUS
10
141.7783110000000022
20
-103.0395389999999907
11
141.7172529999999995
21
-102.9423649999999952
0
LINE
8
BLACK
6
CONTINUOUS
10
141.7172529999999995
20
-102.9423649999999952
11
141.679349000000002
21
-102.8340419999999966
0
LINE
8
BLACK
6
CONTINUOUS
10
141.679349000000002
20
-102.8340419999999966
11
141.666499999999985
21
-102.7199999999999989
0
LINE
8
BLACK
6
CONTINUOUS
10
141.666499999999985
20
-102.7199999999999989
11
141.666499999999985
21
-101.7199999999999989
0
LINE
8
BLACK
6
CONTINUOUS
10
141.666499999999985
20
-101.7199999999999989
11
141.679349000000002
21
-101.6059580000000011
0
LINE
8
BLACK
6
CONTINUOUS
10
141.679349000000002
20
-101.6059580000000011
11
141.7172529999999995
21
-101.4976350000000025
0
LINE
8
BLACK
6
CONTINUOUS
10
141.7172529999999995
20
-101.4976350000000025
11
141.7783110000000022
21
-101.4004609999999929
0
LINE
8
BLACK
6
CONTINUOUS
10
141.7783110000000022
20
-101.4004609999999929
11
141.8594609999999818
21
-101.319310999999999
0
LINE
8
BLACK
6
CONTINUOUS
10
141.8594609999999818
20
-101.319310999999999
11
141.9566350000000057
21
-101.2582529999999963
0
LINE
8
BLACK
6
CONTINUOUS
10
141.9566350000000057
20
-101.2582529999999963
11
142.0649579999999901
21
-101.2203489999999988
0
LINE
8
BLACK
6
CONTINUOUS
10
142.0649579999999901
20
-101.2203489999999988
11
142.179000000000002
21
-101.207499999999996
0
LINE
8
BLACK
6
CONTINUOUS
10
142.179000000000002
20
-101.207499999999996
11
147.166499999999985
21
-101.207499999999996
0
LINE
8
BLACK
6
CONTINUOUS
10
147.166499999999985
20
-101.207499999999996
11
147.166499999999985
21
-98.2325000000000017
0
LINE
8
BLACK
6
CONTINUOUS
10
147.166499999999985
20
-98.2325000000000017
11
134.1914999999999907
21
-98.2325000000000017
  0
ENDSEC
  0
EOF
