<?xml version="1.0" encoding="utf-8"?>
<!-- Generator: Adobe Illustrator 16.0.0, SVG Export Plug-In . SVG Version: 6.00 Build 0)  -->
<!DOCTYPE svg PUBLIC "-//W3C//DTD SVG 1.1//EN" "http://www.w3.org/Graphics/SVG/1.1/DTD/svg11.dtd">
<svg version="1.1" id="Layer_1" xmlns="http://www.w3.org/2000/svg" xmlns:xlink="http://www.w3.org/1999/xlink" x="0px" y="0px"
	 width="143.5px" height="43.125px" viewBox="0 0 143.5 43.125" enable-background="new 0 0 143.5 43.125" xml:space="preserve">
<g>
	<path fill-rule="evenodd" clip-rule="evenodd" d="M12.057,18.24c-0.922,1.893-1.746,3.842-2.795,5.662
		c-0.932,1.616-1.973,3.216-3.22,4.593c-1.633,1.803-3.694,1.406-4.508-0.903c-0.614-1.742-1.06-3.664-1.02-5.493
		c0.104-4.712,0.499-9.419,0.826-14.125c0.078-1.115,0.57-2.02,1.933-1.735c1.251,0.261,1.25,1.215,1.172,2.26
		c-0.335,4.509-0.675,9.019-0.893,13.534c-0.063,1.31,0.274,2.64,0.428,3.961c0.129,0.03,0.259,0.062,0.389,0.093
		c0.408-0.498,0.855-0.97,1.217-1.5c3.037-4.461,4.97-9.447,6.865-14.451c0.154-0.405,0.287-0.817,0.442-1.223
		c0.326-0.853,0.854-1.426,1.858-1.172c1.028,0.259,1.316,0.947,1.176,1.974c-0.278,2.052-0.589,4.11-0.675,6.175
		c-0.092,2.206,0.041,4.422,0.118,6.633c0.018,0.521,0.16,1.05,0.321,1.551c0.372,1.158,0.767,2.417,2.128,2.689
		c1.407,0.282,2.219-0.828,2.897-1.795c2.464-3.51,3.708-7.51,4.212-11.71c0.256-2.133,0.175-4.321,0.063-6.476
		c-0.047-0.915-0.628-1.791-0.841-2.714c-0.123-0.532-0.199-1.451,0.064-1.613c0.463-0.286,1.52-0.395,1.766-0.104
		c0.747,0.885,1.468,1.931,1.761,3.031c0.794,2.979,0.568,6.018,0.081,9.039c-0.644,3.993-1.918,7.769-4.068,11.194
		c-0.73,1.164-1.676,2.261-2.733,3.135c-2.494,2.062-5.679,1.462-6.979-1.475c-0.838-1.893-1.108-4.05-1.526-6.109
		c-0.188-0.924-0.114-1.9-0.16-2.852C12.257,18.289,12.157,18.265,12.057,18.24z"/>
	<path fill-rule="evenodd" clip-rule="evenodd" d="M125.908,12.459c-0.787,0.44-1.24,0.694-1.694,0.947
		c-0.69,0.385-1.433,0.397-1.667-0.407c-0.164-0.562-0.069-1.456,0.292-1.854c0.519-0.567,1.405-0.783,2.099-1.209
		c0.788-0.483,1.493-1.118,2.315-1.523c0.541-0.267,1.23-0.35,1.845-0.323c0.804,0.033,1.597,0.359,2.398,0.378
		c2.59,0.062,5.184-0.028,7.769,0.094c0.76,0.036,1.583,0.465,2.221,0.927c1.071,0.775,1.444,1.874,0.917,3.186
		c-0.835,2.08-2.523,3.387-4.287,4.554c-1.559,1.032-3.259,1.852-4.898,2.76c-0.443,0.245-0.897,0.474-1.188,0.626
		c3.227,1.791,6.419,3.543,9.586,5.339c0.531,0.301,1.19,0.711,1.362,1.216c0.19,0.557,0.089,1.453-0.27,1.875
		c-0.246,0.29-1.355,0.275-1.724-0.031c-4.106-3.407-8.894-5.3-14.237-6.572c-0.154,1.285-0.316,2.551-0.455,3.819
		c-0.062,0.572-0.031,1.157-0.125,1.724c-0.157,0.952-0.248,2.033-1.692,1.751c-1.071-0.21-1.741-1.24-1.519-2.394
		c0.777-4.016,1.576-8.026,2.369-12.038C125.491,14.464,125.668,13.628,125.908,12.459z M127.104,20.508
		c1.874-0.944,3.375-1.573,4.742-2.419c2.283-1.413,4.518-2.913,6.682-4.502c0.479-0.351,0.92-1.348,0.748-1.818
		c-0.164-0.452-1.136-0.828-1.768-0.853c-1.677-0.065-3.371-0.016-5.041,0.154c-3.257,0.33-3.263,0.374-4.028,3.572
		C128.007,16.44,127.616,18.248,127.104,20.508z"/>
	<path fill-rule="evenodd" clip-rule="evenodd" d="M36.123,9.572c2.665-0.47,5.451-0.999,8.251-1.429
		c0.736-0.113,1.586-0.078,2.259,0.194c0.441,0.18,0.658,0.909,0.976,1.393c-0.44,0.268-0.849,0.677-1.325,0.781
		c-3.281,0.724-6.581,1.357-9.863,2.076c-1.34,0.293-2.118,1.187-2.414,2.557c-0.26,1.203-0.638,2.382-1.045,3.867
		c1.539-0.425,2.758-0.778,3.986-1.096c1.819-0.47,3.64-0.933,5.469-1.358c0.557-0.129,1.205-0.306,1.7-0.136
		c0.54,0.185,0.951,0.746,1.418,1.144c-0.411,0.378-0.76,0.952-1.242,1.102c-3.356,1.041-6.71,2.115-10.125,2.925
		c-1.862,0.441-2.158,1.558-2.146,3.107c0.012,1.518,0.567,2.299,2.067,2.09c2.074-0.289,4.111-0.896,6.135-1.47
		c0.869-0.247,1.631-0.877,2.502-1.101c0.479-0.123,1.333,0.072,1.557,0.42c0.238,0.37,0.024,1.126-0.173,1.645
		c-0.114,0.299-0.556,0.552-0.904,0.672c-2.808,0.973-5.572,2.179-8.46,2.788c-3.644,0.769-6.164-1.483-5.563-5.139
		c0.793-4.823,2.118-9.563,3.33-14.308c0.151-0.593,0.94-1.272,1.553-1.422C34.621,8.74,35.338,9.278,36.123,9.572z"/>
	<path fill-rule="evenodd" clip-rule="evenodd" d="M109.84,9.632c3.009-0.532,5.791-1.049,8.583-1.501
		c0.653-0.105,1.438-0.197,1.986,0.068c0.59,0.284,0.973,0.996,1.445,1.522c-0.527,0.28-1.024,0.701-1.585,0.819
		c-3.052,0.642-6.127,1.169-9.177,1.815c-1.744,0.371-2.857,1.437-3.182,3.28c-0.187,1.059-0.536,2.089-0.863,3.326
		c2.985-0.785,5.662-1.521,8.355-2.183c0.927-0.229,1.915-0.433,2.843-0.339c0.493,0.05,0.919,0.762,1.375,1.174
		c-0.389,0.342-0.724,0.855-1.175,0.996c-3.673,1.148-7.372,2.211-11.052,3.336c-1.109,0.338-1.481,1.494-1.243,3.403
		c0.147,1.188,1.003,1.606,1.953,1.439c2.068-0.362,4.118-0.868,6.143-1.431c0.867-0.242,1.661-0.757,2.477-1.172
		c0.753-0.384,1.563-0.386,1.808,0.442c0.156,0.532-0.104,1.579-0.516,1.823c-3.176,1.878-6.564,3.323-10.312,3.386
		c-2.932,0.048-4.734-2.054-4.409-5.198c0.285-2.764,0.861-5.509,1.47-8.226c0.473-2.107,1.082-4.2,1.837-6.222
		C107.283,8.366,108.795,8.256,109.84,9.632z"/>
	<path fill-rule="evenodd" clip-rule="evenodd" d="M87.649,19.389c3.134-0.485,5.988-0.89,8.82-1.412
		c0.337-0.063,0.698-0.732,0.806-1.179c0.54-2.247,0.995-4.514,1.49-6.771c0.113-0.517,0.237-1.033,0.401-1.534
		c0.366-1.12,1.22-1.334,2.195-0.979c0.941,0.343,1.028,1.047,0.754,2.003c-0.765,2.668-1.412,5.369-2.027,7.753
		c0.728,0.66,1.172,1.063,1.616,1.467c-0.472,0.404-0.96,0.792-1.41,1.219c-0.318,0.302-0.783,0.625-0.844,0.994
		c-0.423,2.582-1.393,5.119-0.571,7.824c0.124,0.408-0.375,1.267-0.812,1.509c-0.409,0.226-1.371,0.115-1.64-0.214
		c-0.476-0.582-0.873-1.457-0.835-2.185c0.106-2.011,0.453-4.009,0.705-6.013c0.041-0.322,0.083-0.646,0.166-1.291
		c-3.114,0.646-6.063,1.234-8.992,1.902c-0.281,0.064-0.601,0.614-0.641,0.968c-0.208,1.841-0.229,3.708-0.547,5.525
		c-0.095,0.538-0.896,1.261-1.454,1.343c-0.988,0.145-1.841-0.439-1.716-1.612c0.152-1.433,0.483-2.846,0.701-4.273
		c0.052-0.346,0.106-0.879-0.084-1.043c-1.263-1.085-0.382-1.939,0.202-2.863c0.361-0.573,0.824-1.151,0.959-1.788
		c0.602-2.825,1.13-5.667,1.621-8.514c0.179-1.038,0.614-1.639,1.716-1.405c1.065,0.227,1.354,1.035,1.162,1.991
		c-0.461,2.313-0.981,4.616-1.47,6.925C87.826,18.192,87.769,18.658,87.649,19.389z"/>
	<path fill-rule="evenodd" clip-rule="evenodd" d="M59.7,9.191c2.275,2.074,2.008,4.98,2.495,7.628
		c0.195,1.06-0.071,2.208,1.64,2.295c0.795,0.041,0.784,1.396-0.134,1.719c-0.975,0.342-0.94,0.922-0.856,1.662
		c0.206,1.817,0.399,3.636,0.625,5.451c0.115,0.919-0.063,1.833-1.071,1.81c-0.515-0.012-1.349-0.829-1.452-1.39
		c-0.396-2.164-0.556-4.37-0.833-6.819c-2.279,0.649-4.447,1.426-6.682,1.859c-2.233,0.434-3.518,1.634-4.171,3.74
		c-0.326,1.052-0.725,2.117-1.307,3.04c-0.304,0.481-1.126,0.994-1.625,0.917c-0.9-0.14-1.307-0.968-0.992-1.897
		c0.37-1.091,0.74-2.2,1.281-3.209c2.181-4.068,4.391-8.122,6.664-12.139c1.265-2.236,2.68-4.387,4.017-6.583
		c0.586-0.963,1.236-1.875,2.505-1.084c1.237,0.771,0.657,1.709,0.069,2.596C59.795,8.902,59.761,9.045,59.7,9.191z M58.184,11.955
		c-0.187,0-0.374,0-0.561,0c-1.677,2.799-3.354,5.597-5.026,8.387c0.279,0.179,0.324,0.233,0.359,0.227
		c1.276-0.227,2.547-0.484,3.827-0.687c3.012-0.472,3.074-0.471,2.573-3.441C59.098,14.923,58.583,13.449,58.184,11.955z"/>
	<path fill-rule="evenodd" clip-rule="evenodd" d="M78.929,8.421c-0.179,1.172-0.291,2.067-0.456,2.952
		c-0.81,4.357-1.674,8.705-2.424,13.072c-0.175,1.017,0.157,2.117,0.006,3.143c-0.125,0.848-0.494,1.738-1.014,2.408
		c-0.192,0.248-1.409,0.14-1.658-0.188c-0.463-0.607-0.869-1.544-0.758-2.259c0.908-5.852,1.941-11.685,2.933-17.524
		c0.04-0.235,0.043-0.477,0.081-0.927c-0.463,0.063-0.878,0.05-1.243,0.181c-2.49,0.895-4.977,1.801-7.447,2.751
		c-0.633,0.243-1.226,0.742-1.769-0.053c-0.55-0.804-0.622-1.699,0.137-2.362c0.601-0.525,1.356-0.935,2.109-1.219
		c6.859-2.584,14.009-3.458,21.287-3.519c1.113-0.01,1.916,0.538,1.868,1.726c-0.044,1.104-0.861,1.295-1.855,1.313
		c-2.795,0.053-5.588,0.192-8.381,0.316C79.825,8.256,79.31,8.368,78.929,8.421z"/>
</g>
<path fill-rule="evenodd" clip-rule="evenodd" d="M48.679,32.231c0,0.407,0,0.739,0,1.13c-0.389,0-0.743,0-1.161,0
	c0-0.344,0-0.698,0-1.13C47.862,32.231,48.238,32.231,48.679,32.231z"/>
<path fill-rule="evenodd" clip-rule="evenodd" d="M50.521,32.229c0,0.374,0,0.724,0,1.13c-0.389,0-0.735,0-1.16,0
	c-0.017-0.365-0.034-0.715-0.053-1.13C49.74,32.229,50.113,32.229,50.521,32.229z"/>
<path fill-rule="evenodd" clip-rule="evenodd" d="M52.327,32.238c0,0.36,0,0.688,0,1.126c-0.341,0.02-0.688,0.038-1.092,0.062
	c0-0.424,0-0.776,0-1.188C51.583,32.238,51.929,32.238,52.327,32.238z"/>
<path fill-rule="evenodd" clip-rule="evenodd" d="M54.205,33.367c-0.415,0-0.744,0-1.134,0c0-0.384,0-0.73,0-1.146
	c0.376-0.017,0.727-0.031,1.134-0.051C54.205,32.592,54.205,32.941,54.205,33.367z"/>
<path fill-rule="evenodd" clip-rule="evenodd" d="M85.749,37.074c0-0.398,0-0.726,0-1.11c0.381,0,0.73,0,1.149,0
	c0,0.352,0,0.698,0,1.11C86.543,37.074,86.195,37.074,85.749,37.074z"/>
<path fill-rule="evenodd" clip-rule="evenodd" d="M58.302,33.342c0-0.369,0-0.718,0-1.121c0.377,0,0.726,0,1.138,0
	c0,0.343,0,0.692,0,1.121C59.086,33.342,58.719,33.342,58.302,33.342z"/>
<path fill-rule="evenodd" clip-rule="evenodd" d="M64.229,32.198c0.399,0,0.729,0,1.128,0c0,0.376,0,0.728,0,1.144
	c-0.362,0-0.712,0-1.128,0C64.229,32.993,64.229,32.642,64.229,32.198z"/>
<path fill-rule="evenodd" clip-rule="evenodd" d="M62.184,37.787c0.399,0,0.73,0,1.137,0c0,0.374,0,0.749,0,1.175
	c-0.368,0-0.722,0-1.137,0C62.184,38.59,62.184,38.238,62.184,37.787z"/>
<path fill-rule="evenodd" clip-rule="evenodd" d="M69.635,33.322c0-0.407,0-0.735,0-1.111c0.397,0,0.749,0,1.153,0
	c0,0.382,0,0.73,0,1.111C70.368,33.322,70,33.322,69.635,33.322z"/>
<path fill-rule="evenodd" clip-rule="evenodd" d="M71.512,32.208c0.407,0,0.739,0,1.114,0c0,0.396,0,0.751,0,1.164
	c-0.356,0-0.706,0-1.114,0C71.512,32.957,71.512,32.583,71.512,32.208z"/>
<path fill-rule="evenodd" clip-rule="evenodd" d="M81.505,37.806c0.02,0.372,0.038,0.725,0.061,1.14c-0.429,0-0.778,0-1.171,0
	c0-0.397,0-0.749,0-1.14C80.772,37.806,81.098,37.806,81.505,37.806z"/>
<path fill-rule="evenodd" clip-rule="evenodd" d="M82.227,33.342c0-0.38,0-0.729,0-1.125c0.396,0,0.747,0,1.16,0
	c0,0.358,0,0.707,0,1.125C83.036,33.342,82.687,33.342,82.227,33.342z"/>
<path fill-rule="evenodd" clip-rule="evenodd" d="M88.558,33.375c-0.364,0-0.692,0-1.1,0c0-0.367,0-0.74,0-1.172
	c0.333,0,0.684,0,1.1,0C88.558,32.563,88.558,32.916,88.558,33.375z"/>
<path fill-rule="evenodd" clip-rule="evenodd" d="M82.229,38.926c0-0.408,0-0.736,0-1.105c0.396,0,0.748,0,1.157,0
	c0,0.385,0,0.732,0,1.105C82.969,38.926,82.597,38.926,82.229,38.926z"/>
<path fill-rule="evenodd" clip-rule="evenodd" d="M85.748,38.913c0-0.372,0-0.698,0-1.105c0.372-0.021,0.722-0.041,1.143-0.065
	c0,0.402,0,0.75,0,1.171C86.546,38.913,86.2,38.913,85.748,38.913z"/>
<path fill-rule="evenodd" clip-rule="evenodd" d="M65.369,42.693c-0.404,0-0.734,0-1.134,0c0-0.386,0-0.758,0-1.172
	c0.373,0,0.723,0,1.134,0C65.369,41.905,65.369,42.254,65.369,42.693z"/>
<path fill-rule="evenodd" clip-rule="evenodd" d="M51.226,42.653c0-0.393,0-0.744,0-1.139c0.395,0,0.747,0,1.161,0
	c0,0.375,0,0.726,0,1.139C52.037,42.653,51.685,42.653,51.226,42.653z"/>
<path fill-rule="evenodd" clip-rule="evenodd" d="M58.292,41.508c0.39,0,0.744,0,1.18,0c0.018,0.37,0.035,0.725,0.055,1.158
	c-0.42,0-0.796,0-1.235,0C58.292,42.299,58.292,41.925,58.292,41.508z"/>
<path fill-rule="evenodd" clip-rule="evenodd" d="M94.125,42.697c-0.399,0-0.728,0-1.113,0c0-0.386,0-0.739,0-1.154
	c0.351,0,0.7,0,1.113,0C94.125,41.892,94.125,42.242,94.125,42.697z"/>
<path fill-rule="evenodd" clip-rule="evenodd" d="M76.097,35.242c-0.385,0-0.69,0-1.068,0c0-0.361,0-0.712,0-1.14
	c0.328-0.018,0.681-0.037,1.068-0.058C76.097,34.475,76.097,34.847,76.097,35.242z"/>
<path fill-rule="evenodd" clip-rule="evenodd" d="M77.985,35.235c-0.401,0-0.729,0-1.152,0c-0.02-0.367-0.04-0.72-0.063-1.156
	c0.412,0,0.785,0,1.216,0C77.985,34.428,77.985,34.781,77.985,35.235z"/>
<path fill-rule="evenodd" clip-rule="evenodd" d="M69.682,41.516c0.387,0,0.713,0,1.125,0c0.018,0.373,0.034,0.727,0.054,1.147
	c-0.409,0-0.761,0-1.179,0C69.682,42.322,69.682,41.971,69.682,41.516z"/>
<path fill-rule="evenodd" clip-rule="evenodd" d="M86.921,34.085c0,0.396,0,0.724,0,1.112c-0.388,0-0.738,0-1.151,0
	c0-0.352,0-0.703,0-1.112C86.11,34.085,86.462,34.085,86.921,34.085z"/>
<path fill-rule="evenodd" clip-rule="evenodd" d="M71.531,41.503c0.376,0,0.701,0,1.103,0c0,0.366,0,0.739,0,1.169
	c-0.34,0-0.689,0-1.103,0C71.531,42.29,71.531,41.916,71.531,41.503z"/>
<path fill-rule="evenodd" clip-rule="evenodd" d="M58.301,35.916c0.414,0,0.742,0,1.126,0c0,0.376,0,0.723,0,1.14
	c-0.375,0-0.722,0-1.126,0C58.301,36.7,58.301,36.352,58.301,35.916z"/>
<path fill-rule="evenodd" clip-rule="evenodd" d="M64.241,35.908c0.369,0,0.669,0,1.084,0c0.017,0.378,0.033,0.744,0.052,1.169
	c-0.414,0-0.735,0-1.137,0C64.241,36.698,64.241,36.306,64.241,35.908z"/>
<path fill-rule="evenodd" clip-rule="evenodd" d="M58.246,34.104c0.369,0,0.669,0,1.084,0c0.017,0.378,0.033,0.744,0.052,1.169
	c-0.414,0-0.735,0-1.137,0C58.246,34.894,58.246,34.501,58.246,34.104z"/>
<path fill-rule="evenodd" clip-rule="evenodd" d="M76.142,35.953c0,0.398,0,0.727,0,1.116c-0.381,0-0.729,0-1.131,0
	c0-0.354,0-0.706,0-1.116C75.366,35.953,75.715,35.953,76.142,35.953z"/>
<path fill-rule="evenodd" clip-rule="evenodd" d="M78.56,35.903c0.412,0,0.743,0,1.123,0c0,0.391,0,0.745,0,1.164
	c-0.395,0-0.747,0-1.123,0C78.56,36.67,78.56,36.297,78.56,35.903z"/>
<path fill-rule="evenodd" clip-rule="evenodd" d="M54.832,32.201c0.469,0,0.827,0,1.219,0c0.018,0.382,0.035,0.742,0.055,1.158
	c-0.4,0-0.756,0-1.216,0C54.872,33.02,54.854,32.665,54.832,32.201z"/>
<path fill-rule="evenodd" clip-rule="evenodd" d="M68.943,32.209c0,0.389,0,0.743,0,1.157c-0.401,0-0.779,0-1.174,0
	c0-0.376,0-0.737,0-1.157C68.132,32.209,68.483,32.209,68.943,32.209z"/>
<path fill-rule="evenodd" clip-rule="evenodd" d="M76.103,33.368c-0.41,0-0.709,0-1.104,0c-0.019-0.366-0.036-0.716-0.057-1.13
	c0.403,0,0.752,0,1.161,0C76.103,32.58,76.103,32.926,76.103,33.368z"/>
<path fill-rule="evenodd" clip-rule="evenodd" d="M76.155,42.683c-0.388,0-0.744,0-1.171,0c-0.018-0.359-0.035-0.715-0.055-1.13
	c0.422,0,0.799,0,1.226,0C76.155,41.923,76.155,42.278,76.155,42.683z"/>
<path fill-rule="evenodd" clip-rule="evenodd" d="M51.215,38.926c0-0.398,0-0.728,0-1.097c0.386,0,0.738,0,1.158,0
	c0,0.361,0,0.705,0,1.097C52.002,38.926,51.651,38.926,51.215,38.926z"/>
<path fill-rule="evenodd" clip-rule="evenodd" d="M67.77,42.676c0-0.394,0-0.777,0-1.197c0.391,0,0.749,0,1.172,0
	c0,0.382,0,0.76,0,1.197C68.558,42.676,68.18,42.676,67.77,42.676z"/>
<path fill-rule="evenodd" clip-rule="evenodd" d="M69.676,39.67c0.387,0,0.712,0,1.1,0c0,0.38,0,0.725,0,1.117
	c-0.367,0-0.692,0-1.1,0C69.676,40.456,69.676,40.112,69.676,39.67z"/>
<path fill-rule="evenodd" clip-rule="evenodd" d="M69.657,35.283c0-0.444,0-0.771,0-1.175c0.354-0.021,0.678-0.04,1.079-0.064
	c0,0.392,0,0.743,0,1.171C70.427,35.234,70.101,35.255,69.657,35.283z"/>
<path fill-rule="evenodd" clip-rule="evenodd" d="M75.028,37.818c0.386,0,0.741,0,1.132,0c0,0.364,0,0.693,0,1.09
	c-0.358,0-0.708,0-1.132,0C75.028,38.596,75.028,38.249,75.028,37.818z"/>
<path fill-rule="evenodd" clip-rule="evenodd" d="M59.43,38.93c-0.168,0.026-0.286,0.062-0.402,0.061
	c-0.211-0.002-0.422-0.024-0.701-0.044c0-0.368,0-0.716,0-1.121c0.347,0,0.695,0,1.104,0C59.43,38.197,59.43,38.52,59.43,38.93z"/>
<path fill-rule="evenodd" clip-rule="evenodd" d="M52.391,37.064c-0.168,0.026-0.286,0.062-0.402,0.061
	c-0.211-0.002-0.423-0.024-0.702-0.043c0-0.369,0-0.717,0-1.122c0.347,0,0.695,0,1.104,0C52.391,36.332,52.391,36.655,52.391,37.064
	z"/>
<path fill-rule="evenodd" clip-rule="evenodd" d="M69.654,35.925c0.433,0,0.736,0,1.11,0c0,0.371,0,0.722,0,1.14
	c-0.353,0-0.702,0-1.11,0C69.654,36.695,69.654,36.346,69.654,35.925z"/>
<path fill-rule="evenodd" clip-rule="evenodd" d="M52.393,39.665c0,0.392,0,0.715,0,1.128c-0.389,0.018-0.736,0.033-1.16,0.053
	c-0.026-0.379-0.048-0.699-0.078-1.123C51.577,39.703,51.966,39.686,52.393,39.665z"/>
<path fill-rule="evenodd" clip-rule="evenodd" d="M81.516,40.907c-0.366,0-0.716,0-1.126,0c0-0.362,0-0.707,0-1.109
	c0.364,0,0.715,0,1.126,0C81.516,40.15,81.516,40.496,81.516,40.907z"/>
<path fill-rule="evenodd" clip-rule="evenodd" d="M83.341,37.058c-0.367,0-0.716,0-1.126,0c0-0.362,0-0.707,0-1.11
	c0.363,0,0.714,0,1.126,0C83.341,36.301,83.341,36.646,83.341,37.058z"/>
<path fill-rule="evenodd" clip-rule="evenodd" d="M83.341,35.192c-0.367,0-0.716,0-1.126,0c0-0.362,0-0.707,0-1.109
	c0.363,0,0.714,0,1.126,0C83.341,34.436,83.341,34.781,83.341,35.192z"/>
<path fill-rule="evenodd" clip-rule="evenodd" d="M70.765,38.938c-0.379,0-0.702,0-1.086,0c0-0.388,0-0.734,0-1.125
	c0.371,0,0.693,0,1.086,0C70.765,38.154,70.765,38.502,70.765,38.938z"/>
<path fill-rule="evenodd" clip-rule="evenodd" d="M61.34,38.938c-0.379,0-0.702,0-1.086,0c0-0.388,0-0.734,0-1.125
	c0.371,0,0.693,0,1.086,0C61.34,38.154,61.34,38.502,61.34,38.938z"/>
<path fill-rule="evenodd" clip-rule="evenodd" d="M65.29,38.938c-0.379,0-0.702,0-1.086,0c0-0.388,0-0.734,0-1.125
	c0.371,0,0.694,0,1.086,0C65.29,38.154,65.29,38.502,65.29,38.938z"/>
<path fill-rule="evenodd" clip-rule="evenodd" d="M82.211,42.668c0-0.378,0-0.734,0-1.16c0.402,0.018,0.762,0.034,1.184,0.053
	c0.019,0.382,0.034,0.711,0.053,1.107C83.021,42.668,82.641,42.668,82.211,42.668z"/>
<path fill-rule="evenodd" clip-rule="evenodd" d="M90.366,32.151c0,0.477,0,0.832,0,1.229c-0.387,0-0.711,0-1.111,0
	c-0.022-0.388-0.041-0.741-0.064-1.175C89.611,32.186,89.964,32.17,90.366,32.151z"/>
<path fill-rule="evenodd" clip-rule="evenodd" d="M91.035,37.756c0.368,0,0.701,0,1.107,0c0,0.39,0,0.771,0,1.211
	c-0.365,0-0.715,0-1.107,0C91.035,38.576,91.035,38.218,91.035,37.756z"/>
<path fill-rule="evenodd" clip-rule="evenodd" d="M88.497,42.694c-0.362,0-0.689,0-1.082,0c0-0.388,0-0.766,0-1.192
	c0.355,0,0.683,0,1.082,0C88.497,41.887,88.497,42.267,88.497,42.694z"/>
<path fill-rule="evenodd" clip-rule="evenodd" d="M65.357,34.138c0,0.34,0,0.665,0,1.051c-0.38,0-0.73,0-1.133,0
	c-0.021-0.356-0.039-0.684-0.06-1.051C64.576,34.138,64.942,34.138,65.357,34.138z"/>
<path fill-rule="evenodd" clip-rule="evenodd" d="M85.754,39.728c0.382,0,0.738,0,1.147,0c0,0.353,0,0.674,0,1.111
	c-0.354,0.018-0.726,0.037-1.147,0.058C85.754,40.461,85.754,40.111,85.754,39.728z"/>
<path fill-rule="evenodd" clip-rule="evenodd" d="M91.143,32.197c0.369,0,0.695,0,1.063,0c0,0.394,0,0.751,0,1.166
	c-0.354,0-0.675,0-1.063,0C91.143,32.998,91.143,32.644,91.143,32.197z"/>
<path fill-rule="evenodd" clip-rule="evenodd" d="M74.936,39.755c0.467,0,0.819,0,1.24,0c-0.021,0.361-0.039,0.679-0.059,1.038
	c-0.386,0-0.708,0-1.12,0C74.978,40.474,74.959,40.156,74.936,39.755z"/>
<path fill-rule="evenodd" clip-rule="evenodd" d="M64.227,40.783c0-0.357,0-0.674,0-1.031c0.362-0.016,0.689-0.03,1.146-0.05
	c-0.017,0.379-0.031,0.712-0.047,1.081C64.921,40.783,64.602,40.783,64.227,40.783z"/>
<path fill-rule="evenodd" clip-rule="evenodd" d="M83.373,40.8c-0.386,0-0.738,0-1.143,0c0-0.328,0-0.622,0-0.982
	c0.369,0,0.722,0,1.143,0C83.373,40.116,83.373,40.433,83.373,40.8z"/>
<path fill-rule="evenodd" clip-rule="evenodd" d="M94.045,38.946c-0.39,0-0.688,0-1.082,0c-0.018-0.374-0.033-0.722-0.052-1.127
	c0.407,0,0.731,0,1.134,0C94.045,38.166,94.045,38.513,94.045,38.946z"/>
<path fill-rule="evenodd" clip-rule="evenodd" d="M51.262,34.215c0.397,0,0.724,0,1.105,0c0.015,0.328,0.028,0.622,0.044,0.993
	c-0.392,0-0.739,0-1.149,0C51.262,34.896,51.262,34.559,51.262,34.215z"/>
<path fill-rule="evenodd" clip-rule="evenodd" d="M92.98,33.344c0-0.385,0-0.734,0-1.137c0.361,0,0.679,0,1.058,0
	c0,0.365,0,0.714,0,1.137C93.722,33.344,93.405,33.344,92.98,33.344z"/>
<path fill-rule="evenodd" clip-rule="evenodd" d="M59.402,40.81c-0.38,0-0.709,0-1.103,0c0-0.351,0-0.669,0-1.041
	c0.365-0.016,0.694-0.031,1.103-0.05C59.402,40.077,59.402,40.393,59.402,40.81z"/>
<path fill-rule="evenodd" clip-rule="evenodd" d="M90.338,41.512c0,0.418,0,0.769,0,1.166c-0.362,0-0.683,0-1.077,0
	c0-0.372,0-0.742,0-1.166C89.59,41.512,89.908,41.512,90.338,41.512z"/>
<path fill-rule="evenodd" clip-rule="evenodd" d="M92.231,42.692c-0.427,0-0.724,0-1.101,0c0-0.387,0-0.759,0-1.181
	c0.329,0,0.647,0,1.04,0C92.189,41.889,92.208,42.241,92.231,42.692z"/>
<path fill-rule="evenodd" clip-rule="evenodd" d="M92.989,40.771c0-0.345,0-0.633,0-0.976c0.363-0.02,0.686-0.037,1.081-0.059
	c0,0.355,0,0.667,0,1.034C93.743,40.771,93.422,40.771,92.989,40.771z"/>
</svg>
